<?xml version="1.0" standalone="no"?>
<!DOCTYPE svg PUBLIC "-//W3C//DTD SVG 20010904//EN"
 "http://www.w3.org/TR/2001/REC-SVG-20010904/DTD/svg10.dtd">
<svg version="1.0" xmlns="http://www.w3.org/2000/svg"
 width="600.000000pt" height="337.000000pt" viewBox="0 0 600.000000 337.000000"
 preserveAspectRatio="xMidYMid meet">

<g transform="translate(0.000000,337.000000) scale(0.100000,-0.100000)"
fill="#000000" stroke="none">
<path d="M1126 3225 c-21 -7 -68 -34 -105 -59 -91 -63 -132 -78 -236 -87 -106
-9 -191 -38 -227 -77 -14 -15 -51 -78 -83 -140 -46 -91 -67 -121 -108 -155
-107 -88 -127 -112 -127 -150 0 -19 9 -56 20 -82 26 -61 25 -84 -5 -141 -49
-92 -24 -182 57 -205 24 -7 59 -27 78 -46 37 -34 67 -41 101 -22 15 7 24 7 35
-2 8 -7 28 -9 48 -6 l34 5 6 -71 c4 -40 7 -90 9 -111 2 -45 32 -73 87 -81 l35
-5 -37 12 c-41 14 -78 42 -78 58 0 20 75 92 119 115 64 32 199 71 311 91 71
12 139 15 270 12 162 -4 181 -6 260 -34 66 -22 88 -35 100 -56 13 -25 13 -31
-4 -63 -11 -20 -38 -47 -60 -60 -23 -14 -36 -25 -30 -25 20 0 94 60 106 86 9
18 9 44 -1 102 -17 107 -18 219 -3 234 15 15 16 50 1 65 -19 19 0 51 39 64 94
30 142 83 142 157 0 29 7 54 21 74 26 36 36 106 19 139 -7 13 -28 47 -48 76
-30 45 -34 58 -29 94 7 55 -5 84 -45 105 -18 9 -50 32 -72 52 -37 33 -41 34
-95 28 -48 -5 -74 -1 -166 28 -61 18 -139 48 -175 65 -71 34 -105 37 -164 16z
m137 -26 c23 -12 52 -31 65 -42 22 -21 23 -21 16 -2 -6 17 -4 17 21 -5 16 -14
24 -18 20 -10 -5 9 1 7 15 -5 13 -11 20 -14 16 -7 -9 15 20 17 29 2 4 -6 10
-8 15 -5 5 3 12 0 15 -6 4 -5 13 -8 20 -5 7 2 21 -1 30 -8 11 -8 43 -11 91 -9
72 3 74 2 108 -32 20 -19 42 -35 50 -35 8 0 24 -10 35 -21 17 -18 19 -31 15
-80 -3 -36 -1 -59 5 -59 5 0 13 -10 17 -22 6 -20 13 -31 41 -62 18 -21 25 -79
13 -111 -12 -33 -58 -85 -74 -85 -5 0 6 16 25 37 l34 36 -31 -21 c-17 -12 -37
-28 -44 -37 -17 -21 -68 -47 -79 -41 -4 3 -8 -1 -8 -9 0 -19 7 -19 35 1 12 8
22 13 22 10 0 -7 -112 -80 -124 -81 -5 0 -14 -8 -20 -18 -8 -13 -8 -20 2 -25
9 -7 10 -16 1 -40 -6 -18 -12 -32 -13 -32 -1 0 -24 7 -50 16 l-49 17 6 63 c3
48 12 75 35 112 17 26 52 89 76 140 25 51 64 112 87 137 23 25 36 45 30 45
-21 0 -26 -2 -24 -10 1 -4 -10 -18 -25 -31 l-27 -24 24 28 c15 16 19 27 12 27
-11 0 -11 4 0 18 13 15 12 16 -4 3 -9 -8 -15 -16 -12 -19 3 -3 -6 -19 -18 -36
-34 -45 -42 -60 -29 -52 17 10 16 7 -22 -77 -34 -74 -44 -82 -76 -62 -21 13
-39 15 -45 5 -3 -5 3 -7 14 -5 23 4 46 -19 36 -35 -5 -8 -11 -7 -22 2 -20 17
-50 21 -34 5 7 -7 16 -13 22 -13 22 -3 23 -5 9 -14 -10 -6 -21 -4 -35 8 -16
14 -18 14 -7 1 10 -13 9 -22 -3 -45 -18 -34 -21 -70 -4 -40 9 15 13 16 21 5 6
-10 7 -6 2 11 -3 14 -3 22 1 18 4 -4 16 3 27 15 21 24 21 21 -5 -36 -10 -21
-18 -62 -19 -92 l-2 -54 -45 4 c-36 4 -32 2 19 -9 123 -27 211 -68 210 -99 0
-7 -7 -4 -14 5 -14 19 -91 57 -115 58 -8 0 10 -12 40 -27 47 -24 53 -31 50
-53 -2 -14 -4 -73 -5 -131 l-1 -106 -30 9 c-138 44 -310 58 -485 38 -183 -20
-423 -93 -457 -139 -11 -15 -12 -14 -18 1 -4 10 -12 15 -17 12 -7 -4 -8 11 -3
45 4 30 3 51 -2 51 -5 0 -14 21 -20 47 -14 59 -7 69 71 121 69 45 111 64 211
98 39 13 62 23 53 24 -57 1 -265 -96 -339 -157 -28 -24 -30 -24 -21 -6 18 32
123 98 212 132 78 31 230 70 273 72 12 0 16 3 9 6 -13 5 -117 -12 -148 -24
-10 -3 -12 0 -8 10 3 8 1 18 -5 21 -6 4 -7 14 -4 23 5 12 3 14 -6 8 -10 -6
-11 -2 -6 15 5 17 4 20 -5 15 -10 -6 -11 -1 -7 21 3 16 4 23 0 16 -3 -8 -23
28 -45 79 -39 90 -97 177 -153 229 -40 37 -97 155 -65 135 6 -3 10 0 10 7 0 9
3 9 10 -2 16 -25 11 3 -6 30 l-15 25 7 -25 c7 -25 6 -25 -14 -7 -20 18 -21 18
-31 -2 -14 -25 -14 -42 0 -18 18 31 25 18 22 -38 -1 -31 2 -53 6 -50 5 2 9 -5
10 -18 1 -38 4 -57 9 -52 7 6 32 -15 32 -27 0 -5 -6 -6 -12 -2 -7 4 -4 -2 6
-14 11 -12 21 -20 24 -17 3 3 14 -3 26 -12 11 -10 -4 11 -32 47 -29 36 -52 69
-52 75 0 5 11 -3 23 -20 12 -16 45 -57 73 -90 59 -70 109 -143 102 -150 -2 -3
-22 23 -43 56 -22 33 -41 55 -43 49 -3 -7 -14 -3 -28 11 -13 12 -24 19 -24 14
0 -4 -10 0 -22 11 l-23 19 19 -23 c11 -12 22 -20 24 -17 3 3 16 -5 29 -17 13
-12 23 -18 23 -14 0 5 7 3 15 -4 8 -7 15 -17 15 -22 0 -6 -7 -5 -15 2 -8 7
-15 9 -15 5 0 -5 -9 0 -20 10 -11 10 -20 15 -20 10 0 -4 -8 -2 -17 6 -10 7 -8
2 5 -12 12 -13 32 -24 44 -24 12 0 23 -5 25 -12 3 -8 -3 -11 -17 -8 -18 4 -20
2 -10 -11 9 -10 16 -11 25 -4 12 10 25 4 25 -12 0 -5 -4 -7 -9 -3 -5 3 -12 1
-16 -4 -3 -6 4 -8 16 -6 14 3 19 0 16 -9 -3 -7 1 -13 8 -13 7 0 11 7 8 16 -3
11 0 10 11 -3 9 -11 16 -24 16 -29 0 -4 4 -5 10 -2 6 4 7 -1 3 -11 -5 -12 -3
-15 6 -9 10 6 11 2 6 -16 -4 -15 -3 -19 2 -11 7 8 15 -5 26 -41 27 -85 25 -89
-42 -110 -32 -10 -81 -29 -108 -42 l-50 -23 -12 34 c-8 23 -37 53 -84 91 -40
31 -101 83 -136 115 -71 64 -121 83 -149 54 -15 -15 -15 -16 8 -15 14 0 36 -2
49 -5 27 -6 83 -55 76 -66 -2 -4 12 -22 32 -41 20 -19 32 -27 27 -19 -5 8 -9
20 -9 25 -1 6 -7 9 -14 7 -7 -1 -10 2 -5 9 5 8 3 9 -6 4 -9 -6 -11 -4 -5 5 6
9 4 11 -6 5 -8 -5 -11 -5 -7 0 4 4 3 15 -3 24 -6 9 9 -6 35 -32 26 -28 43 -54
39 -60 -4 -8 -1 -7 9 1 29 23 148 -92 148 -144 0 -1 -21 -14 -46 -29 -45 -27
-46 -27 -67 -8 -44 39 -78 53 -154 66 -43 8 -84 12 -90 9 -7 -2 -22 -21 -33
-41 -22 -37 -25 -53 -13 -48 5 1 7 6 5 10 -1 4 3 7 10 6 7 -2 59 1 115 5 96 7
105 6 133 -14 38 -27 39 -44 2 -36 -23 5 -24 5 -8 -5 17 -10 13 -15 -40 -43
-32 -17 -59 -38 -61 -46 -3 -10 0 -9 7 3 8 13 16 15 28 8 12 -7 23 -5 37 7 19
16 19 16 6 -1 -12 -15 -12 -17 4 -11 10 4 21 1 26 -7 7 -11 9 -11 9 -1 0 7 5
10 12 6 7 -4 8 -3 4 5 -4 6 -13 8 -19 4 -7 -4 -6 1 2 10 14 17 23 17 22 0 0
-4 7 -19 16 -32 8 -13 10 -21 5 -17 -6 3 -13 2 -17 -4 -4 -6 -17 -4 -36 5 -21
12 -34 13 -48 5 -32 -17 -56 -12 -88 20 -26 25 -89 61 -108 60 -3 0 -9 0 -15
0 -15 0 -40 56 -40 90 0 38 22 82 54 107 l24 19 -30 89 -31 89 32 28 c35 32
33 36 -6 11 l-26 -18 17 28 c10 15 24 27 31 27 7 0 16 7 19 16 5 12 15 15 38
12 26 -4 28 -3 15 7 -15 11 -14 14 7 32 15 14 34 19 52 17 24 -3 25 -2 6 4
l-22 7 25 37 c14 20 25 41 25 47 0 5 3 11 8 13 4 2 20 35 36 73 16 39 38 80
49 92 28 31 124 66 162 59 19 -4 25 -3 16 3 -9 6 4 9 38 11 85 3 101 5 101 13
0 4 9 7 19 7 11 0 22 4 26 9 3 5 19 12 35 16 17 4 30 11 30 16 0 5 5 9 10 9 6
0 18 6 26 13 8 6 20 17 27 22 29 24 105 55 135 55 18 0 52 -10 75 -21z m419
-381 c-7 -7 -12 -8 -12 -2 0 14 12 26 19 19 2 -3 -1 -11 -7 -17z m-102 -198
c-6 -12 -14 -20 -17 -17 -2 3 1 14 8 26 17 26 24 19 9 -9z m-770 -24 c0 -5 -7
-1 -15 10 -8 10 -14 24 -14 29 0 6 6 1 14 -9 8 -11 15 -24 15 -30z m1046 -38
c-2 -13 0 -31 5 -40 7 -12 2 -22 -16 -36 -13 -11 -22 -22 -18 -26 11 -10 -86
-48 -107 -41 -11 4 -20 2 -20 -4 0 -11 -36 -51 -45 -51 -3 0 -5 19 -4 43 1 23
0 47 -2 52 -2 6 1 11 6 13 6 2 19 11 30 20 15 13 15 11 -2 -9 -35 -39 -27 -45
12 -10 20 17 52 40 73 51 20 10 48 28 62 39 31 26 31 26 26 -1z m-1451 -277
c16 -7 14 -9 -14 -14 -19 -4 -45 -7 -59 -7 -25 0 -25 1 -6 15 21 16 48 18 79
6z m1279 -236 c3 -8 2 -15 -3 -15 -11 0 -21 52 -20 99 1 30 3 28 9 -16 4 -29
10 -60 14 -68z m-1037 -127 c-3 -7 -5 -2 -5 12 0 14 2 19 5 13 2 -7 2 -19 0
-25z"/>
<path d="M950 3055 c13 -14 26 -25 28 -25 3 0 -5 11 -18 25 -13 14 -26 25 -28
25 -3 0 5 -11 18 -25z"/>
<path d="M910 3046 c0 -2 8 -10 18 -17 15 -13 16 -12 3 4 -13 16 -21 21 -21
13z"/>
<path d="M1277 2895 c-4 -77 -8 -207 -10 -290 -3 -82 -3 -123 -1 -90 2 33 10
143 18 245 8 103 12 205 7 230 -6 36 -9 16 -14 -95z"/>
<path d="M1669 2983 c-13 -16 -12 -17 4 -4 9 7 17 15 17 17 0 8 -8 3 -21 -13z"/>
<path d="M740 2985 c0 -5 5 -17 10 -25 5 -8 10 -10 10 -5 0 6 -5 17 -10 25 -5
8 -10 11 -10 5z"/>
<path d="M1790 2986 c0 -2 7 -7 16 -10 8 -3 12 -2 9 4 -6 10 -25 14 -25 6z"/>
<path d="M677 2960 c3 -11 9 -22 13 -25 5 -3 6 4 3 15 -3 11 -9 22 -13 25 -5
3 -6 -4 -3 -15z"/>
<path d="M720 2965 c0 -5 5 -17 10 -25 5 -8 10 -10 10 -5 0 6 -5 17 -10 25 -5
8 -10 11 -10 5z"/>
<path d="M781 2950 c14 -31 19 -36 19 -24 0 6 -7 19 -16 30 -14 18 -14 18 -3
-6z"/>
<path d="M1669 2953 c-13 -16 -12 -17 4 -4 9 7 17 15 17 17 0 8 -8 3 -21 -13z"/>
<path d="M1679 2933 l-24 -28 28 24 c25 23 32 31 24 31 -2 0 -14 -12 -28 -27z"/>
<path d="M1692 2913 l-38 -38 36 30 c19 16 39 33 45 37 5 5 6 8 2 8 -4 0 -25
-17 -45 -37z"/>
<path d="M1343 2905 c0 -22 2 -30 4 -17 2 12 2 30 0 40 -3 9 -5 -1 -4 -23z"/>
<path d="M1501 2884 c0 -11 3 -14 6 -6 3 7 2 16 -1 19 -3 4 -6 -2 -5 -13z"/>
<path d="M1332 2830 c0 -14 2 -19 5 -12 2 6 2 18 0 25 -3 6 -5 1 -5 -13z"/>
<path d="M720 2826 c0 -2 8 -10 18 -17 15 -13 16 -12 3 4 -13 16 -21 21 -21
13z"/>
<path d="M1739 2794 c-7 -9 -6 -12 6 -10 22 3 40 23 20 23 -8 0 -20 -6 -26
-13z"/>
<path d="M784 2747 c16 -20 30 -37 33 -37 7 0 -36 58 -49 66 -7 4 1 -9 16 -29z"/>
<path d="M1530 2760 c-6 -11 -8 -20 -6 -20 3 0 10 9 16 20 6 11 8 20 6 20 -3
0 -10 -9 -16 -20z"/>
<path d="M1607 2715 c-24 -50 -20 -58 4 -12 11 22 19 41 17 43 -3 2 -12 -12
-21 -31z"/>
<path d="M1764 2718 l-19 -23 23 19 c21 18 27 26 19 26 -2 0 -12 -10 -23 -22z"/>
<path d="M1799 2723 c-13 -16 -12 -17 4 -4 16 13 21 21 13 21 -2 0 -10 -8 -17
-17z"/>
<path d="M1500 2710 c-6 -11 -8 -20 -6 -20 3 0 10 9 16 20 6 11 8 20 6 20 -3
0 -10 -9 -16 -20z"/>
<path d="M1804 2688 l-19 -23 23 19 c21 18 27 26 19 26 -2 0 -12 -10 -23 -22z"/>
<path d="M1769 2683 c-13 -16 -12 -17 4 -4 16 13 21 21 13 21 -2 0 -10 -8 -17
-17z"/>
<path d="M398 2683 c6 -2 18 -2 25 0 6 3 1 5 -13 5 -14 0 -19 -2 -12 -5z"/>
<path d="M680 2656 c0 -2 8 -10 18 -17 15 -13 16 -12 3 4 -13 16 -21 21 -21
13z"/>
<path d="M1456 2635 c-9 -26 -7 -32 5 -12 6 10 9 21 6 23 -2 3 -7 -2 -11 -11z"/>
<path d="M880 2625 c0 -5 5 -17 10 -25 5 -8 10 -10 10 -5 0 6 -5 17 -10 25 -5
8 -10 11 -10 5z"/>
<path d="M389 2609 c14 -5 59 -40 100 -76 42 -37 65 -54 51 -39 -43 49 -140
126 -158 125 -12 0 -9 -3 7 -10z"/>
<path d="M485 2580 c21 -22 41 -40 44 -40 3 0 -13 18 -34 40 -21 22 -41 40
-44 40 -3 0 13 -18 34 -40z"/>
<path d="M1734 2598 l-19 -23 23 19 c21 18 27 26 19 26 -2 0 -12 -10 -23 -22z"/>
<path d="M500 2606 c0 -2 23 -21 50 -41 28 -21 49 -40 46 -43 -3 -3 -1 -11 5
-19 6 -7 8 -13 4 -13 -5 0 0 -9 10 -20 10 -11 15 -20 10 -20 -4 0 -2 -7 5 -15
7 -8 16 -13 20 -10 4 3 13 -1 19 -8 8 -10 7 -14 -4 -14 -8 0 -11 5 -8 10 4 6
1 7 -6 2 -17 -10 -70 42 -66 65 2 10 -8 28 -23 41 l-27 24 21 -25 c12 -14 20
-32 19 -41 -2 -10 25 -44 63 -80 37 -35 56 -52 44 -38 -12 14 -22 28 -22 31 0
10 27 3 46 -12 14 -11 13 -7 -4 14 -37 48 -12 53 31 5 22 -24 35 -35 29 -24
-5 11 -22 31 -36 44 -27 26 -37 52 -11 31 8 -7 15 -9 15 -4 0 5 14 -11 30 -36
16 -25 30 -41 30 -37 0 12 -58 94 -83 118 -12 11 -40 34 -62 51 l-40 30 40
-36 c22 -20 36 -36 31 -36 -5 0 -3 -7 4 -15 7 -8 17 -12 24 -8 7 4 7 2 -1 -7
-10 -10 -22 -4 -61 31 -52 47 -142 113 -142 105z m133 -104 c10 -10 14 -22 10
-27 -5 -4 -3 -5 3 -2 6 4 19 -2 29 -13 10 -11 15 -20 12 -21 -23 -4 -47 -3
-44 3 1 3 -7 15 -17 27 -11 12 -16 21 -11 21 4 0 2 7 -5 15 -18 22 4 19 23 -3z"/>
<path d="M1644 2578 l-19 -23 23 19 c21 18 27 26 19 26 -2 0 -12 -10 -23 -22z"/>
<path d="M1461 2554 c0 -11 3 -14 6 -6 3 7 2 16 -1 19 -3 4 -6 -2 -5 -13z"/>
<path d="M337 2549 c7 -9 11 -18 8 -21 -3 -3 3 -11 12 -19 16 -13 17 -12 4 4
-25 32 3 17 48 -25 25 -24 37 -33 26 -20 -10 13 -20 30 -21 40 -3 20 -33 44
-46 36 -5 -3 -17 0 -26 8 -15 11 -15 11 -5 -3z m58 -29 c10 -11 16 -20 13 -20
-3 0 -13 9 -23 20 -10 11 -16 20 -13 20 3 0 13 -9 23 -20z"/>
<path d="M1695 2551 c-3 -5 -2 -12 3 -15 5 -3 9 1 9 9 0 17 -3 19 -12 6z"/>
<path d="M710 2515 c19 -19 36 -35 39 -35 3 0 -10 16 -29 35 -19 19 -36 35
-39 35 -3 0 10 -16 29 -35z"/>
<path d="M765 2500 c10 -11 20 -20 23 -20 3 0 -3 9 -13 20 -10 11 -20 20 -23
20 -3 0 3 -9 13 -20z"/>
<path d="M776 2435 c16 -22 29 -42 31 -44 2 -2 3 0 3 5 0 5 -14 25 -31 44
l-30 35 27 -40z"/>
<path d="M813 2431 c12 -22 23 -38 25 -36 5 5 -26 63 -37 69 -5 4 0 -12 12
-33z"/>
<path d="M305 2450 c-8 -13 5 -13 25 0 13 8 13 10 -2 10 -9 0 -20 -4 -23 -10z"/>
<path d="M1265 2430 c-3 -5 -1 -10 4 -10 6 0 11 5 11 10 0 6 -2 10 -4 10 -3 0
-8 -4 -11 -10z"/>
<path d="M840 2426 c0 -2 7 -9 15 -16 13 -11 14 -10 9 4 -5 14 -24 23 -24 12z"/>
<path d="M1213 2413 c9 -2 23 -2 30 0 6 3 -1 5 -18 5 -16 0 -22 -2 -12 -5z"/>
<path d="M560 2392 c0 -12 19 -26 26 -19 2 2 -2 10 -11 17 -9 8 -15 8 -15 2z"/>
<path d="M1258 2393 c12 -2 32 -2 45 0 12 2 2 4 -23 4 -25 0 -35 -2 -22 -4z"/>
<path d="M1350 2390 c-11 -7 0 -10 37 -10 29 0 75 -5 103 -11 28 -6 54 -9 56
-6 6 5 -65 21 -141 31 -22 3 -47 1 -55 -4z"/>
<path d="M460 2360 c8 -5 20 -10 25 -10 6 0 3 5 -5 10 -8 5 -19 10 -25 10 -5
0 -3 -5 5 -10z"/>
<path d="M530 2359 c-12 -8 -10 -9 9 -4 15 5 21 3 17 -3 -4 -6 4 -16 16 -22
22 -11 22 -11 3 5 -11 9 -19 19 -17 23 6 11 -12 12 -28 1z"/>
<path d="M305 2350 c-3 -6 1 -7 9 -4 18 7 21 14 7 14 -6 0 -13 -4 -16 -10z"/>
<path d="M988 2353 c7 -3 16 -2 19 1 4 3 -2 6 -13 5 -11 0 -14 -3 -6 -6z"/>
<path d="M484 2342 c-6 -4 8 -16 35 -30 41 -20 43 -20 21 -2 -14 11 -20 20
-15 20 6 0 3 5 -5 10 -18 12 -22 12 -36 2z"/>
<path d="M285 2310 c-26 -28 -15 -31 12 -3 12 13 19 23 14 23 -4 0 -16 -9 -26
-20z"/>
<path d="M430 2320 c-9 -6 -10 -10 -3 -10 6 0 15 5 18 10 8 12 4 12 -15 0z"/>
<path d="M434 2231 c4 -5 -6 -14 -21 -20 -24 -10 -25 -10 -3 -5 14 3 40 8 57
11 40 6 34 23 -8 23 -17 0 -28 -4 -25 -9z"/>
<path d="M310 2220 c-11 -8 -7 -9 15 -4 37 8 45 14 19 14 -10 0 -26 -5 -34
-10z"/>
<path d="M378 2223 c6 -2 18 -2 25 0 6 3 1 5 -13 5 -14 0 -19 -2 -12 -5z"/>
<path d="M1632 2200 c0 -19 2 -27 5 -17 2 9 2 25 0 35 -3 9 -5 1 -5 -18z"/>
<path d="M425 2190 c-52 -24 -44 -24 30 0 34 11 49 19 35 19 -14 0 -43 -9 -65
-19z"/>
<path d="M465 2180 c-7 -12 2 -12 30 0 19 8 19 9 -2 9 -12 1 -25 -3 -28 -9z"/>
<path d="M420 2160 c-8 -5 -10 -10 -5 -10 6 0 17 5 25 10 8 5 11 10 5 10 -5 0
-17 -5 -25 -10z"/>
<path d="M701 2154 c0 -11 3 -14 6 -6 3 7 2 16 -1 19 -3 4 -6 -2 -5 -13z"/>
<path d="M450 2150 c-8 -5 -10 -10 -5 -10 6 0 17 5 25 10 8 5 11 10 5 10 -5 0
-17 -5 -25 -10z"/>
<path d="M652 2110 c0 -14 2 -19 5 -12 2 6 2 18 0 25 -3 6 -5 1 -5 -13z"/>
<path d="M711 2104 c0 -11 3 -14 6 -6 3 7 2 16 -1 19 -3 4 -6 -2 -5 -13z"/>
<path d="M1602 2090 c0 -14 2 -19 5 -12 2 6 2 18 0 25 -3 6 -5 1 -5 -13z"/>
<path d="M662 2060 c0 -14 2 -19 5 -12 2 6 2 18 0 25 -3 6 -5 1 -5 -13z"/>
<path d="M681 2044 c0 -11 3 -14 6 -6 3 7 2 16 -1 19 -3 4 -6 -2 -5 -13z"/>
<path d="M721 2024 c0 -11 3 -14 6 -6 3 7 2 16 -1 19 -3 4 -6 -2 -5 -13z"/>
<path d="M672 1995 c0 -16 2 -22 5 -12 2 9 2 23 0 30 -3 6 -5 -1 -5 -18z"/>
<path d="M1822 2534 c-12 -8 -19 -20 -16 -26 5 -8 1 -9 -10 -5 -11 5 -15 3
-10 -5 5 -8 2 -9 -10 -5 -11 5 -15 3 -10 -5 5 -8 1 -9 -12 -4 -14 5 -16 4 -8
-4 9 -9 17 -9 32 -1 26 14 35 14 27 1 -10 -16 11 -11 26 6 10 12 22 64 15 64
-1 0 -12 -7 -24 -16z m14 -21 c-2 -9 -9 -19 -17 -21 -11 -3 -11 -1 1 7 11 8
12 11 2 11 -7 0 -10 5 -7 10 10 16 23 12 21 -7z"/>
<path d="M1755 2460 c-11 -5 -14 -9 -7 -9 7 -1 10 -5 7 -11 -8 -13 -5 -13 34
1 24 9 29 14 19 20 -16 10 -27 10 -53 -1z"/>
<path d="M2501 3202 c-5 -10 -15 -50 -22 -88 -6 -38 -17 -73 -23 -77 -6 -5 -2
-6 10 -2 12 3 34 0 50 -7 16 -6 36 -12 44 -13 8 -1 25 -5 38 -9 19 -6 21 -10
11 -22 -8 -10 -15 -11 -24 -4 -7 6 -46 17 -86 25 -41 7 -81 16 -89 19 -26 10
-140 14 -135 6 3 -5 1 -11 -3 -14 -13 -8 -53 24 -46 36 4 6 1 9 -7 6 -8 -3
-22 -43 -35 -99 -38 -171 -71 -264 -123 -351 -104 -173 -178 -358 -161 -403 8
-21 58 -45 96 -45 8 0 7 -20 -2 -67 -24 -125 -21 -140 40 -198 63 -60 158
-109 236 -123 73 -13 229 3 292 30 71 30 100 70 136 184 81 257 139 517 157
704 3 36 13 98 22 138 11 52 12 77 5 84 -8 8 -9 5 -5 -10 3 -15 -3 -29 -23
-47 -18 -16 -22 -23 -11 -19 17 6 18 2 12 -57 -3 -35 -11 -86 -16 -112 -5 -26
-9 -62 -10 -80 0 -28 -2 -29 -10 -12 -6 14 -7 8 -3 -22 4 -28 2 -43 -5 -43
-17 0 -51 38 -52 58 0 13 -2 14 -6 2 -3 -8 -13 -21 -22 -29 -14 -12 -14 -12 5
-7 14 4 27 -1 44 -19 l23 -25 -33 -34 -33 -34 -26 31 c-14 17 -26 33 -26 36
-1 17 -26 48 -47 59 -20 11 -23 20 -21 55 l2 42 -9 -45 c-7 -33 -7 -46 2 -49
7 -2 23 -15 36 -28 l25 -25 -39 -39 -38 -39 -30 37 c-17 21 -30 41 -28 45 1 4
-4 8 -11 8 -7 0 -25 12 -40 26 -26 24 -28 31 -23 78 l5 51 -12 -53 c-10 -43
-18 -56 -46 -73 -27 -16 -36 -18 -42 -7 -5 7 -7 18 -4 25 6 16 -24 101 -44
126 -9 11 -28 31 -43 45 -16 14 -28 32 -28 41 0 9 -3 12 -8 6 -7 -10 -77 -45
-89 -45 -10 0 6 87 27 147 12 32 23 78 25 102 2 23 6 45 8 48 3 2 17 -3 32
-13 20 -13 28 -15 34 -5 6 9 38 5 137 -18 71 -16 144 -32 162 -36 32 -7 42
-20 21 -27 -7 -2 -1 -16 13 -33 14 -17 32 -43 41 -60 9 -16 16 -24 17 -16 0
17 -39 81 -49 81 -5 0 -6 11 -4 24 3 14 10 23 17 21 6 -2 30 -9 53 -15 45 -11
60 -36 33 -57 -13 -11 -12 -12 9 -10 19 2 29 -7 47 -42 17 -31 24 -38 24 -23
0 11 -12 35 -26 52 -15 17 -24 34 -20 37 3 3 1 12 -6 20 -10 12 -7 13 18 8 16
-4 35 -8 42 -11 6 -2 12 -1 12 1 0 7 -43 28 -65 31 -48 8 -59 11 -63 22 -2 7
2 12 9 12 7 0 9 3 6 6 -4 4 -13 2 -21 -5 -18 -15 -69 -3 -62 14 2 7 0 17 -5
22 -6 6 -4 23 6 46 8 20 15 59 15 87 0 45 -2 50 -22 50 -21 -1 -21 -2 -5 -11
19 -11 22 -46 7 -101 -11 -37 -12 -37 -56 -35 l-46 2 7 35 c3 19 9 54 12 76 5
36 8 41 27 37 11 -2 6 3 -13 11 -41 20 -38 20 -50 -2z m29 -24 c0 -13 -6 -45
-14 -73 l-13 -50 3 70 c2 81 1 75 14 75 6 0 10 -10 10 -22z m-33 -50 c-3 -8
-6 -5 -6 6 -1 11 2 17 5 13 3 -3 4 -12 1 -19z m-235 -405 c15 -16 40 -54 57
-87 25 -46 31 -71 31 -117 0 -47 -4 -61 -17 -66 -9 -4 -19 -1 -21 5 -2 7 -8
12 -13 12 -6 0 -8 -4 -4 -9 3 -5 -3 -12 -12 -14 -11 -3 -8 -5 10 -6 35 -1 34
-18 -2 -61 l-29 -35 -15 35 c-11 25 -12 39 -5 48 8 9 6 12 -4 12 -8 0 -23 9
-33 20 -10 11 -15 20 -10 20 4 0 2 6 -4 13 -6 8 -8 16 -5 19 3 3 0 9 -6 13 -6
3 -9 1 -8 -6 2 -6 -2 -13 -9 -16 -8 -3 -11 3 -8 16 3 17 1 19 -14 9 -17 -10
-14 -15 30 -50 28 -21 47 -43 44 -48 -3 -5 -1 -11 5 -15 5 -3 10 -16 10 -29 0
-12 6 -31 14 -41 16 -22 9 -33 -73 -112 -71 -70 -95 -71 -80 -5 5 23 4 41 -3
49 -6 7 -7 13 -3 13 4 0 2 7 -5 15 -26 32 9 13 38 -20 25 -28 30 -30 29 -14
-2 24 -41 62 -67 64 -10 1 -17 -2 -15 -6 3 -4 -2 -12 -9 -19 -11 -8 -21 -9
-38 0 -20 9 -21 9 -4 -2 55 -38 66 -50 62 -71 -3 -12 -5 -24 -5 -26 -1 -3 -8
4 -16 15 -15 19 -15 19 -8 -1 l6 -20 -24 20 -24 20 19 -22 c10 -12 23 -21 29
-20 6 1 13 -6 15 -15 3 -15 -4 -18 -35 -18 -63 0 -83 9 -84 39 -1 18 -3 20 -6
8 -7 -25 -28 -15 -28 14 0 25 24 104 40 129 5 8 10 17 10 20 1 8 35 81 53 115
9 17 23 45 32 63 9 18 19 30 23 27 4 -3 5 -2 2 1 -5 8 22 63 41 82 8 7 14 17
14 22 0 10 79 60 96 60 5 0 22 -12 36 -27z m256 -236 c34 -35 62 -68 62 -74 0
-6 -10 -18 -22 -26 -13 -9 -18 -16 -12 -16 6 -1 17 6 24 14 18 22 24 19 55
-20 23 -31 25 -38 13 -53 -12 -15 -11 -16 4 -4 15 12 20 9 43 -28 14 -22 23
-45 20 -50 -4 -6 -2 -10 4 -10 29 0 18 -93 -14 -120 -11 -9 -17 -4 -31 27 -10
21 -30 54 -46 74 -33 43 -33 46 -10 73 17 21 17 21 -4 3 -21 -18 -22 -17 -53
22 -18 23 -30 45 -26 51 3 5 0 7 -9 4 -8 -3 -19 2 -25 13 -5 11 -34 43 -65 73
-30 29 -53 58 -49 63 5 9 64 47 73 47 3 0 33 -28 68 -63z m-112 -38 c27 -28
28 -31 12 -43 -10 -7 -18 -17 -18 -21 0 -4 7 -2 15 5 22 19 38 8 100 -70 57
-70 58 -71 39 -93 -19 -22 -19 -22 2 -4 21 17 22 17 48 -24 l28 -41 -24 -26
c-18 -22 -19 -23 -2 -9 11 9 25 17 31 17 10 0 33 -42 33 -61 0 -11 -50 -69
-60 -69 -3 0 -14 19 -25 43 -10 23 -31 62 -47 86 -24 36 -27 46 -16 60 11 14
11 14 -2 4 -13 -10 -22 -5 -50 30 -18 23 -50 56 -70 72 -21 17 -36 33 -33 38
2 4 -5 7 -16 7 -31 0 -34 17 -12 63 12 24 21 49 21 55 0 20 15 14 46 -19z
m291 -75 c-36 -35 -39 -35 -52 -18 -39 53 -40 62 -10 94 l29 30 36 -35 35 -35
-38 -36z m97 74 c-4 -7 -11 -28 -14 -48 l-7 -35 -13 27 c-12 25 -11 30 5 48
20 22 41 28 29 8z m-40 -74 c12 -31 6 -72 -16 -100 -12 -16 -15 -23 -8 -16 23
20 30 14 18 -19 l-10 -30 -35 62 -34 62 27 28 c31 33 49 37 58 13z m-338 -110
c-3 -7 0 -11 7 -9 15 5 69 -65 63 -81 -3 -8 0 -11 7 -8 8 3 23 -14 37 -38 14
-25 19 -43 13 -45 -6 -2 -23 -15 -38 -27 l-27 -24 -64 85 c-36 46 -62 88 -59
94 4 5 3 8 -2 7 -5 -2 -26 11 -47 29 -27 22 -37 37 -32 48 3 9 11 13 17 9 7
-4 10 -3 7 2 -3 5 -2 19 3 32 9 23 9 23 64 -19 32 -24 54 -48 51 -55z m-296
41 c13 -14 21 -25 18 -25 -2 0 -15 11 -28 25 -13 14 -21 25 -18 25 2 0 15 -11
28 -25z m-52 -8 c-1 -2 4 -12 12 -23 14 -19 14 -19 -7 0 -13 10 -20 23 -17 28
3 5 8 7 11 4 2 -2 3 -6 1 -9z m237 -67 c16 -16 27 -31 24 -33 -61 -48 -100
-56 -79 -17 5 10 10 22 10 27 -1 4 -6 -2 -13 -15 -11 -19 -15 -21 -31 -9 -17
12 -17 15 9 45 33 40 44 40 80 2z m-78 -73 c12 -11 20 -24 16 -30 -3 -6 -1 -7
4 -4 16 10 63 -58 63 -90 0 -15 -12 -72 -27 -127 -26 -91 -45 -123 -62 -100
-3 5 -10 9 -16 10 -19 1 -85 34 -85 43 0 26 34 170 46 193 7 14 26 36 41 49
26 20 26 21 5 16 -14 -3 -26 1 -33 11 -8 14 -9 12 -4 -8 l6 -25 -14 23 c-7 12
-16 19 -20 16 -4 -4 -7 -2 -7 4 0 17 42 52 54 45 6 -3 21 -15 33 -26z m140 3
c32 -40 41 -65 21 -57 -9 3 -19 0 -22 -8 -3 -8 -15 -19 -27 -25 -23 -13 -23
-13 -5 45 5 15 4 15 -5 -2 -15 -29 -23 -29 -43 1 -15 24 -14 26 15 50 17 14
34 26 37 25 4 0 17 -13 29 -29z m-233 -44 l30 -23 -17 -36 c-9 -19 -17 -42
-17 -50 0 -7 -5 -29 -12 -47 -10 -30 -12 -32 -19 -14 -5 13 -8 7 -8 -23 -1
-24 -5 -43 -11 -43 -5 0 -26 16 -46 37 -36 36 -36 37 -32 104 7 86 26 119 71
119 19 0 44 -10 61 -24z m326 -98 c0 -32 -33 -167 -40 -163 -4 2 -5 -6 -3 -18
6 -37 -11 -50 -66 -53 -28 -1 -48 2 -46 6 3 5 -4 6 -15 3 -17 -5 -19 -1 -15
29 5 41 51 213 60 228 4 7 21 20 39 31 l31 19 27 -32 c15 -18 28 -41 28 -50z
m250 58 c0 -3 -4 -8 -10 -11 -5 -3 -10 -1 -10 4 0 6 5 11 10 11 6 0 10 -2 10
-4z m-132 -31 c15 -32 16 -109 2 -100 -12 7 -24 -40 -14 -56 4 -7 3 -10 -3 -6
-5 4 -16 -12 -23 -33 -7 -22 -16 -40 -19 -41 -3 0 -14 -2 -23 -4 -24 -4 -23
10 3 26 18 12 20 20 13 53 l-7 39 -18 -57 c-19 -62 -36 -90 -25 -41 5 22 4 26
-4 15 -5 -8 -10 -23 -10 -32 0 -10 -7 -18 -16 -18 -11 0 -14 5 -9 18 4 9 18
60 31 112 19 76 30 101 54 123 38 34 54 34 68 2z m110 -25 c5 -32 -23 -101
-53 -130 -55 -55 -65 -64 -65 -59 2 35 44 156 65 183 30 40 48 42 53 6z"/>
<path d="M2280 2645 c13 -14 26 -25 28 -25 3 0 -5 11 -18 25 -13 14 -26 25
-28 25 -3 0 5 -11 18 -25z"/>
<path d="M2143 2638 c-20 -26 -26 -41 -15 -34 12 7 36 46 29 46 -3 0 -9 -6
-14 -12z"/>
<path d="M2207 2633 c-4 -3 12 -23 34 -44 23 -21 38 -42 35 -48 -10 -16 8 -20
22 -5 8 9 9 14 2 14 -6 0 -9 4 -5 9 3 5 1 12 -5 16 -6 4 -8 10 -5 14 2 5 -7
19 -21 32 -14 13 -24 20 -22 14 3 -10 -4 -15 -23 -15 -5 0 -7 5 -4 10 7 11 2
13 -8 3z m68 -41 c-3 -3 1 -12 7 -21 7 -9 0 -5 -14 8 -28 24 -29 52 -2 30 8
-6 12 -14 9 -17z"/>
<path d="M2189 2558 c7 -10 10 -18 6 -18 -4 0 -2 -6 4 -13 6 -8 9 -16 6 -19
-3 -2 7 -15 23 -29 l27 -24 -24 28 c-14 15 -21 27 -17 27 5 0 3 6 -3 13 -6 8
-9 16 -6 19 3 3 -3 11 -12 19 -16 13 -17 12 -4 -3z"/>
<path d="M2225 2544 c2 -11 4 -21 5 -24 1 -3 1 -9 0 -15 -1 -5 2 -7 6 -3 4 4
14 2 22 -4 15 -13 49 -21 37 -10 -4 4 -12 7 -18 7 -7 1 -11 6 -10 12 1 6 -9
20 -22 33 -21 20 -23 20 -20 4z m26 -21 c13 -16 12 -17 -3 -4 -10 7 -18 15
-18 17 0 8 8 3 21 -13z"/>
<path d="M2074 2525 c-4 -11 -21 -42 -36 -69 -16 -27 -27 -51 -24 -53 2 -3 14
15 26 39 12 23 29 51 37 60 8 9 13 23 10 30 -3 9 -7 7 -13 -7z"/>
<path d="M2320 2488 c0 -9 5 -20 10 -23 13 -8 13 5 0 25 -8 13 -10 13 -10 -2z"/>
<path d="M2130 2405 c14 -17 13 -18 -3 -12 -11 4 -16 3 -12 -3 9 -14 -2 -12
-33 7 -17 10 -13 4 11 -17 21 -18 36 -35 32 -38 -3 -3 2 -13 10 -22 9 -10 18
-28 20 -40 5 -26 25 -52 25 -33 0 7 -5 24 -10 39 -7 18 -7 30 0 39 7 8 4 17
-12 31 -22 19 -23 19 -8 -1 15 -20 14 -20 -8 -1 -23 20 -30 32 -12 21 6 -3 10
-2 10 4 0 6 7 7 17 4 23 -9 8 14 -20 29 -21 11 -21 10 -7 -7z"/>
<path d="M2178 2399 c6 -9 10 -18 7 -21 -3 -3 1 -11 9 -17 27 -22 26 6 -2 30
-14 13 -21 17 -14 8z"/>
<path d="M1972 2330 c-8 -13 -8 -20 -2 -20 6 0 13 7 17 15 9 24 -1 27 -15 5z"/>
<path d="M1951 2254 c0 -11 3 -14 6 -6 3 7 2 16 -1 19 -3 4 -6 -2 -5 -13z"/>
<path d="M1970 2226 c0 -2 8 -10 18 -17 15 -13 16 -12 3 4 -13 16 -21 21 -21
13z"/>
<path d="M2687 2131 c-4 -17 -3 -21 5 -13 5 5 8 16 6 23 -3 8 -7 3 -11 -10z"/>
<path d="M2717 2306 c-4 -10 -5 -21 -2 -24 9 -9 17 6 13 25 -3 17 -4 17 -11
-1z"/>
<path d="M2446 2145 c-11 -8 -15 -15 -9 -15 6 0 16 7 23 15 16 19 11 19 -14 0z"/>
<path d="M2281 1984 c0 -11 3 -14 6 -6 3 7 2 16 -1 19 -3 4 -6 -2 -5 -13z"/>
<path d="M2251 1964 c0 -11 3 -14 6 -6 3 7 2 16 -1 19 -3 4 -6 -2 -5 -13z"/>
<path d="M2205 1890 c-4 -17 -5 -34 -2 -36 2 -3 7 10 11 27 3 18 4 34 2 36 -2
3 -7 -10 -11 -27z"/>
<path d="M2161 1894 c0 -11 3 -14 6 -6 3 7 2 16 -1 19 -3 4 -6 -2 -5 -13z"/>
<path d="M2181 1884 c0 -11 3 -14 6 -6 3 7 2 16 -1 19 -3 4 -6 -2 -5 -13z"/>
<path d="M2017 2046 c-9 -55 1 -90 34 -122 l29 -28 0 40 c-1 35 -2 37 -14 21
-8 -11 -17 -14 -20 -8 -4 5 -2 12 4 16 5 3 10 25 9 48 l-1 42 -8 -33 c-11 -46
-24 -55 -17 -12 3 19 2 44 -2 55 -6 15 -9 12 -14 -19z"/>
<path d="M2082 2000 c0 -14 2 -19 5 -12 2 6 2 18 0 25 -3 6 -5 1 -5 -13z"/>
<path d="M2381 1974 c0 -11 3 -14 6 -6 3 7 2 16 -1 19 -3 4 -6 -2 -5 -13z"/>
<path d="M2401 1964 c0 -11 3 -14 6 -6 3 7 2 16 -1 19 -3 4 -6 -2 -5 -13z"/>
<path d="M2351 1954 c0 -11 3 -14 6 -6 3 7 2 16 -1 19 -3 4 -6 -2 -5 -13z"/>
<path d="M2386 1914 c-4 -14 -5 -28 -3 -31 3 -2 8 8 11 23 4 14 5 28 3 31 -3
2 -8 -8 -11 -23z"/>
<path d="M2402 1894 c-10 -36 -15 -45 -22 -34 -9 13 -10 13 -10 0 0 -8 4 -21
8 -27 9 -14 47 78 40 97 -2 6 -9 -10 -16 -36z"/>
<path d="M2341 1914 c0 -11 3 -14 6 -6 3 7 2 16 -1 19 -3 4 -6 -2 -5 -13z"/>
<path d="M2331 1874 c0 -11 3 -14 6 -6 3 7 2 16 -1 19 -3 4 -6 -2 -5 -13z"/>
<path d="M2345 1850 c-6 -29 -9 -32 -15 -16 -6 19 -7 19 -12 -1 -6 -24 18 -26
33 -2 7 12 9 12 9 0 0 -8 2 -12 5 -10 2 3 1 18 -4 35 l-8 29 -8 -35z"/>
<path d="M2476 1894 c-4 -14 -5 -28 -3 -31 3 -2 8 8 11 23 4 14 5 28 3 31 -3
2 -8 -8 -11 -23z"/>
<path d="M3217 3169 c-9 -12 -46 -113 -83 -225 l-68 -203 26 -38 c37 -54 40
-72 24 -133 -17 -64 -14 -79 5 -23 20 61 17 114 -8 150 -13 17 -23 41 -23 53
0 29 128 418 141 425 12 8 13 11 -22 -106 -78 -258 -85 -309 -43 -292 14 5
124 331 124 369 1 18 1 18 16 -1 15 -19 16 -19 12 -1 -4 23 -26 33 -32 14 -79
-252 -120 -368 -131 -368 -16 0 -13 13 49 224 31 101 44 162 38 168 -6 6 -15
2 -25 -13z"/>
<path d="M3770 3178 c-19 -5 -39 -14 -45 -20 -7 -8 -6 -8 4 -3 10 6 12 4 7 -4
-5 -7 -14 -10 -22 -7 -21 8 -101 -89 -124 -152 -12 -31 -24 -84 -26 -117 l-3
-60 9 60 c10 73 33 135 25 70 -5 -38 -5 -39 6 -10 26 74 43 105 60 110 25 8
24 25 -1 20 -21 -4 -27 9 -10 20 6 3 10 1 10 -5 0 -6 5 -8 11 -4 6 3 16 0 21
-7 7 -10 8 -8 5 9 -3 12 -2 20 3 17 4 -3 10 5 13 16 3 12 10 18 16 14 6 -3 11
-1 11 5 0 7 6 10 13 7 6 -2 24 2 40 10 15 7 27 9 27 4 0 -5 6 -9 13 -8 39 1
57 -5 57 -19 0 -8 4 -13 8 -10 13 8 30 -32 37 -86 4 -30 1 -65 -9 -99 -20 -65
-20 -72 1 -35 17 33 34 188 19 179 -5 -4 -7 3 -4 15 4 14 2 20 -5 15 -7 -4 -8
0 -4 11 4 10 3 15 -3 11 -5 -3 -14 3 -19 14 -6 10 -29 26 -51 35 -45 18 -42
18 -90 4z m-60 -41 c0 -2 -12 -14 -27 -28 l-28 -24 24 28 c23 25 31 32 31 24z
m-90 -123 c-10 -21 -19 -33 -20 -26 0 16 30 75 36 70 2 -3 -5 -22 -16 -44z"/>
<path d="M4972 3176 c77 -18 145 -53 262 -136 104 -73 131 -81 196 -60 16 5 3
6 -35 3 l-60 -5 -100 72 c-119 87 -203 128 -270 135 l-50 5 57 -14z"/>
<path d="M4844 3137 c-23 -24 -45 -54 -49 -68 -7 -29 9 -79 26 -79 8 0 7 6 -2
18 -13 15 -12 16 3 3 10 -7 15 -17 12 -22 -9 -15 35 -26 147 -37 122 -12 212
-43 242 -84 20 -26 20 -29 3 -106 -20 -93 -12 -128 46 -209 19 -26 37 -55 41
-65 6 -16 82 -36 94 -24 4 3 12 1 19 -5 11 -9 48 19 166 124 176 155 202 181
196 197 -2 7 -62 -41 -133 -105 -181 -164 -195 -176 -170 -146 11 13 20 26 20
30 -1 12 52 50 60 43 5 -4 5 -2 2 4 -7 12 26 48 35 39 3 -3 23 14 44 37 21 24
41 42 45 41 3 -1 19 11 35 28 l29 30 -20 36 c-11 20 -27 39 -35 41 -10 3 -9 0
3 -10 17 -13 10 -22 -109 -131 -124 -114 -128 -117 -147 -100 -11 10 -6 -2 11
-26 28 -38 35 -70 13 -56 -5 2 -8 -3 -8 -13 0 -43 -4 -43 -25 -2 -13 25 -38
54 -55 66 l-33 22 165 148 c90 81 162 151 159 155 -2 4 8 1 24 -6 35 -18 68
-53 80 -85 l9 -24 25 25 c29 29 33 97 8 110 -92 46 -209 80 -269 78 -14 -1 8
-7 49 -14 136 -23 221 -77 219 -139 l-1 -31 -9 32 c-11 39 -71 83 -148 108
-67 22 -178 16 -243 -13 -100 -44 -147 -114 -148 -217 0 -72 18 -105 85 -160
48 -40 71 -78 58 -98 -4 -6 -10 -1 -15 12 -4 12 -12 20 -18 16 -5 -3 -7 0 -4
8 3 9 -8 25 -31 43 -20 15 -48 48 -63 73 -24 41 -27 56 -27 143 0 82 -3 101
-21 125 -33 44 -94 72 -237 108 -174 44 -175 44 -182 63 -7 20 21 60 65 90 18
12 27 22 20 22 -7 0 -32 -19 -56 -43z m139 -143 c56 -15 103 -28 105 -29 5 -4
-167 5 -205 11 -42 6 -44 33 -5 43 2 1 49 -11 105 -25z m656 -35 c21 -6 48
-20 62 -31 23 -19 23 -19 1 -8 -16 8 -27 8 -36 1 -14 -12 -86 6 -86 21 0 5 5
6 10 3 6 -3 10 -1 10 5 0 7 -17 9 -52 5 -39 -5 -49 -4 -38 4 20 14 83 14 129
0z m-6 -58 c7 -7 -11 -30 -54 -69 -197 -180 -245 -222 -251 -222 -3 0 -16 16
-28 36 -29 46 -25 135 8 182 26 36 108 79 172 90 49 9 137 -1 153 -17z m85
-121 c-27 -39 -228 -211 -238 -205 -6 4 -10 10 -8 14 9 20 240 221 249 215 7
-4 6 -12 -3 -24z m-447 -156 c6 -7 8 -17 5 -22 -3 -6 2 -16 12 -23 15 -13 16
-12 3 4 -23 29 -7 19 30 -19 l34 -37 -30 19 c-27 17 -28 17 -16 1 7 -9 9 -17
4 -17 -5 0 -25 21 -43 47 -28 39 -35 57 -37 107 l-3 61 15 -54 c9 -30 20 -60
26 -67z m85 -115 c3 -6 0 -15 -7 -20 -22 -14 -29 -11 -29 11 0 21 24 27 36 9z
m34 -29 c0 -5 -8 -10 -17 -10 -15 0 -16 2 -3 10 19 12 20 12 20 0z"/>
<path d="M3362 3137 c-5 -6 -30 -82 -56 -167 -57 -189 -66 -212 -80 -207 -12
4 -12 14 -2 62 4 18 0 13 -10 -13 -12 -33 -13 -47 -5 -55 31 -31 62 36 128
270 28 102 37 119 46 86 4 -14 5 -13 6 4 1 26 -13 37 -27 20z"/>
<path d="M4988 3140 c49 -11 49 -17 2 -30 -48 -13 -80 -30 -80 -44 0 -5 8 -2
18 7 23 21 73 30 92 17 13 -9 13 -11 0 -20 -35 -23 -84 -30 -107 -15 -33 22
-29 50 10 69 20 10 25 16 14 16 -24 0 -69 -46 -65 -68 5 -26 52 -44 95 -36 39
7 83 43 83 68 0 21 -39 46 -70 45 -21 -1 -20 -2 8 -9z"/>
<path d="M3420 3126 c0 -2 7 -7 16 -10 8 -3 12 -2 9 4 -6 10 -25 14 -25 6z"/>
<path d="M3301 3104 c0 -11 3 -14 6 -6 3 7 2 16 -1 19 -3 4 -6 -2 -5 -13z"/>
<path d="M3770 3111 c0 -7 -4 -9 -10 -6 -5 3 -10 -2 -10 -12 0 -14 -2 -15 -9
-4 -5 7 -14 10 -20 6 -19 -11 -7 -29 21 -30 21 -2 27 4 31 24 3 14 3 28 1 30
-2 2 -4 -1 -4 -8z"/>
<path d="M3366 2948 c-58 -196 -63 -211 -75 -203 -6 3 -4 22 5 47 22 62 16 70
-8 10 -14 -37 -17 -57 -10 -64 25 -25 45 15 103 214 23 76 39 142 37 148 -2 6
-25 -63 -52 -152z"/>
<path d="M3366 3064 c-4 -14 -5 -28 -3 -31 3 -2 8 8 11 23 4 14 5 28 3 31 -3
2 -8 -8 -11 -23z"/>
<path d="M3781 3073 c-1 -6 -4 -20 -7 -30 -5 -15 -4 -15 5 -3 6 9 11 10 11 3
0 -6 3 -20 6 -30 4 -13 3 -14 -3 -5 -7 9 -12 7 -21 -12 -9 -20 -8 -24 4 -22 9
1 20 9 25 17 7 12 9 11 9 -2 0 -21 -20 -37 -43 -34 -9 2 -15 -1 -11 -6 3 -5
10 -7 15 -4 15 10 10 -7 -8 -29 -15 -17 -15 -19 -1 -8 9 7 19 9 22 4 4 -7 1
-42 -4 -49 -2 -2 -3 -8 -4 -14 0 -5 -12 -19 -26 -30 -14 -11 -17 -17 -8 -13
14 5 16 1 13 -16 -4 -21 -4 -21 23 -4 20 13 24 14 15 2 -7 -8 -10 -18 -6 -21
9 -10 24 -9 21 1 -2 4 11 21 28 37 16 17 23 25 15 19 -9 -6 -23 -15 -31 -19
-12 -7 -13 -6 -3 7 7 8 11 17 8 20 -3 3 3 11 12 19 17 13 17 13 3 -6 -11 -15
-7 -14 13 4 28 25 38 43 12 21 -12 -10 -15 -10 -15 1 0 7 -15 -1 -33 -19 -18
-18 -37 -32 -42 -32 -13 0 66 65 80 65 5 1 9 7 7 14 -1 7 2 19 9 27 9 10 6 12
-11 9 -17 -3 -21 0 -16 13 5 15 4 15 -6 2 -7 -8 -20 -21 -29 -27 -13 -10 -16
-10 -16 2 0 8 4 12 8 9 4 -2 11 1 15 7 5 8 3 9 -6 4 -8 -5 -11 -3 -8 6 3 8 10
14 16 14 5 0 14 3 18 8 4 4 2 7 -4 7 -6 0 -9 7 -5 17 5 12 3 14 -7 8 -10 -6
-12 -3 -8 13 4 12 2 22 -3 22 -5 0 -14 10 -19 23 -5 12 -9 17 -9 10z m75 -164
c0 -14 -4 -15 -18 -8 -20 11 -17 26 4 26 8 0 14 -8 14 -18z m-50 -24 c-1 -8
-8 -21 -16 -28 -10 -10 -11 -9 -4 3 5 8 9 18 10 23 3 14 4 17 8 17 2 0 3 -7 2
-15z m-31 -74 c3 -5 2 -12 -3 -15 -5 -3 -9 1 -9 9 0 17 3 19 12 6z"/>
<path d="M2387 3049 c7 -7 15 -10 18 -7 3 3 -2 9 -12 12 -14 6 -15 5 -6 -5z"/>
<path d="M4401 3024 c-45 -40 -93 -111 -112 -168 -11 -30 -24 -43 -61 -62 -26
-13 -50 -24 -54 -24 -4 0 18 27 49 59 55 57 68 81 47 81 -5 0 -10 -5 -10 -11
0 -5 -5 -7 -12 -3 -7 4 -8 3 -4 -4 4 -7 -7 -30 -25 -52 -19 -24 -35 -36 -39
-30 -4 7 -11 6 -20 -5 -11 -13 -10 -14 6 -9 19 7 19 7 0 -14 -11 -12 -24 -22
-30 -22 -6 0 -33 -18 -61 -40 -55 -44 -73 -45 -32 -2 15 16 35 44 45 63 10 19
29 51 41 72 47 77 12 33 -54 -68 -90 -138 -108 -140 -40 -5 15 29 22 49 17 46
-14 -8 -80 -146 -86 -178 -2 -15 -7 -32 -11 -38 -8 -13 8 -13 21 0 7 7 22 5
48 -5 21 -9 35 -11 31 -6 -9 15 -3 14 55 -9 58 -23 92 -26 41 -4 -39 18 -38
20 15 33 33 9 28 9 -28 4 -109 -9 -162 17 -61 30 33 4 40 2 36 -9 -3 -9 0 -13
8 -10 8 2 37 7 64 10 37 4 46 3 35 -5 -12 -9 -11 -10 5 -4 11 4 47 13 80 20
l60 13 -110 3 c-100 2 -104 3 -43 8 36 3 70 10 75 15 4 5 -3 6 -17 2 -19 -5
-17 -2 10 14 l35 20 -30 -6 c-16 -3 -46 -10 -65 -16 -123 -35 -178 -45 -173
-31 7 18 83 62 129 75 21 5 53 20 73 33 30 18 60 24 169 33 115 9 143 15 199
42 47 22 63 34 56 41 -6 6 -19 9 -29 6 -15 -4 -13 -5 6 -6 20 -1 11 -8 -39
-32 -56 -27 -78 -32 -165 -35 l-101 -4 97 27 c53 16 105 35 115 44 25 23 123
80 153 90 l25 7 -27 1 c-15 1 -29 -3 -33 -9 -3 -5 -11 -8 -18 -6 -7 1 -8 1 -3
-2 18 -10 -227 -124 -262 -122 -4 1 19 14 51 31 31 16 57 31 57 33 0 14 -88
-28 -139 -66 -13 -10 -33 -18 -44 -18 -18 0 -13 8 26 48 26 27 45 51 42 54 -3
3 8 20 25 37 17 17 27 31 21 31 -5 0 -35 -30 -65 -66 -60 -70 -73 -74 -30 -9
36 54 85 105 101 105 7 0 13 5 13 10 0 16 -8 12 -49 -26z"/>
<path d="M3281 3034 c0 -11 3 -14 6 -6 3 7 2 16 -1 19 -3 4 -6 -2 -5 -13z"/>
<path d="M4546 3030 c-27 -11 -54 -25 -60 -31 -8 -9 -6 -9 9 -1 11 5 45 17 75
26 47 13 52 13 36 1 -11 -8 -24 -15 -30 -15 -5 0 -7 -3 -4 -6 6 -6 88 33 88
41 0 12 -69 2 -114 -15z"/>
<path d="M3957 2978 c-5 -51 -45 -159 -46 -128 -1 9 -9 2 -19 -15 -19 -31 -41
-53 -54 -54 -5 -1 -14 -1 -20 -1 -10 0 -10 -2 0 -9 10 -6 4 -14 -24 -30 -20
-12 -42 -20 -48 -18 -6 3 2 10 18 16 21 8 26 15 18 23 -7 7 -19 4 -41 -11 -17
-13 -31 -27 -31 -32 0 -5 -4 -9 -10 -9 -13 0 -59 48 -53 54 3 3 -2 8 -11 12
-9 3 -13 10 -10 15 3 5 -1 9 -9 9 -16 0 -26 27 -28 75 -1 18 -5 8 -9 -25 -5
-38 -3 -71 7 -108 13 -48 13 -58 -1 -96 -24 -62 -104 -198 -236 -401 -132
-204 -164 -255 -157 -255 3 0 20 23 38 51 18 29 35 46 37 40 2 -7 27 22 54 64
28 42 52 74 55 71 2 -2 -25 -57 -62 -123 -69 -123 -78 -165 -42 -187 41 -26
76 31 170 279 36 94 77 197 91 229 14 33 25 61 22 63 -5 5 -61 -128 -126 -297
-92 -239 -115 -279 -156 -263 -29 11 -8 69 84 231 127 223 227 417 212 407 -9
-6 -12 -4 -7 6 3 8 16 38 28 67 21 48 22 56 10 100 -19 67 -23 91 -10 60 7
-19 15 -25 27 -21 15 4 15 3 2 -6 -13 -10 -11 -15 13 -36 33 -30 92 -33 138
-9 17 8 33 13 36 10 3 -2 -30 -22 -73 -43 -104 -51 -104 -50 -259 -495 -35
-103 -77 -213 -91 -245 -15 -32 -27 -60 -26 -63 0 -3 -7 -7 -16 -8 -9 -1 -35
-4 -57 -8 -46 -6 -71 12 -77 56 -2 14 -9 34 -16 45 -11 17 -12 14 -7 -25 12
-88 61 -118 147 -89 36 12 40 17 78 116 23 58 63 171 89 251 63 191 126 352
154 394 15 21 48 46 96 69 91 46 152 104 186 181 23 52 46 168 33 168 -3 0 -8
-24 -11 -52z m-47 -147 c0 -12 -80 -101 -90 -101 -5 0 11 21 35 46 25 25 45
50 45 55 0 5 2 9 5 9 3 0 5 -4 5 -9z m-405 -395 c-31 -58 -61 -106 -66 -106
-6 0 -7 -5 -4 -10 4 -6 1 -9 -6 -8 -6 2 -14 -3 -17 -11 -3 -9 0 -11 7 -6 7 4
3 -12 -9 -35 -12 -23 -24 -40 -27 -37 -2 3 0 14 6 25 29 54 5 29 -42 -44 -76
-119 -79 -123 -73 -101 3 10 57 96 120 190 62 95 123 192 135 215 12 24 25 42
28 39 3 -3 -21 -53 -52 -111z"/>
<path d="M4168 3003 c-34 -37 -69 -93 -47 -76 9 7 18 10 21 7 3 -3 5 3 5 13
-1 10 4 17 11 15 8 -1 11 2 8 7 -3 5 1 14 9 21 20 17 20 -1 0 -40 -9 -17 -13
-30 -10 -30 8 0 45 78 45 95 0 22 -13 18 -42 -12z"/>
<path d="M3420 3017 c0 -15 -71 -268 -85 -305 -14 -34 -26 -45 -70 -66 -29
-13 -60 -35 -69 -48 -17 -26 -52 -191 -60 -283 -3 -38 2 -21 13 45 38 218 50
246 116 275 28 13 56 29 62 36 21 27 109 336 99 347 -3 3 -6 3 -6 -1z"/>
<path d="M5473 2993 c9 -2 25 -2 35 0 9 3 1 5 -18 5 -19 0 -27 -2 -17 -5z"/>
<path d="M2227 2984 c-12 -13 -7 -24 7 -18 11 4 19 -8 30 -43 8 -26 15 -41 15
-32 1 8 14 27 29 42 l28 27 23 -48 c20 -42 21 -54 12 -88 -19 -68 -10 -62 14
11 13 38 22 72 19 74 -2 2 -4 -1 -4 -7 0 -23 -16 -12 -32 21 -18 37 -20 53 -6
49 5 -1 7 2 3 8 -9 14 -45 12 -42 -2 1 -7 -4 -12 -11 -10 -8 1 -11 -1 -9 -5 3
-5 -1 -17 -9 -27 -13 -19 -14 -19 -19 0 -14 44 -33 63 -48 48z"/>
<path d="M4439 2973 c-13 -17 -13 -17 6 -3 11 8 22 16 24 17 2 2 0 3 -6 3 -6
0 -17 -8 -24 -17z"/>
<path d="M2450 2960 c-14 -4 -19 -8 -12 -9 7 -1 10 -5 7 -11 -3 -5 0 -10 8
-10 8 0 22 -18 32 -41 17 -36 17 -47 6 -101 -7 -33 -10 -62 -8 -64 2 -2 9 22
16 53 7 32 21 67 30 77 13 16 13 18 1 14 -18 -6 -62 65 -54 87 4 8 5 15 3 14
-2 -1 -15 -5 -29 -9z"/>
<path d="M3331 2944 c0 -11 3 -14 6 -6 3 7 2 16 -1 19 -3 4 -6 -2 -5 -13z"/>
<path d="M3241 2909 c-7 -22 -11 -43 -8 -45 2 -2 9 14 16 37 7 22 11 43 8 45
-2 2 -9 -14 -16 -37z"/>
<path d="M2837 2889 c7 -7 15 -10 18 -7 3 3 -2 9 -12 12 -14 6 -15 5 -6 -5z"/>
<path d="M3311 2874 c0 -11 3 -14 6 -6 3 7 2 16 -1 19 -3 4 -6 -2 -5 -13z"/>
<path d="M2261 2854 c0 -11 3 -14 6 -6 3 7 2 16 -1 19 -3 4 -6 -2 -5 -13z"/>
<path d="M4904 2825 c8 -8 18 -15 22 -15 3 0 1 7 -6 15 -7 8 -17 15 -22 15 -5
0 -3 -7 6 -15z"/>
<path d="M4678 2823 c7 -3 16 -2 19 1 4 3 -2 6 -13 5 -11 0 -14 -3 -6 -6z"/>
<path d="M4109 2793 c-13 -16 -12 -17 4 -4 16 13 21 21 13 21 -2 0 -10 -8 -17
-17z"/>
<path d="M4340 2780 c-21 -7 -19 -8 18 -9 23 -1 42 4 42 9 0 12 -24 12 -60 0z"/>
<path d="M4520 2770 c20 -13 43 -13 35 0 -3 6 -16 10 -28 10 -18 0 -19 -2 -7
-10z"/>
<path d="M4593 2753 c15 -2 37 -2 50 0 12 2 0 4 -28 4 -27 0 -38 -2 -22 -4z"/>
<path d="M2781 2724 c0 -11 3 -14 6 -6 3 7 2 16 -1 19 -3 4 -6 -2 -5 -13z"/>
<path d="M4405 2735 c6 -2 24 -6 40 -10 l30 -7 -30 -13 c-38 -17 -29 -19 15
-3 31 10 32 12 15 25 -11 7 -33 13 -49 12 -17 0 -26 -2 -21 -4z"/>
<path d="M4324 2712 c4 -7 14 -12 22 -12 8 0 17 -7 20 -15 4 -8 10 -12 15 -9
14 9 10 21 -8 27 -10 2 -27 8 -37 13 -14 5 -17 4 -12 -4z"/>
<path d="M4930 2706 c0 -18 16 -29 30 -21 13 8 1 35 -16 35 -8 0 -14 -6 -14
-14z"/>
<path d="M5036 2693 c-9 -9 -7 -33 3 -33 12 0 22 28 12 34 -5 3 -11 3 -15 -1z"/>
<path d="M5080 2620 c0 -15 5 -20 18 -18 9 2 17 10 17 18 0 8 -8 16 -17 18
-13 2 -18 -3 -18 -18z"/>
<path d="M5579 2623 c-13 -16 -12 -17 4 -4 9 7 17 15 17 17 0 8 -8 3 -21 -13z"/>
<path d="M4535 2611 c-21 -4 -31 -13 -33 -28 -2 -12 -11 -25 -21 -28 -28 -9
-59 -47 -68 -85 -9 -34 -10 -34 -99 -52 -136 -27 -247 -64 -358 -122 -123 -64
-150 -96 -143 -169 3 -39 2 -45 -9 -36 -8 6 -14 18 -14 25 0 7 -11 21 -25 30
-53 35 -102 -18 -131 -142 -16 -68 -16 -74 0 -98 9 -14 24 -26 34 -26 10 0 36
-18 57 -41 22 -22 63 -54 90 -71 28 -18 52 -33 54 -34 1 -2 -4 -31 -13 -66
-21 -84 -21 -180 0 -221 43 -83 162 -186 280 -242 327 -155 816 -152 1144 8
65 31 103 59 161 117 67 66 79 83 97 140 21 70 19 106 -12 220 -9 30 -16 56
-16 57 0 2 26 16 58 32 31 16 78 49 104 72 25 24 55 52 67 61 29 25 27 71 -9
146 -27 57 -32 62 -61 62 -18 0 -41 -7 -51 -17 -17 -15 -18 -14 -18 35 0 43
-5 57 -30 85 -16 19 -45 40 -62 47 -18 7 -62 27 -98 45 -88 44 -182 74 -314
99 l-110 22 -8 39 c-11 52 -96 139 -130 132 -20 -4 -19 -4 5 -6 26 -1 27 -3
26 -53 -1 -39 -3 -46 -8 -28 -7 25 -7 25 -13 3 -6 -24 -32 -31 -43 -13 -3 6
-48 10 -103 9 -66 0 -91 -3 -77 -9 14 -7 4 -9 -35 -7 -48 2 -55 5 -61 27 -7
25 -7 25 -8 -3 -1 -39 -21 -24 -21 16 0 58 6 60 157 67 l138 7 -120 0 c-66 0
-133 -2 -150 -6z m395 -71 c8 -5 12 -11 10 -14 -3 -2 -14 2 -24 10 -22 15 -10
19 14 4z m-445 -20 c-5 -26 -15 -41 -23 -36 -4 2 -7 -28 -7 -67 0 -62 -3 -72
-19 -75 -17 -4 -18 2 -15 70 3 49 10 83 22 101 21 32 48 36 42 7z m440 0 c4
-6 11 -8 16 -5 15 10 30 -46 27 -104 -2 -44 -7 -57 -20 -59 -16 -3 -18 5 -18
67 0 48 -5 74 -15 85 -8 8 -15 17 -15 20 0 10 18 7 25 -4z m-11 -42 c3 -13 6
-25 6 -28 0 -3 -101 -5 -225 -5 -160 0 -225 3 -225 11 0 26 28 31 145 24 110
-6 260 2 273 15 11 10 20 4 26 -17z m-40 -54 c33 -5 46 -11 46 -23 0 -14 -22
-16 -197 -16 -109 0 -210 -3 -225 -8 -25 -7 -28 -5 -28 17 0 19 6 26 28 29 46
7 326 7 376 1z m-470 -30 c8 -21 0 -33 -30 -44 -30 -12 -40 -35 -24 -55 9 -10
29 -14 64 -13 l51 2 -52 3 c-44 3 -53 7 -53 23 0 23 42 50 48 31 6 -17 62 -14
62 3 0 21 88 31 272 31 135 0 159 -2 170 -17 15 -20 36 -24 61 -13 13 5 25 1
40 -15 l22 -22 -40 6 c-129 20 -198 27 -260 24 l-70 -4 90 -4 90 -4 -100 -7
c-95 -6 -94 -6 35 -4 74 1 124 -1 111 -4 -16 -4 3 -10 59 -19 86 -14 108 -8
97 23 -4 9 -20 23 -37 33 -20 11 -30 25 -30 41 0 23 2 23 58 16 92 -11 239
-53 320 -90 236 -110 194 -252 -103 -348 -344 -111 -918 -93 -1201 37 -281
130 -188 293 221 386 101 23 121 24 129 4z m-533 -180 c-31 -40 -27 -86 10
-129 67 -76 289 -158 509 -190 124 -17 445 -20 588 -4 202 21 437 102 524 178
50 44 64 88 44 138 l-16 38 25 -28 c99 -111 -89 -246 -451 -324 -121 -26 -144
-28 -384 -28 -283 0 -391 12 -572 66 -179 53 -285 116 -315 187 -15 36 -8 57
30 100 28 30 33 28 8 -4z m1667 -55 c-3 -33 -4 -33 -8 8 -3 23 -2 39 3 34 5
-5 7 -24 5 -42z m-1659 -31 c10 -30 9 -31 -4 -14 -8 11 -15 26 -15 33 0 22 8
14 19 -19z m-109 -3 c10 -13 10 -19 -4 -34 -10 -11 -16 -25 -15 -33 3 -27 -1
-39 -13 -32 -6 4 -4 -3 5 -17 25 -34 21 -46 -4 -14 -18 22 -28 26 -55 23 -19
-2 -34 0 -34 4 0 4 4 8 10 8 5 0 7 6 4 14 -3 8 4 32 16 55 17 34 26 41 49 41
16 0 34 -7 41 -15z m1940 -47 c26 -43 25 -58 -4 -58 -13 0 -36 -10 -52 -22
-28 -22 -26 -12 5 27 15 18 15 19 -1 7 -14 -11 -17 -10 -23 8 -4 12 -1 28 7
37 11 15 11 16 -4 10 -20 -7 -25 9 -5 16 33 14 58 6 77 -25z m-1899 -15 c13
-16 12 -17 -3 -4 -17 13 -22 21 -14 21 2 0 10 -8 17 -17z m21 -65 c57 -70 62
-83 47 -134 -8 -24 -17 -44 -22 -44 -13 0 -98 61 -103 74 -2 6 2 31 11 55 8
24 15 54 15 67 0 34 13 30 52 -18z m1689 29 c-6 -8 -8 -16 -5 -20 8 -8 -36
-30 -66 -33 -23 -2 -24 -2 -7 11 11 7 25 11 33 8 8 -3 14 -1 12 5 -2 6 6 18
17 26 25 19 31 20 16 3z m94 -29 c4 -18 14 -46 22 -61 17 -34 9 -47 -56 -89
-66 -41 -71 -39 -71 38 0 65 1 67 42 105 24 22 46 39 50 39 3 0 10 -15 13 -32z
m-1877 -20 c8 -17 10 -34 4 -43 -7 -13 -10 -11 -20 10 -9 19 -18 25 -34 23
-26 -4 -40 -45 -24 -68 6 -8 1 -6 -12 4 -26 22 -28 53 -6 84 23 33 74 27 92
-10z m2000 10 c7 -7 12 -23 11 -37 0 -26 -1 -26 -11 -4 -17 35 -40 38 -65 8
-17 -19 -23 -22 -23 -10 0 47 56 75 88 43z m-1805 -28 c4 0 6 4 2 9 -3 5 22
-3 55 -17 33 -15 56 -28 51 -30 -5 -2 -28 6 -50 17 -22 12 -44 21 -48 21 -4
-1 13 -12 39 -26 33 -17 56 -22 74 -18 25 7 25 7 -13 24 -56 27 -35 24 43 -6
271 -102 753 -122 1069 -45 66 16 123 27 126 25 4 -2 25 3 48 11 23 8 49 11
58 8 11 -4 14 -3 9 5 -5 8 -1 10 11 5 13 -5 5 -12 -37 -31 -30 -14 -67 -25
-82 -26 -14 0 -24 -4 -22 -8 6 -9 -149 -44 -271 -62 -241 -35 -497 -28 -731
19 -171 35 -355 106 -380 147 -4 6 3 4 17 -5 13 -9 27 -17 32 -17z m-215 -32
c25 -52 107 -113 197 -147 89 -34 108 -58 41 -54 -46 3 -130 39 -121 53 3 5 0
7 -8 4 -8 -3 -37 16 -66 42 -52 47 -81 89 -81 119 0 24 23 13 38 -17z m1992 5
c0 -36 -84 -117 -154 -149 -66 -30 -151 -44 -144 -23 3 8 31 21 64 30 33 9 73
23 90 32 38 19 111 92 119 118 9 28 25 23 25 -8z m-1759 -48 c6 17 8 16 9 -10
2 -29 2 -30 10 -5 l7 25 11 -25 c8 -20 11 -21 11 -6 1 14 4 16 14 7 8 -6 17
-8 20 -4 4 3 8 -5 8 -18 1 -18 3 -19 6 -6 4 15 7 16 20 5 9 -7 19 -13 22 -13
3 0 5 -31 5 -70 -1 -49 1 -61 6 -40 4 17 8 47 9 67 1 34 4 37 24 34 12 -3 23
-5 25 -7 1 -1 7 -3 12 -4 6 -1 12 -4 15 -5 3 -1 8 -3 13 -4 60 -14 90 -20 107
-21 11 -1 49 -7 84 -14 34 -7 103 -14 152 -15 49 -2 92 -6 95 -9 4 -4 12 -3
18 0 18 12 126 10 126 -1 0 -8 3 -8 8 -1 4 6 17 12 30 12 20 2 22 -3 24 -45
l2 -47 3 47 c4 44 6 47 31 45 25 -2 27 -6 30 -52 5 -76 10 -78 11 -4 1 62 2
66 24 65 12 -1 32 1 45 6 26 9 25 9 40 -72 l10 -55 -5 69 c-5 61 -4 68 11 63
9 -4 16 -2 16 4 0 6 5 7 10 4 6 -3 10 -25 11 -48 1 -23 5 -53 9 -67 5 -15 6 3
3 46 -5 66 -4 71 15 76 27 7 32 2 32 -39 0 -19 9 -94 21 -166 25 -166 20 -235
-27 -333 -18 -39 -45 -79 -59 -88 -26 -17 -35 -7 -11 13 8 6 19 25 26 41 7 16
15 28 19 26 3 -2 7 6 7 17 1 12 4 45 8 72 l6 50 -13 -55 c-14 -58 -44 -120
-76 -157 -28 -33 -31 -28 -11 15 10 20 21 53 24 72 6 31 4 29 -14 -14 -27 -63
-57 -106 -76 -106 -17 0 -17 4 0 38 25 49 27 78 2 32 -24 -45 -62 -87 -71 -79
-2 3 2 23 10 44 8 22 14 54 13 70 -1 26 -1 27 -5 5 -13 -77 -42 -130 -71 -130
-11 0 -13 8 -8 33 l6 32 -20 -32 c-23 -38 -50 -45 -44 -10 l5 22 -12 -22 c-18
-34 -29 -28 -30 15 l-1 37 -12 -40 c-13 -45 -36 -52 -51 -17 -12 28 -25 29
-25 1 0 -40 -34 -17 -52 36 l-18 50 6 -55 5 -55 -20 35 c-21 36 -30 35 -10 -2
8 -16 8 -19 -2 -16 -7 2 -19 20 -26 39 l-13 34 5 -37 c5 -31 3 -36 -12 -34
-10 1 -30 25 -45 52 -30 54 -36 53 -13 -3 18 -44 19 -40 -4 -39 -20 1 -46 30
-75 81 l-16 30 6 -29 c5 -20 4 -27 -4 -22 -8 5 -10 1 -5 -9 4 -11 8 -13 13 -5
4 7 12 3 23 -13 13 -21 14 -25 2 -23 -23 3 -65 47 -96 101 -33 57 -39 54 -9
-5 11 -22 20 -42 20 -46 0 -4 -9 1 -20 11 -11 10 -20 14 -20 10 0 -5 -12 2
-27 16 -27 25 -25 16 11 -36 l20 -30 -22 19 c-12 11 -22 15 -22 11 0 -15 -43
29 -70 73 -21 32 -29 38 -34 27 -4 -10 -2 -14 5 -9 7 4 10 1 7 -7 -3 -8 -10
-13 -16 -12 -6 2 -9 -4 -5 -12 5 -13 7 -13 20 2 14 17 14 17 9 0 -3 -10 -2
-15 4 -12 5 3 14 -4 20 -15 12 -23 -2 -27 -20 -5 -7 8 -16 13 -20 10 -5 -3
-15 3 -22 13 -7 11 -17 19 -23 19 -5 -1 -21 17 -33 39 -21 35 -22 30 -4 -16 5
-13 3 -13 -11 -1 -23 18 -48 108 -58 206 l-8 80 4 -95 c2 -52 7 -106 10 -120
5 -20 4 -22 -4 -8 -6 9 -17 54 -25 100 -11 65 -14 75 -16 43 -1 -22 -6 -51
-10 -65 l-8 -25 -2 25 c-1 23 -2 23 -10 5 -14 -35 -23 28 -18 124 3 48 2 77
-3 66 -4 -11 -8 -41 -8 -67 -1 -27 -5 -48 -11 -48 -15 0 -12 54 6 123 9 34 18
65 20 69 3 5 19 1 36 -8 84 -44 138 -33 138 26 0 23 -8 35 -37 53 -131 82
-124 76 -110 97 11 19 12 19 16 3 3 -16 4 -16 12 2z m82 -115 c27 -22 36 -53
17 -65 -6 -3 -7 1 -4 10 8 21 -21 52 -76 81 -49 25 -80 48 -80 57 0 7 106 -55
143 -83z m1351 74 c3 -8 2 -12 -4 -9 -6 3 -10 10 -10 16 0 14 7 11 14 -7z m80
-5 c-10 -12 -36 -30 -56 -40 -23 -12 -40 -29 -44 -44 -3 -14 -10 -23 -14 -20
-20 12 7 49 56 77 30 16 57 34 60 39 3 5 8 9 11 9 3 0 -2 -9 -13 -21z m-137
-36 c-3 -10 -5 -2 -5 17 0 19 2 27 5 18 2 -10 2 -26 0 -35z m11 -168 c29 -107
24 -230 -13 -319 -24 -58 -28 -38 -4 25 28 72 28 184 0 309 -11 52 -20 118
-20 145 1 44 3 40 14 -35 7 -47 17 -103 23 -125z m-70 133 c1 34 6 62 11 62 4
0 11 -37 14 -82 4 -46 14 -109 22 -141 19 -71 14 -203 -9 -262 -9 -22 -14 -29
-11 -15 15 65 15 170 1 240 l-15 75 7 -75 c14 -156 -6 -271 -59 -332 l-20 -23
16 34 c20 40 45 120 44 141 0 8 -15 -23 -34 -69 -18 -46 -38 -88 -45 -95 -6
-6 -2 14 10 44 31 78 36 178 16 312 -19 125 -18 229 2 236 9 3 13 -17 14 -75
l2 -78 3 70 c5 96 16 113 23 35 l7 -65 1 63z m-1283 8 c30 -16 40 -28 40 -46
0 -17 -6 -26 -20 -29 -17 -3 -18 -1 -6 13 20 24 6 45 -51 72 -29 13 -42 22
-28 18 14 -3 43 -16 65 -28z m1201 -5 c-3 -23 3 -90 15 -162 14 -82 20 -148
16 -194 -5 -76 -36 -170 -68 -207 -20 -23 -20 -22 0 19 12 23 26 84 32 135 10
83 9 109 -10 227 -24 151 -26 192 -9 209 22 22 31 13 24 -27z m171 -133 c-3
-8 -6 -5 -6 6 -1 11 2 17 5 13 3 -3 4 -12 1 -19z m37 -38 c4 -24 3 -28 -2 -15
-14 31 -24 83 -13 65 5 -8 11 -31 15 -50z m115 20 c0 -10 -3 -8 -9 5 -12 27
-12 43 0 25 5 -8 9 -22 9 -30z m-52 8 c-3 -8 -6 -5 -6 6 -1 11 2 17 5 13 3 -3
4 -12 1 -19z m-68 -164 c1 -63 -21 -145 -44 -164 -7 -6 -3 9 9 32 22 46 28
129 14 238 l-6 55 13 -50 c7 -27 14 -77 14 -111z m55 -6 c1 -46 -4 -82 -11
-89 -8 -8 -8 1 -1 37 10 46 9 62 -17 194 -3 14 3 5 12 -20 9 -26 17 -78 17
-122z m37 102 c-15 -71 -12 -96 5 -35 l13 50 -5 -45 c-2 -25 -11 -63 -20 -85
-15 -40 -15 -39 -11 50 3 51 1 81 -4 70 -9 -25 -11 -9 -2 24 6 23 7 23 14 5 7
-17 8 -16 8 5 1 13 4 22 7 18 3 -3 1 -29 -5 -57z m36 18 c-3 -8 -6 -5 -6 6 -1
11 2 17 5 13 3 -3 4 -12 1 -19z m-110 -40 c-3 -8 -6 -5 -6 6 -1 11 2 17 5 13
3 -3 4 -12 1 -19z m-2 -159 c-8 -19 -12 -25 -9 -14 4 11 10 52 13 90 l6 70 3
-56 c2 -36 -3 -69 -13 -90z m-1458 49 c-3 -7 -5 -2 -5 12 0 14 2 19 5 13 2 -7
2 -19 0 -25z m363 -233 c0 4 9 0 20 -10 11 -10 18 -21 15 -23 -3 -3 -12 3 -20
14 -9 12 -14 14 -15 6 0 -18 -17 -6 -31 21 -12 22 -12 22 10 3 11 -11 21 -15
21 -11z"/>
<path d="M4952 2410 c0 -14 2 -19 5 -12 2 6 2 18 0 25 -3 6 -5 1 -5 -13z"/>
<path d="M4563 2323 c9 -2 23 -2 30 0 6 3 -1 5 -18 5 -16 0 -22 -2 -12 -5z"/>
<path d="M4515 2309 c22 -4 54 -8 70 -7 22 0 19 3 -15 9 -60 10 -108 9 -55 -2z"/>
<path d="M4428 2303 c6 -2 18 -2 25 0 6 3 1 5 -13 5 -14 0 -19 -2 -12 -5z"/>
<path d="M4483 2293 c9 -2 23 -2 30 0 6 3 -1 5 -18 5 -16 0 -22 -2 -12 -5z"/>
<path d="M5128 2293 c7 -3 16 -2 19 1 4 3 -2 6 -13 5 -11 0 -14 -3 -6 -6z"/>
<path d="M5190 2275 c19 -7 42 -13 50 -13 8 0 -1 6 -20 13 -19 7 -42 13 -50
13 -8 0 1 -6 20 -13z"/>
<path d="M5128 2273 c7 -3 16 -2 19 1 4 3 -2 6 -13 5 -11 0 -14 -3 -6 -6z"/>
<path d="M5357 2240 c56 -21 108 -42 115 -46 10 -5 10 -4 2 5 -12 13 -186 81
-207 81 -6 0 34 -18 90 -40z"/>
<path d="M4013 2257 c7 -5 -1 -6 -18 -3 -22 5 -26 4 -15 -4 12 -8 13 -10 1
-10 -8 0 -12 -2 -9 -5 2 -3 29 3 59 14 l54 18 -42 -1 c-26 0 -37 -4 -30 -9z"/>
<path d="M4021 2230 c-46 -15 -88 -33 -94 -39 -6 -6 34 6 89 25 54 19 101 37
103 40 9 9 -17 2 -98 -26z"/>
<path d="M5128 2253 c7 -3 16 -2 19 1 4 3 -2 6 -13 5 -11 0 -14 -3 -6 -6z"/>
<path d="M5260 2257 c3 -3 46 -21 95 -40 134 -51 132 -51 115 -38 -25 18 -223
92 -210 78z"/>
<path d="M5290 2220 c12 -9 10 -10 -12 -6 -47 10 -31 0 35 -24 34 -12 85 -33
112 -47 28 -13 42 -17 32 -9 -12 9 -14 15 -6 18 12 4 -103 59 -151 72 -20 6
-22 5 -10 -4z m90 -36 c33 -15 59 -28 57 -30 -2 -2 -35 10 -73 26 -38 16 -64
30 -57 30 6 0 39 -12 73 -26z"/>
<path d="M3971 2187 c-30 -11 -50 -22 -44 -24 5 -2 34 8 64 21 66 30 54 32
-20 3z"/>
<path d="M3993 2170 c-35 -16 -63 -31 -63 -34 0 -5 130 51 139 60 11 11 -19 1
-76 -26z"/>
<path d="M4000 2145 c-36 -19 -60 -34 -55 -34 6 0 39 15 75 34 36 19 61 34 55
34 -5 0 -39 -15 -75 -34z"/>
<path d="M5160 2116 c0 -2 8 -10 18 -17 15 -13 16 -12 3 4 -13 16 -21 21 -21
13z"/>
<path d="M5230 2055 c19 -19 36 -35 39 -35 3 0 -10 16 -29 35 -19 19 -36 35
-39 35 -3 0 10 -16 29 -35z"/>
<path d="M5270 2086 c0 -2 14 -14 30 -26 17 -12 30 -19 30 -16 0 2 -13 14 -30
26 -16 12 -30 19 -30 16z"/>
<path d="M3720 2123 c8 -3 24 -10 35 -15 20 -9 20 -9 1 6 -11 9 -27 16 -35 15
-14 0 -14 -1 -1 -6z"/>
<path d="M4066 1911 c-19 -7 -18 -8 4 -14 13 -3 26 -4 29 -2 2 3 -2 5 -10 5
-11 0 -11 2 1 10 18 11 3 12 -24 1z"/>
<path d="M4728 1813 c23 -2 59 -2 80 0 20 2 1 4 -43 4 -44 0 -61 -2 -37 -4z"/>
<path d="M3765 1830 c10 -11 20 -20 23 -20 3 0 -3 9 -13 20 -10 11 -20 20 -23
20 -3 0 3 -9 13 -20z"/>
<path d="M5669 1883 c-13 -16 -12 -17 4 -4 16 13 21 21 13 21 -2 0 -10 -8 -17
-17z"/>
<path d="M4281 1754 c0 -11 3 -14 6 -6 3 7 2 16 -1 19 -3 4 -6 -2 -5 -13z"/>
<path d="M4782 1710 c0 -14 2 -19 5 -12 2 6 2 18 0 25 -3 6 -5 1 -5 -13z"/>
<path d="M4971 1714 c0 -11 3 -14 6 -6 3 7 2 16 -1 19 -3 4 -6 -2 -5 -13z"/>
<path d="M4642 1690 c0 -19 2 -27 5 -17 2 9 2 25 0 35 -3 9 -5 1 -5 -18z"/>
<path d="M4081 1674 c0 -11 3 -14 6 -6 3 7 2 16 -1 19 -3 4 -6 -2 -5 -13z"/>
<path d="M4071 1634 c0 -11 3 -14 6 -6 3 7 2 16 -1 19 -3 4 -6 -2 -5 -13z"/>
<path d="M5041 1614 c0 -11 3 -14 6 -6 3 7 2 16 -1 19 -3 4 -6 -2 -5 -13z"/>
<path d="M3912 1600 c0 -14 2 -19 5 -12 2 6 2 18 0 25 -3 6 -5 1 -5 -13z"/>
<path d="M4851 1604 c0 -11 3 -14 6 -6 3 7 2 16 -1 19 -3 4 -6 -2 -5 -13z"/>
<path d="M3952 1580 c0 -14 2 -19 5 -12 2 6 2 18 0 25 -3 6 -5 1 -5 -13z"/>
<path d="M4062 1580 c0 -14 2 -19 5 -12 2 6 2 18 0 25 -3 6 -5 1 -5 -13z"/>
<path d="M3903 1520 c0 -30 2 -43 4 -27 2 15 2 39 0 55 -2 15 -4 2 -4 -28z"/>
<path d="M4011 1534 c0 -11 3 -14 6 -6 3 7 2 16 -1 19 -3 4 -6 -2 -5 -13z"/>
<path d="M3923 1505 c0 -22 2 -30 4 -17 2 12 2 30 0 40 -3 9 -5 -1 -4 -23z"/>
<path d="M4113 1500 c0 -25 2 -35 4 -22 2 12 2 32 0 45 -2 12 -4 2 -4 -23z"/>
<path d="M4012 1415 c0 -16 2 -22 5 -12 2 9 2 23 0 30 -3 6 -5 -1 -5 -18z"/>
<path d="M4051 1355 c0 -5 8 -26 19 -45 11 -19 19 -30 19 -25 0 6 -8 26 -19
45 -11 19 -19 31 -19 25z"/>
<path d="M4922 1310 c0 -19 2 -27 5 -17 2 9 2 25 0 35 -3 9 -5 1 -5 -18z"/>
<path d="M4416 1290 c3 -14 11 -32 16 -40 6 -10 7 -7 2 10 -3 14 -11 32 -16
40 -6 10 -7 7 -2 -10z"/>
<path d="M5071 1269 c-6 -18 -9 -34 -7 -36 2 -2 9 10 15 28 6 18 9 34 7 36 -2
2 -9 -10 -15 -28z"/>
<path d="M4194 1253 c9 -17 20 -35 26 -38 18 -11 10 9 -16 40 l-26 30 16 -32z"/>
<path d="M4572 1250 c0 -14 2 -19 5 -12 2 6 2 18 0 25 -3 6 -5 1 -5 -13z"/>
<path d="M4996 1215 c-9 -26 -7 -32 5 -12 6 10 9 21 6 23 -2 3 -7 -2 -11 -11z"/>
<path d="M4782 1195 c0 -16 2 -22 5 -12 2 9 2 23 0 30 -3 6 -5 -1 -5 -18z"/>
<path d="M4841 1204 c0 -11 3 -14 6 -6 3 7 2 16 -1 19 -3 4 -6 -2 -5 -13z"/>
<path d="M4431 1180 c14 -31 19 -36 19 -24 0 6 -7 19 -16 30 -14 18 -14 18 -3
-6z"/>
<path d="M4865 1179 c-4 -6 -5 -12 -2 -15 2 -3 7 2 10 11 7 17 1 20 -8 4z"/>
<path d="M4622 1160 c0 -14 2 -19 5 -12 2 6 2 18 0 25 -3 6 -5 1 -5 -13z"/>
<path d="M4751 1164 c0 -11 3 -14 6 -6 3 7 2 16 -1 19 -3 4 -6 -2 -5 -13z"/>
<path d="M4692 1150 c0 -14 2 -19 5 -12 2 6 2 18 0 25 -3 6 -5 1 -5 -13z"/>
<path d="M5271 1674 c0 -11 3 -14 6 -6 3 7 2 16 -1 19 -3 4 -6 -2 -5 -13z"/>
<path d="M5242 1645 c0 -11 6 -51 13 -90 7 -38 13 -56 14 -40 0 17 -6 57 -13
90 -8 33 -14 51 -14 40z"/>
<path d="M5272 1445 c0 -16 2 -22 5 -12 2 9 2 23 0 30 -3 6 -5 -1 -5 -18z"/>
<path d="M2387 2593 c-4 -3 -7 -11 -7 -17 0 -6 5 -5 12 2 6 6 9 14 7 17 -3 3
-9 2 -12 -2z"/>
<path d="M4194 2581 c4 -6 19 -11 34 -11 21 0 24 -2 12 -10 -12 -8 -12 -10 5
-10 22 0 52 16 45 24 -3 2 -27 7 -54 11 -35 6 -47 5 -42 -4z"/>
<path d="M2696 2523 c-6 -14 -5 -15 5 -6 7 7 10 15 7 18 -3 3 -9 -2 -12 -12z"/>
<path d="M3075 2453 c-10 -27 -54 -128 -97 -226 -43 -97 -93 -219 -110 -271
l-32 -93 25 -49 c33 -65 66 -75 134 -42 49 23 50 24 67 93 10 39 20 90 23 115
3 25 -6 -1 -19 -58 -28 -116 -31 -122 -54 -122 -9 0 -26 -7 -36 -15 -27 -20
-60 -19 -77 3 -24 30 -39 61 -39 83 0 25 81 239 175 462 37 87 65 161 62 163
-2 2 -12 -17 -22 -43z"/>
<path d="M3086 2395 c-9 -26 -7 -32 5 -12 6 10 9 21 6 23 -2 3 -7 -2 -11 -11z"/>
<path d="M3091 2314 c0 -11 3 -14 6 -6 3 7 2 16 -1 19 -3 4 -6 -2 -5 -13z"/>
<path d="M3056 2305 c-9 -26 -7 -32 5 -12 6 10 9 21 6 23 -2 3 -7 -2 -11 -11z"/>
<path d="M3081 2264 c0 -11 3 -14 6 -6 3 7 2 16 -1 19 -3 4 -6 -2 -5 -13z"/>
<path d="M3122 2230 c0 -14 2 -19 5 -12 2 6 2 18 0 25 -3 6 -5 1 -5 -13z"/>
<path d="M3001 2164 c-12 -31 -20 -59 -18 -61 2 -2 14 22 26 53 12 31 20 59
18 61 -2 2 -14 -22 -26 -53z"/>
<path d="M3112 2170 c0 -14 2 -19 5 -12 2 6 2 18 0 25 -3 6 -5 1 -5 -13z"/>
<path d="M3062 2150 c0 -14 2 -19 5 -12 2 6 2 18 0 25 -3 6 -5 1 -5 -13z"/>
<path d="M3102 2115 c0 -16 2 -22 5 -12 2 9 2 23 0 30 -3 6 -5 -1 -5 -18z"/>
<path d="M3051 2094 c0 -11 3 -14 6 -6 3 7 2 16 -1 19 -3 4 -6 -2 -5 -13z"/>
<path d="M3092 2055 c0 -16 2 -22 5 -12 2 9 2 23 0 30 -3 6 -5 -1 -5 -18z"/>
<path d="M1107 2048 c2 -5 -11 -9 -29 -9 -99 -4 -130 -10 -208 -39 -201 -75
-273 -163 -150 -184 34 -6 30 -2 -18 15 -19 7 -21 12 -12 28 25 48 146 113
162 88 5 -8 8 -7 8 4 0 9 6 16 13 17 6 0 55 13 107 27 79 22 123 27 259 31
199 5 304 -6 377 -42 30 -15 54 -31 54 -37 0 -6 -10 -22 -22 -36 l-23 -26 28
25 c70 62 -7 121 -183 140 -110 12 -371 10 -363 -2z"/>
<path d="M961 1964 c0 -11 3 -14 6 -6 3 7 2 16 -1 19 -3 4 -6 -2 -5 -13z"/>
<path d="M1062 1940 c0 -19 2 -27 5 -17 2 9 2 25 0 35 -3 9 -5 1 -5 -18z"/>
<path d="M1162 1950 c0 -14 2 -19 5 -12 2 6 2 18 0 25 -3 6 -5 1 -5 -13z"/>
<path d="M1551 1954 c0 -11 3 -14 6 -6 3 7 2 16 -1 19 -3 4 -6 -2 -5 -13z"/>
<path d="M922 1935 c0 -16 2 -22 5 -12 2 9 2 23 0 30 -3 6 -5 -1 -5 -18z"/>
<path d="M942 1940 c0 -14 2 -19 5 -12 2 6 2 18 0 25 -3 6 -5 1 -5 -13z"/>
<path d="M992 1930 c0 -19 2 -27 5 -17 2 9 2 25 0 35 -3 9 -5 1 -5 -18z"/>
<path d="M1043 1920 c0 -25 2 -35 4 -22 2 12 2 32 0 45 -2 12 -4 2 -4 -23z"/>
<path d="M1571 1944 c0 -11 3 -14 6 -6 3 7 2 16 -1 19 -3 4 -6 -2 -5 -13z"/>
<path d="M2916 1935 c-3 -9 -6 -22 -5 -28 0 -7 5 -1 10 12 5 13 8 26 5 28 -2
2 -6 -3 -10 -12z"/>
<path d="M3011 1934 c0 -11 3 -14 6 -6 3 7 2 16 -1 19 -3 4 -6 -2 -5 -13z"/>
<path d="M972 1910 c0 -19 2 -27 5 -17 2 9 2 25 0 35 -3 9 -5 1 -5 -18z"/>
<path d="M902 1900 c0 -14 2 -19 5 -12 2 6 2 18 0 25 -3 6 -5 1 -5 -13z"/>
<path d="M790 1901 c0 -6 5 -13 10 -16 6 -3 10 1 10 9 0 9 -4 16 -10 16 -5 0
-10 -4 -10 -9z"/>
<path d="M2995 1881 c-3 -17 -12 -29 -18 -28 -6 1 -11 -2 -12 -8 0 -5 -4 -16
-9 -23 -7 -11 -4 -12 12 -3 20 10 49 77 39 87 -3 3 -8 -8 -12 -25z"/>
<path d="M841 1884 c0 -11 3 -14 6 -6 3 7 2 16 -1 19 -3 4 -6 -2 -5 -13z"/>
<path d="M952 1880 c0 -14 2 -19 5 -12 2 6 2 18 0 25 -3 6 -5 1 -5 -13z"/>
<path d="M2900 1861 c0 -17 4 -32 8 -35 4 -2 6 11 4 30 -5 42 -12 45 -12 5z"/>
<path d="M1435 1810 l-40 -7 35 0 c19 -1 49 3 65 7 27 7 27 8 5 7 -14 0 -43
-3 -65 -7z"/>
<path d="M1318 1793 c12 -2 32 -2 45 0 12 2 2 4 -23 4 -25 0 -35 -2 -22 -4z"/>
<path d="M788 1783 c6 -2 18 -2 25 0 6 3 1 5 -13 5 -14 0 -19 -2 -12 -5z"/>
<path d="M1063 1783 c20 -2 54 -2 75 0 20 2 3 4 -38 4 -41 0 -58 -2 -37 -4z"/>
<path d="M883 1773 c9 -2 25 -2 35 0 9 3 1 5 -18 5 -19 0 -27 -2 -17 -5z"/>
<path d="M3532 1706 c-7 -17 -8 -35 -2 -57 11 -37 6 -50 -8 -22 -16 31 -24 75
-12 68 5 -3 10 -2 10 4 0 17 -18 22 -23 7 -9 -22 10 -78 38 -116 15 -21 21
-36 15 -38 -7 -3 -5 -11 6 -23 26 -29 1 -23 -27 7 -19 21 -20 24 -5 18 14 -5
17 -4 12 4 -10 17 -36 15 -36 -3 0 -8 -4 -15 -10 -15 -5 0 -10 -5 -10 -11 0
-6 8 -8 19 -4 11 3 22 1 26 -4 4 -7 -1 -8 -12 -4 -14 5 -16 3 -6 -7 6 -7 26
-14 43 -16 17 -2 39 -8 48 -14 23 -13 -3 -13 -31 1 -22 10 -22 10 -2 -6 11 -9
31 -18 45 -21 14 -3 34 -10 45 -15 11 -6 3 6 -17 25 -31 29 -38 44 -44 93 -4
32 -17 84 -29 116 -21 56 -22 57 -33 33z m15 -58 c-2 -13 -4 -5 -4 17 -1 22 1
32 4 23 2 -10 2 -28 0 -40z m23 -40 c0 -23 -3 -29 -11 -21 -6 6 -8 20 -4 32 9
30 15 26 15 -11z m13 -58 c3 -11 1 -18 -4 -14 -5 3 -9 12 -9 20 0 20 7 17 13
-6z"/>
<path d="M3633 1711 c0 -11 4 -18 8 -15 4 2 11 -6 15 -18 7 -22 7 -22 15 -3 4
11 8 29 8 40 0 19 -1 19 -8 1 -7 -17 -8 -17 -23 -2 -16 15 -17 15 -15 -3z"/>
<path d="M3597 1681 c-8 -46 8 -101 29 -101 12 0 38 -59 30 -68 -3 -2 -11 9
-20 25 -8 15 -15 24 -16 20 0 -14 22 -51 39 -63 12 -9 18 -8 28 5 7 9 13 22
13 30 0 11 -4 9 -15 -5 -15 -18 -15 -18 -8 0 4 13 3 17 -5 12 -12 -7 -16 10
-13 69 2 23 0 27 -8 15 -8 -12 -12 -9 -17 18 -4 17 -10 32 -15 32 -4 0 -9 12
-11 28 -3 22 -5 19 -11 -17z m33 -70 c-1 -13 -4 -12 -15 3 -8 11 -15 27 -15
35 1 13 4 12 15 -3 8 -11 15 -27 15 -35z"/>
<path d="M2703 1703 c9 -2 23 -2 30 0 6 3 -1 5 -18 5 -16 0 -22 -2 -12 -5z"/>
<path d="M2120 1666 c-234 -17 -414 -32 -401 -34 26 -4 408 20 746 48 121 9
189 17 150 17 -38 0 -261 -14 -495 -31z"/>
<path d="M2796 1657 c35 -49 45 -137 20 -185 -33 -64 27 -55 -881 -123 -140
-10 -270 -28 -262 -36 4 -3 498 35 991 76 97 8 101 9 130 43 17 19 36 43 42
54 12 21 29 22 214 14 118 -6 160 5 179 46 17 37 14 58 -12 82 -32 30 -42 28
-12 -3 14 -13 25 -34 25 -47 0 -15 -3 -19 -8 -11 -6 9 -18 9 -52 -2 -25 -8
-36 -14 -25 -15 16 -1 14 -4 -10 -14 -22 -9 -56 -11 -125 -5 -52 4 -112 5
-132 2 -37 -5 -38 -5 -38 25 0 17 -3 37 -6 46 -5 12 5 16 48 19 l53 3 -54 2
c-48 2 -58 6 -83 35 l-29 32 27 -38z"/>
<path d="M3690 1672 c0 -10 -4 -22 -9 -27 -12 -14 -1 -85 14 -85 15 0 28 70
19 105 -7 29 -24 34 -24 7z m11 -65 c-8 -8 -11 -4 -11 14 0 33 14 47 18 19 2
-12 -1 -27 -7 -33z"/>
<path d="M530 1661 c-81 -25 -136 -80 -196 -194 -20 -40 -49 -85 -64 -102
l-28 -30 -11 -345 c-6 -190 -14 -404 -17 -476 l-6 -130 154 -62 c225 -90 399
-152 426 -152 23 0 194 85 340 168 46 27 62 42 62 58 0 37 -161 917 -171 936
-5 10 -31 29 -57 42 -57 29 -68 40 -145 157 -74 111 -117 140 -206 138 -31 0
-67 -4 -81 -8z m115 -12 c51 -14 71 -32 104 -94 24 -45 26 -60 26 -162 0 -62
4 -113 8 -113 13 0 157 52 157 57 0 2 -24 27 -52 56 -29 29 -68 81 -87 116
-18 34 -47 79 -64 99 l-31 37 32 -29 c18 -16 51 -61 74 -100 53 -87 104 -140
151 -155 40 -13 52 -39 61 -126 3 -33 3 -40 -2 -20 -8 30 -8 29 -15 -14 -4
-24 -5 -46 -2 -49 3 -3 5 3 6 14 1 10 5 3 10 -16 5 -19 6 -55 4 -80 -3 -31 -2
-37 3 -20 8 22 9 19 16 -23 4 -27 5 -51 2 -55 -3 -3 -6 7 -6 23 0 16 -3 26 -6
23 -3 -4 -2 -28 2 -55 6 -37 9 -43 13 -24 4 14 27 -88 57 -253 36 -198 47
-279 40 -287 -8 -9 -6 -10 9 -5 43 15 -6 -16 -165 -104 -91 -50 -169 -95 -174
-101 -17 -16 -42 -10 -203 50 -238 89 -246 93 -231 102 19 13 36 11 18 -2 -11
-8 -8 -9 15 -5 23 5 26 4 15 -4 -11 -8 -8 -9 15 -5 24 4 26 3 10 -4 -11 -5
-15 -10 -8 -10 6 -1 20 -4 30 -7 15 -5 16 -4 3 6 -13 10 -12 11 3 6 10 -3 24
-6 30 -7 7 0 3 -5 -8 -10 -17 -8 -16 -9 6 -4 16 3 55 -6 95 -21 95 -35 98 -44
7 -19 -10 3 -4 -1 12 -10 17 -8 44 -12 60 -10 22 4 25 3 10 -3 -18 -8 -17 -9
8 -16 16 -3 33 -4 39 0 6 4 8 3 5 -3 -4 -6 0 -13 8 -17 19 -7 24 3 14 34 -4
14 -7 19 -8 11 -1 -8 -8 -11 -18 -8 -32 9 -387 145 -430 164 l-42 18 -6 293
c-3 162 -2 291 2 289 4 -3 6 64 5 149 -3 138 -2 155 13 160 10 4 99 -12 199
-36 99 -23 193 -45 208 -47 25 -5 27 -9 31 -62 l3 -56 2 60 2 60 -215 54
c-118 30 -212 58 -209 63 3 5 13 7 21 4 8 -3 12 -2 9 3 -3 4 44 22 104 40
l110 31 92 -20 c51 -11 93 -20 95 -20 2 0 3 -9 3 -20 0 -14 -7 -20 -21 -20
-16 0 -19 -4 -14 -21 5 -16 4 -19 -5 -14 -9 5 -10 1 -6 -16 7 -23 7 -23 -8 -5
-9 11 -16 14 -16 7 0 -8 -11 -10 -37 -5 -47 8 -55 13 -47 26 4 6 10 6 17 -1
16 -16 27 -13 21 4 -4 8 -10 12 -15 9 -5 -3 -9 0 -9 7 0 6 -8 1 -19 -12 l-19
-23 -78 18 c-44 10 -87 23 -98 28 -10 6 -22 6 -27 1 -5 -5 67 -27 171 -53 207
-51 202 -52 222 43 9 44 9 73 0 129 -21 121 -62 168 -155 176 -96 8 -181 -59
-247 -195 -18 -37 -45 -81 -60 -98 l-28 -30 -11 -370 c-14 -476 -14 -548 1
-539 7 5 8 3 3 -6 -6 -9 -1 -10 16 -5 16 4 20 3 11 -3 -18 -13 13 -25 42 -17
17 5 18 4 6 -5 -12 -9 -10 -10 10 -5 19 5 22 4 10 -4 -12 -9 -13 -11 -1 -11 8
0 12 -3 8 -6 -3 -3 -33 6 -66 21 l-61 28 0 106 c0 58 5 270 11 470 11 361 11
365 34 383 12 9 42 54 65 99 62 120 117 174 200 200 36 11 60 10 105 -2z m23
-45 c35 -23 59 -70 72 -142 6 -35 9 -66 7 -68 -3 -3 -185 31 -219 42 -24 7
-40 68 -27 102 31 81 101 108 167 66z m-187 -87 c-6 -14 -6 -29 -2 -32 5 -2
11 -18 13 -35 5 -30 3 -31 -71 -54 -70 -22 -102 -25 -75 -8 6 4 17 24 23 44 7
21 17 41 23 45 8 4 9 0 5 -13 -7 -18 -6 -18 7 -1 11 14 15 15 20 5 3 -7 4 -3
2 10 -2 12 -1 20 3 17 4 -2 15 12 25 32 20 42 43 34 27 -10z m352 -88 c5 -4 5
-9 -2 -13 -6 -4 -11 -2 -11 5 0 7 -3 10 -6 6 -3 -3 1 -27 10 -53 18 -53 21
-77 6 -54 -8 13 -10 12 -10 -2 0 -10 -6 -18 -12 -18 -9 0 -13 16 -13 44 0 24
4 42 8 39 5 -3 6 5 2 18 -5 13 -9 40 -11 59 l-2 35 15 -30 c9 -16 20 -33 26
-36z m67 -69 l24 -13 -32 -16 c-29 -13 -34 -13 -43 -1 -5 8 -7 26 -4 38 4 15
2 21 -5 17 -5 -3 -10 -2 -10 3 0 19 14 21 29 3 9 -10 27 -24 41 -31z m-643
-847 c-2 -16 -4 -3 -4 27 0 30 2 43 4 28 2 -16 2 -40 0 -55z"/>
<path d="M563 1393 c9 -2 25 -2 35 0 9 3 1 5 -18 5 -19 0 -27 -2 -17 -5z"/>
<path d="M628 1383 c7 -3 16 -2 19 1 4 3 -2 6 -13 5 -11 0 -14 -3 -6 -6z"/>
<path d="M677 1333 c-4 -3 -7 -11 -7 -17 0 -6 5 -5 12 2 6 6 9 14 7 17 -3 3
-9 2 -12 -2z"/>
<path d="M645 1311 c-3 -5 -1 -12 5 -16 5 -3 10 1 10 9 0 18 -6 21 -15 7z"/>
<path d="M864 1286 c-50 -18 -97 -37 -104 -41 -13 -8 -11 -149 10 -660 14
-322 19 -375 36 -375 22 0 309 158 307 169 -2 6 3 8 10 5 7 -2 13 4 14 14 2
20 -29 5 -259 -121 -31 -17 -60 -29 -62 -26 -3 3 -15 196 -26 430 -10 233 -22
451 -24 485 l-5 61 97 34 c53 19 101 34 107 34 5 0 12 -11 16 -25 5 -17 7 -19
8 -7 1 21 -16 57 -27 57 -4 -1 -48 -16 -98 -34z m231 -915 c-15 -13 -292 -156
-280 -144 9 10 275 153 285 153 2 0 0 -4 -5 -9z"/>
<path d="M1001 1264 c0 -11 3 -14 6 -6 3 7 2 16 -1 19 -3 4 -6 -2 -5 -13z"/>
<path d="M333 1236 c4 -9 2 -16 -4 -16 -6 0 -7 -4 -4 -10 3 -5 15 -10 26 -10
27 0 22 43 -5 48 -14 3 -17 0 -13 -12z"/>
<path d="M410 1225 c-15 -18 -6 -45 15 -45 9 0 15 9 15 24 0 31 -14 40 -30 21z"/>
<path d="M992 1220 c0 -14 2 -19 5 -12 2 6 2 18 0 25 -3 6 -5 1 -5 -13z"/>
<path d="M477 1214 c-14 -15 -6 -42 14 -47 17 -5 20 -1 17 21 -3 26 -18 38
-31 26z"/>
<path d="M563 1203 c-20 -7 -15 -40 7 -46 16 -4 20 0 20 18 0 26 -8 35 -27 28z"/>
<path d="M632 1178 c-20 -20 -14 -38 13 -38 27 0 33 21 12 39 -10 8 -17 7 -25
-1z"/>
<path d="M825 1165 c22 -14 45 -25 50 -25 6 0 -8 11 -30 25 -22 13 -44 24 -50
24 -5 0 8 -11 30 -24z"/>
<path d="M320 1173 c0 -19 21 -27 33 -13 9 10 9 11 -2 5 -8 -4 -17 -2 -22 6
-6 9 -9 10 -9 2z"/>
<path d="M931 1133 c-17 -25 -31 -50 -31 -55 0 -19 17 -5 40 32 28 45 49 55
25 13 -22 -42 -41 -63 -54 -63 -7 0 -9 -5 -6 -11 16 -25 91 78 80 111 -10 30
-20 25 -54 -27z"/>
<path d="M780 1160 c0 -10 72 -50 90 -50 5 0 10 4 10 10 0 5 -6 7 -13 4 -7 -2
-30 7 -50 20 -20 14 -37 21 -37 16z"/>
<path d="M364 1136 c-7 -19 3 -36 22 -36 10 0 14 8 12 22 -4 26 -26 36 -34 14z"/>
<path d="M436 1115 c-9 -24 -8 -25 20 -25 19 0 25 5 22 17 -4 23 -34 28 -42 8z"/>
<path d="M556 1118 c3 -5 10 -6 15 -3 13 9 11 12 -6 12 -8 0 -12 -4 -9 -9z"/>
<path d="M1012 1110 c0 -14 2 -19 5 -12 2 6 2 18 0 25 -3 6 -5 1 -5 -13z"/>
<path d="M514 1106 c-7 -19 3 -36 22 -36 10 0 14 8 12 22 -4 26 -26 36 -34 14z"/>
<path d="M630 1098 c0 -4 4 -8 9 -8 6 0 12 4 15 8 3 5 -1 9 -9 9 -8 0 -15 -4
-15 -9z"/>
<path d="M586 1084 c-8 -21 -8 -21 14 -27 23 -6 33 5 24 27 -8 21 -30 21 -38
0z"/>
<path d="M430 1061 c0 -6 4 -13 10 -16 6 -3 7 1 4 9 -7 18 -14 21 -14 7z"/>
<path d="M810 1055 c0 -2 23 -16 50 -30 28 -14 50 -23 50 -20 0 2 -22 16 -50
30 -27 14 -50 23 -50 20z"/>
<path d="M327 1044 c-13 -13 -7 -42 9 -48 24 -9 26 -8 22 21 -3 26 -18 39 -31
27z"/>
<path d="M516 1038 c3 -4 9 -8 15 -8 5 0 9 4 9 8 0 5 -7 9 -15 9 -8 0 -12 -4
-9 -9z"/>
<path d="M581 1033 c-1 -18 19 -27 32 -13 9 10 8 12 -5 7 -9 -3 -19 -1 -22 6
-3 9 -5 9 -5 0z"/>
<path d="M800 1033 c0 -16 37 -40 75 -48 23 -4 19 -1 -13 13 -24 10 -48 25
-53 33 -6 9 -9 10 -9 2z"/>
<path d="M394 1015 c-7 -18 3 -35 22 -35 8 0 14 10 14 25 0 27 -27 35 -36 10z"/>
<path d="M467 1014 c-14 -15 -6 -42 14 -47 17 -5 20 -1 17 21 -3 26 -18 38
-31 26z"/>
<path d="M961 994 c-11 -14 -18 -31 -14 -37 3 -6 1 -7 -5 -3 -6 3 -16 -2 -22
-13 -13 -25 8 -42 22 -17 5 9 20 28 34 44 l26 27 -24 -44 c-30 -57 -57 -67
-109 -40 -23 11 -43 19 -45 17 -2 -2 22 -16 52 -31 31 -15 53 -23 49 -17 -3 5
2 10 12 10 26 1 75 69 71 99 -4 34 -22 36 -47 5z"/>
<path d="M534 985 c-7 -18 3 -35 22 -35 8 0 14 10 14 25 0 27 -27 35 -36 10z"/>
<path d="M627 984 c-14 -15 -6 -42 14 -47 17 -5 20 -1 17 21 -3 26 -18 38 -31
26z"/>
<path d="M320 958 c0 -4 6 -8 14 -8 8 0 17 4 20 8 2 4 -4 8 -15 8 -10 0 -19
-4 -19 -8z"/>
<path d="M391 958 c-1 -21 15 -32 25 -17 4 7 3 9 -4 5 -6 -3 -13 2 -15 11 -4
16 -5 16 -6 1z"/>
<path d="M460 943 c0 -19 21 -27 33 -13 9 10 9 11 -2 5 -8 -4 -17 -2 -22 6 -6
9 -9 10 -9 2z"/>
<path d="M341 918 c-6 -17 -5 -25 8 -30 28 -12 32 -9 29 19 -4 34 -26 41 -37
11z"/>
<path d="M530 923 c0 -19 21 -27 33 -13 9 10 9 11 -2 5 -8 -4 -17 -2 -22 6 -6
9 -9 10 -9 2z"/>
<path d="M419 910 c-1 -5 -2 -16 -3 -22 -2 -13 12 -28 27 -28 4 0 7 14 7 30 0
20 -5 30 -15 30 -8 0 -16 -4 -16 -10z"/>
<path d="M610 914 c0 -20 27 -37 36 -23 4 7 3 9 -4 5 -6 -3 -15 2 -21 11 -6
10 -11 13 -11 7z"/>
<path d="M800 914 c0 -16 14 -31 40 -43 24 -12 24 -11 5 4 -11 8 -26 23 -32
32 -7 9 -13 13 -13 7z"/>
<path d="M1052 885 c0 -16 2 -22 5 -12 2 9 2 23 0 30 -3 6 -5 -1 -5 -18z"/>
<path d="M497 894 c-13 -13 -7 -42 9 -48 24 -9 26 -8 22 21 -3 26 -18 39 -31
27z"/>
<path d="M577 874 c-16 -16 -7 -44 14 -44 15 0 20 5 17 22 -3 22 -19 33 -31
22z"/>
<path d="M966 839 c-19 -23 -33 -46 -30 -51 7 -11 37 15 65 54 32 44 3 41 -35
-3z"/>
<path d="M273 820 c0 -30 2 -43 4 -27 2 15 2 39 0 55 -2 15 -4 2 -4 -28z"/>
<path d="M336 846 c4 -11 1 -16 -11 -16 -11 0 -15 -5 -11 -16 3 -8 2 -12 -4
-9 -6 3 -10 2 -10 -3 0 -8 22 -22 36 -22 2 0 4 11 4 24 0 13 7 26 15 30 8 3
15 11 14 18 0 10 -2 10 -6 0 -4 -10 -8 -10 -19 -1 -12 10 -13 9 -8 -5z"/>
<path d="M881 849 c17 -11 39 -12 39 -1 0 4 -12 8 -27 9 -19 1 -22 -1 -12 -8z"/>
<path d="M1010 832 c0 -22 -36 -58 -65 -65 -19 -4 -19 -5 1 -6 40 -2 101 68
73 85 -5 3 -9 -3 -9 -14z"/>
<path d="M1062 830 c0 -14 4 -38 8 -55 7 -27 8 -27 8 -5 0 14 -4 39 -8 55 -7
27 -8 27 -8 5z"/>
<path d="M430 830 c-13 -8 -12 -10 3 -10 9 0 17 5 17 10 0 12 -1 12 -20 0z"/>
<path d="M500 806 c7 -7 13 -7 20 0 6 6 3 10 -10 10 -13 0 -16 -4 -10 -10z"/>
<path d="M570 814 c0 -20 27 -37 36 -23 4 7 3 9 -4 5 -6 -3 -15 2 -21 11 -6
10 -11 13 -11 7z"/>
<path d="M387 803 c-13 -13 -7 -31 13 -36 23 -6 33 5 24 27 -6 16 -25 21 -37
9z"/>
<path d="M472 788 c-17 -17 -15 -38 3 -38 25 0 30 4 27 20 -6 24 -17 31 -30
18z"/>
<path d="M830 795 c0 -2 23 -16 51 -30 28 -15 48 -31 46 -38 -5 -12 -9 -13
-42 -2 -14 4 -12 2 5 -9 33 -20 37 -20 50 4 9 17 4 23 -50 50 -33 17 -60 28
-60 25z"/>
<path d="M547 774 c-14 -15 -6 -42 14 -47 17 -5 20 -1 17 21 -3 26 -18 38 -31
26z"/>
<path d="M820 761 c0 -10 29 -36 34 -30 1 2 -6 12 -16 22 -10 9 -18 13 -18 8z"/>
<path d="M304 748 c4 -18 28 -16 34 2 4 13 3 13 -10 2 -11 -9 -18 -9 -21 -2
-3 6 -4 5 -3 -2z"/>
<path d="M627 754 c-14 -15 -6 -42 14 -47 17 -5 20 -1 17 21 -3 26 -18 38 -31
26z"/>
<path d="M390 726 c7 -7 13 -7 20 0 6 6 3 10 -10 10 -13 0 -16 -4 -10 -10z"/>
<path d="M981 696 c-55 -56 -37 -75 20 -20 25 24 39 33 39 23 0 -15 -31 -47
-66 -67 -14 -8 -15 -11 -4 -11 8 0 30 12 49 27 29 25 33 32 26 60 -3 18 -10
32 -14 32 -4 0 -26 -20 -50 -44z"/>
<path d="M1082 715 c0 -16 2 -22 5 -12 2 9 2 23 0 30 -3 6 -5 -1 -5 -18z"/>
<path d="M464 718 c4 -18 28 -16 34 2 4 13 3 13 -10 2 -11 -9 -18 -9 -21 -2
-3 6 -4 5 -3 -2z"/>
<path d="M340 705 c-14 -16 -5 -35 16 -35 15 0 20 35 5 44 -5 3 -14 -1 -21 -9z"/>
<path d="M416 684 c-10 -25 -7 -31 14 -37 21 -5 29 8 22 36 -5 21 -28 22 -36
1z"/>
<path d="M543 685 c2 -5 10 -10 17 -10 7 0 15 5 17 10 2 6 -6 11 -17 11 -11 0
-19 -5 -17 -11z"/>
<path d="M650 681 c0 -8 -7 -11 -15 -7 -8 3 -15 1 -15 -4 0 -6 6 -10 14 -10
17 0 31 18 22 27 -3 4 -6 1 -6 -6z"/>
<path d="M510 667 c0 -8 -3 -22 -6 -31 -4 -12 0 -16 15 -16 25 0 29 31 6 50
-12 10 -15 10 -15 -3z"/>
<path d="M1092 660 c0 -14 4 -38 8 -55 7 -27 8 -27 8 -5 0 14 -4 39 -8 55 -7
27 -8 27 -8 5z"/>
<path d="M840 665 c0 -7 101 -57 106 -53 2 2 -21 16 -51 31 -30 15 -55 25 -55
22z"/>
<path d="M332 635 c4 -23 29 -27 36 -6 3 9 0 11 -8 6 -7 -4 -16 -2 -22 6 -7
11 -8 9 -6 -6z"/>
<path d="M587 644 c-13 -13 -7 -42 9 -48 24 -9 26 -8 22 21 -3 26 -18 39 -31
27z"/>
<path d="M835 631 c10 -16 81 -51 102 -50 16 1 15 2 -2 8 -11 3 -40 17 -64 29
-23 13 -40 19 -36 13z"/>
<path d="M413 620 c4 -18 37 -27 37 -10 0 6 -5 8 -11 4 -6 -3 -16 0 -21 7 -8
12 -9 11 -5 -1z"/>
<path d="M995 565 c-38 -34 -45 -45 -30 -45 10 0 36 17 57 37 26 25 38 32 38
21 0 -21 -68 -80 -83 -72 -9 5 -9 4 0 -6 9 -10 17 -8 41 8 44 32 55 49 48 77
-4 14 -10 25 -14 25 -4 -1 -29 -21 -57 -45z"/>
<path d="M319 598 c-8 -39 -7 -46 12 -51 17 -5 20 -1 17 21 -2 14 -9 27 -15
30 -7 2 -13 2 -14 0z"/>
<path d="M500 593 c0 -19 21 -27 33 -13 9 10 9 11 -2 5 -8 -4 -17 -2 -22 6 -6
9 -9 10 -9 2z"/>
<path d="M395 571 c-3 -6 -3 -15 0 -21 3 -5 0 -10 -7 -11 -7 0 -4 -4 7 -9 32
-14 37 -12 33 17 -3 28 -22 41 -33 24z"/>
<path d="M605 571 c-3 -6 -12 -8 -18 -5 -8 5 -8 3 1 -7 9 -10 15 -10 24 -1 6
6 9 14 6 17 -3 4 -9 1 -13 -4z"/>
<path d="M1112 550 c0 -14 4 -38 8 -55 7 -27 8 -27 8 -5 0 14 -4 39 -8 55 -7
27 -8 27 -8 5z"/>
<path d="M474 546 c-9 -22 2 -46 21 -46 12 0 15 8 13 27 -3 30 -25 42 -34 19z"/>
<path d="M874 523 c43 -23 96 -44 96 -38 0 6 -108 55 -119 55 -3 -1 7 -8 23
-17z"/>
<path d="M557 524 c-10 -11 -9 -44 2 -44 5 0 17 -3 26 -6 13 -6 16 -1 13 22
-3 27 -26 43 -41 28z"/>
<path d="M329 503 c-13 -16 -12 -17 4 -4 16 13 21 21 13 21 -2 0 -10 -8 -17
-17z"/>
<path d="M830 513 c0 -14 90 -63 115 -63 8 0 15 5 15 11 0 5 -4 8 -9 5 -11 -7
-103 31 -113 47 -6 9 -8 9 -8 0z"/>
<path d="M384 490 c2 -22 32 -24 40 -3 6 14 5 16 -5 6 -7 -7 -16 -13 -20 -13
-4 0 -9 6 -12 13 -2 7 -3 6 -3 -3z"/>
<path d="M637 491 c-6 -22 0 -31 20 -31 9 0 13 8 11 22 -4 28 -24 34 -31 9z"/>
<path d="M1049 487 c-64 -49 -87 -76 -82 -96 8 -31 35 -25 76 17 24 25 37 47
37 65 0 30 -7 33 -31 14z m-17 -69 c-23 -23 -44 -39 -48 -35 -8 7 78 88 86 81
2 -3 -15 -23 -38 -46z"/>
<path d="M492 464 c-7 -8 -8 -14 -3 -14 10 0 25 19 20 25 -2 1 -10 -3 -17 -11z"/>
<path d="M1131 444 c0 -11 3 -14 6 -6 3 7 2 16 -1 19 -3 4 -6 -2 -5 -13z"/>
<path d="M579 433 c-13 -16 -12 -17 4 -4 16 13 21 21 13 21 -2 0 -10 -8 -17
-17z"/>
<path d="M661 417 c-13 -21 -12 -21 5 -5 10 10 16 20 13 22 -3 3 -11 -5 -18
-17z"/>
<path d="M545 275 c17 -8 37 -14 45 -14 8 0 -1 7 -20 14 -46 18 -64 17 -25 0z"/>
<path d="M462 1525 c-7 -14 -12 -31 -12 -38 1 -7 7 3 16 22 17 39 13 54 -4 16z"/>
<path d="M811 1354 c0 -11 3 -14 6 -6 3 7 2 16 -1 19 -3 4 -6 -2 -5 -13z"/>
<path d="M850 1354 c0 -8 5 -12 10 -9 6 3 10 1 10 -6 0 -7 2 -10 5 -7 8 7 -5
38 -16 38 -5 0 -9 -7 -9 -16z"/>
<path d="M3078 1653 c17 -2 47 -2 65 0 17 2 3 4 -33 4 -36 0 -50 -2 -32 -4z"/>
<path d="M3008 1643 c6 -2 18 -2 25 0 6 3 1 5 -13 5 -14 0 -19 -2 -12 -5z"/>
<path d="M2953 1633 c9 -2 23 -2 30 0 6 3 -1 5 -18 5 -16 0 -22 -2 -12 -5z"/>
<path d="M1566 1609 c-14 -11 -33 -34 -42 -51 l-16 -30 -156 7 c-110 5 -166 3
-187 -5 -80 -30 -99 -97 -45 -152 29 -29 32 -29 107 -26 43 3 125 13 182 23
102 19 105 19 115 0 41 -72 112 -88 154 -34 13 16 26 44 28 62 5 31 4 31 -15
-9 -20 -43 -54 -74 -82 -74 -9 0 -27 9 -40 19 l-24 19 28 -1 c15 -1 27 -5 27
-9 0 -20 28 7 43 42 21 50 22 112 2 150 -18 35 -37 38 -72 10 -14 -11 -32 -20
-40 -20 -11 0 -11 4 1 28 8 16 21 34 28 40 18 14 101 26 93 13 -6 -10 11 -24
34 -27 8 -2 4 7 -10 22 -28 30 -77 32 -113 3z m68 -71 c9 -12 16 -41 15 -63
l-1 -40 -9 39 c-5 22 -16 47 -24 56 -17 19 -19 30 -6 30 6 0 17 -10 25 -22z
m-4 -77 c7 -39 7 -58 -1 -68 -7 -7 -14 -11 -17 -8 -3 2 1 11 7 19 26 31 3 36
-152 29 -84 -4 -190 -7 -237 -7 -79 -1 -86 1 -95 22 -12 27 -25 29 -25 3 0
-34 12 -53 44 -67 24 -10 26 -13 10 -14 -11 0 -31 11 -43 24 -31 33 -26 82 12
110 26 19 39 21 140 17 251 -8 275 -7 294 12 17 16 18 16 35 -1 10 -9 22 -41
28 -71z m-421 -61 c-6 -5 -18 -6 -26 -3 -19 8 -16 11 13 11 17 0 22 -3 13 -8z
m279 3 c-16 -2 -40 -2 -55 0 -16 2 -3 4 27 4 30 0 43 -2 28 -4z m-101 -9 c-3
-3 -12 -4 -19 -1 -8 3 -5 6 6 6 11 1 17 -2 13 -5z m-154 -21 c-7 -2 -21 -2
-30 0 -10 3 -4 5 12 5 17 0 24 -2 18 -5z"/>
<path d="M1687 1553 c3 -7 6 -13 8 -13 2 0 5 6 8 13 3 8 -1 14 -8 14 -7 0 -11
-6 -8 -14z"/>
<path d="M1706 1535 c-3 -9 -6 -22 -5 -28 0 -7 5 -1 10 12 5 13 8 26 5 28 -2
2 -6 -3 -10 -12z"/>
<path d="M3681 1454 c0 -11 3 -14 6 -6 3 7 2 16 -1 19 -3 4 -6 -2 -5 -13z"/>
<path d="M3250 1412 c-99 -50 -137 -74 -344 -217 -68 -47 -130 -85 -138 -85
-7 0 -31 -12 -53 -25 -55 -34 -145 -34 -241 -1 -84 30 -203 60 -304 77 -108
19 -354 17 -468 -5 -199 -36 -360 -118 -417 -211 -27 -44 -30 -57 -29 -124 2
-92 50 -270 96 -349 44 -78 111 -136 213 -187 164 -82 332 -115 577 -115 228
1 449 71 533 171 36 44 171 326 180 377 8 48 -7 110 -36 146 -11 14 -19 32
-17 40 5 21 97 96 119 96 11 0 37 19 57 41 74 83 205 162 382 229 78 30 98 42
113 68 25 43 16 75 -25 95 -72 34 -96 31 -198 -21z m175 13 c43 -17 51 -36 35
-75 -8 -20 -24 -33 -53 -43 -79 -28 -82 -27 -21 2 41 19 63 36 67 51 5 20 3
22 -24 16 -72 -14 -311 -139 -486 -253 l-81 -54 -31 19 -31 19 181 123 c184
123 343 210 386 210 13 0 39 -7 58 -15z m-156 -159 c-10 -9 -69 -36 -69 -32 0
7 52 35 64 36 5 0 7 -2 5 -4z m-79 -40 c0 -2 -37 -25 -82 -51 -46 -27 -94 -55
-108 -64 -23 -13 -24 -13 -10 1 12 13 188 118 197 118 2 0 3 -2 3 -4z m-960
-92 c52 -9 145 -31 205 -49 61 -18 136 -36 168 -40 53 -6 63 -4 112 24 54 30
55 31 94 15 22 -8 42 -21 44 -29 7 -17 -9 -85 -23 -99 -8 -8 -9 -4 -1 17 17
44 14 68 -6 60 -38 -14 -71 -44 -76 -70 -4 -21 2 -41 27 -78 50 -75 56 -89 56
-140 0 -62 -19 -104 -71 -154 -175 -168 -637 -221 -1027 -116 -205 55 -390
172 -443 281 -88 183 139 356 526 398 76 8 320 -4 415 -20z m581 -127 c-6 -8
-7 -18 -3 -22 4 -5 1 -5 -6 -1 -7 4 -21 2 -30 -4 -9 -7 -4 -1 11 14 30 27 47
35 28 13z m-1461 -402 c0 -16 2 -17 9 -6 7 11 12 3 21 -29 6 -24 9 -51 7 -61
-3 -11 -1 -17 4 -13 5 3 9 -3 9 -12 0 -10 2 -15 5 -12 3 3 -1 35 -9 72 l-14
66 23 -22 c12 -13 27 -32 33 -43 l11 -20 1 20 c1 18 2 17 15 -5 13 -22 14 -23
15 -5 1 19 2 19 14 3 7 -10 15 -15 19 -12 3 3 20 -2 38 -11 83 -44 243 -87
384 -105 50 -6 101 -14 115 -16 56 -10 286 -3 340 11 14 4 39 8 57 10 31 3 32
2 26 -29 -3 -17 -12 -44 -19 -61 l-13 -30 4 30 c4 23 1 20 -11 -12 -21 -58
-36 -55 -18 4 8 25 14 53 13 62 0 9 -6 -4 -13 -29 -15 -54 -33 -90 -46 -90 -5
0 -7 8 -4 18 4 11 -1 8 -15 -8 -19 -23 -21 -23 -21 -5 -1 18 -1 19 -11 3 -16
-29 -29 -21 -24 14 4 31 4 31 -7 -4 -14 -47 -29 -50 -23 -5 l5 32 -10 -32
c-11 -33 -30 -54 -30 -32 0 10 -3 10 -12 1 -23 -23 -38 -14 -33 21 l5 32 -10
-33 c-12 -35 -49 -46 -51 -14 -1 16 -2 16 -6 0 -5 -18 -13 -20 -108 -20 l-50
1 40 -9 c91 -20 257 -7 410 31 90 23 117 43 141 106 9 24 19 41 21 39 3 -2 -5
-25 -16 -51 -12 -28 -16 -45 -9 -43 7 3 25 37 41 77 16 39 32 70 34 67 2 -2
-7 -32 -21 -67 -14 -35 -19 -56 -12 -46 8 10 17 18 20 18 20 -3 26 0 21 9 -3
5 -1 18 5 27 9 15 10 14 4 -7 -12 -46 15 -7 49 71 32 73 48 92 56 68 2 -7 -1
-9 -8 -5 -6 4 -9 2 -5 -7 7 -20 -29 -99 -66 -140 -117 -133 -454 -199 -775
-152 -123 18 -293 71 -370 115 -92 53 -168 148 -194 246 -12 45 -5 87 10 62 5
-7 9 -22 9 -33z m1169 -219 c-6 -26 -13 -45 -16 -43 -2 3 1 26 8 51 6 26 13
45 16 43 2 -3 -1 -26 -8 -51z m26 -6 c-22 -67 -29 -60 -9 9 9 29 18 50 21 47
3 -2 -3 -28 -12 -56z m-51 -4 c-3 -15 -8 -25 -11 -23 -2 3 -1 17 3 31 3 15 8
25 11 23 2 -3 1 -17 -3 -31z"/>
<path d="M3292 1391 c-73 -54 -67 -64 19 -29 70 28 84 38 67 49 -23 15 -44 10
-86 -20z m73 9 c-3 -5 -14 -10 -23 -10 -15 0 -15 2 -2 10 20 13 33 13 25 0z"/>
<path d="M1455 1031 c-135 -78 -184 -187 -130 -290 24 -48 129 -135 206 -173
157 -76 330 -116 550 -125 403 -17 729 120 729 308 0 43 -41 127 -77 160 l-27
24 25 -33 c59 -81 59 -83 43 -115 -9 -16 -13 -35 -10 -43 4 -10 2 -12 -6 -8
-8 5 -9 2 -5 -10 5 -11 3 -15 -5 -10 -8 5 -9 2 -5 -9 3 -10 3 -17 -2 -17 -4 0
-13 -10 -20 -22 -11 -22 -11 -21 -6 5 4 20 2 27 -6 22 -8 -5 -9 0 -5 16 l6 24
-11 -22 c-15 -29 -21 -29 -57 2 -88 74 -339 147 -547 160 -22 1 -43 3 -47 4
-4 0 -9 20 -11 44 l-4 42 -1 -41 -2 -41 -117 -7 c-65 -4 -136 -12 -158 -16
-34 -8 -30 -8 20 -4 117 10 351 7 430 -5 175 -27 354 -88 431 -146 18 -14 42
-41 54 -60 28 -45 21 -55 -69 -99 -110 -54 -258 -85 -431 -90 -199 -6 -351 15
-520 71 -142 47 -268 118 -269 152 -1 15 65 81 80 81 6 0 8 -3 6 -7 -3 -5 5
-8 18 -8 13 0 21 4 18 9 -3 5 0 6 8 4 8 -3 43 5 79 18 36 12 76 23 90 23 14 0
43 3 65 6 160 22 332 20 500 -5 33 -5 83 -11 110 -14 l50 -4 -45 14 c-84 26
-214 45 -360 51 -176 7 -336 -13 -449 -57 -85 -33 -112 -32 -32 1 28 12 50 23
48 25 -8 9 -76 -21 -129 -57 -52 -33 -59 -36 -68 -21 -9 14 -10 12 -4 -8 4
-18 3 -22 -5 -15 -16 15 -43 156 -36 191 7 38 53 84 125 123 30 17 51 31 45
31 -5 0 -32 -13 -60 -29z m1300 -370 c-21 -43 -29 -39 -8 4 9 19 18 33 21 31
2 -2 -4 -18 -13 -35z"/>
<path d="M2152 990 c0 -14 2 -19 5 -12 2 6 2 18 0 25 -3 6 -5 1 -5 -13z"/>
<path d="M2171 944 c0 -11 3 -14 6 -6 3 7 2 16 -1 19 -3 4 -6 -2 -5 -13z"/>
<path d="M1352 880 c0 -14 2 -19 5 -12 2 6 2 18 0 25 -3 6 -5 1 -5 -13z"/>
<path d="M1391 884 c0 -11 3 -14 6 -6 3 7 2 16 -1 19 -3 4 -6 -2 -5 -13z"/>
<path d="M1362 830 c0 -14 2 -19 5 -12 2 6 2 18 0 25 -3 6 -5 1 -5 -13z"/>
<path d="M1401 834 c0 -11 3 -14 6 -6 3 7 2 16 -1 19 -3 4 -6 -2 -5 -13z"/>
<path d="M1371 784 c0 -11 3 -14 6 -6 3 7 2 16 -1 19 -3 4 -6 -2 -5 -13z"/>
<path d="M1391 784 c0 -11 3 -14 6 -6 3 7 2 16 -1 19 -3 4 -6 -2 -5 -13z"/>
<path d="M2280 760 c-8 -5 -10 -10 -5 -10 6 0 17 5 25 10 8 5 11 10 5 10 -5 0
-17 -5 -25 -10z"/>
<path d="M2230 740 c-8 -5 -10 -10 -5 -10 6 0 17 5 25 10 8 5 11 10 5 10 -5 0
-17 -5 -25 -10z"/>
<path d="M2160 710 c-8 -5 -10 -10 -5 -10 6 0 17 5 25 10 8 5 11 10 5 10 -5 0
-17 -5 -25 -10z"/>
<path d="M1361 564 c0 -11 3 -14 6 -6 3 7 2 16 -1 19 -3 4 -6 -2 -5 -13z"/>
<path d="M1411 544 c0 -11 3 -14 6 -6 3 7 2 16 -1 19 -3 4 -6 -2 -5 -13z"/>
<path d="M1371 524 c0 -11 3 -14 6 -6 3 7 2 16 -1 19 -3 4 -6 -2 -5 -13z"/>
<path d="M1422 500 c0 -14 2 -19 5 -12 2 6 2 18 0 25 -3 6 -5 1 -5 -13z"/>
<path d="M1512 490 c0 -14 2 -19 5 -12 2 6 2 18 0 25 -3 6 -5 1 -5 -13z"/>
<path d="M1482 475 c0 -16 2 -22 5 -12 2 9 2 23 0 30 -3 6 -5 -1 -5 -18z"/>
<path d="M1451 474 c0 -11 3 -14 6 -6 3 7 2 16 -1 19 -3 4 -6 -2 -5 -13z"/>
<path d="M1431 454 c0 -11 3 -14 6 -6 3 7 2 16 -1 19 -3 4 -6 -2 -5 -13z"/>
<path d="M1461 432 c-2 -45 94 -108 229 -150 59 -18 177 -40 140 -26 -8 3 -22
8 -30 11 -8 3 -24 8 -35 10 -11 2 -26 11 -32 20 -8 10 -13 12 -13 5 0 -10 -5
-10 -22 0 -13 6 -29 13 -37 14 -21 4 -32 19 -42 56 l-8 33 3 -33 c4 -45 -22
-39 -41 8 -11 31 -13 31 -9 7 6 -44 -17 -27 -32 24 -12 43 -12 43 -8 7 6 -47
-10 -50 -23 -5 -8 28 -9 29 -10 8 -1 -28 -16 -19 -24 14 -4 18 -5 17 -6 -3z"/>
<path d="M2451 374 c0 -11 3 -14 6 -6 3 7 2 16 -1 19 -3 4 -6 -2 -5 -13z"/>
<path d="M2272 355 c0 -16 2 -22 5 -12 2 9 2 23 0 30 -3 6 -5 -1 -5 -18z"/>
<path d="M2301 334 c0 -11 3 -14 6 -6 3 7 2 16 -1 19 -3 4 -6 -2 -5 -13z"/>
<path d="M2460 1420 c-118 -10 -264 -20 -325 -24 -171 -10 -358 -28 -380 -37
-29 -11 53 -11 150 1 44 5 204 19 355 30 307 22 482 39 489 46 7 7 -57 3 -289
-16z"/>
<path d="M5657 1271 c-54 -8 -70 -23 -63 -63 4 -22 0 -30 -22 -40 -31 -15 -40
-49 -17 -68 19 -16 19 -33 0 -70 l-16 -30 -115 0 c-169 0 -283 -29 -346 -88
-23 -21 -28 -34 -28 -73 0 -26 4 -50 9 -53 5 -4 7 4 3 16 -5 21 -2 20 26 -9
54 -53 190 -84 365 -81 l122 1 -150 8 c-82 4 -172 13 -200 21 -102 30 -165 75
-165 117 0 19 3 22 9 12 7 -11 10 -9 13 10 4 29 54 64 122 85 66 22 326 32
326 14 0 -13 -101 -187 -129 -221 -16 -20 -18 -20 -89 -4 -43 10 -76 23 -82
33 -5 9 -10 13 -10 9 0 -14 -40 14 -40 28 0 8 -5 15 -11 15 -5 0 -7 -6 -3 -12
4 -8 3 -10 -2 -5 -5 5 -9 14 -9 20 -1 7 -6 11 -13 9 -26 -5 -10 38 26 68 25
22 29 28 12 20 -42 -21 -60 -42 -60 -69 0 -32 5 -39 50 -72 62 -46 140 -64
280 -63 88 1 137 6 165 17 22 9 33 16 25 16 -9 1 -11 4 -5 9 6 4 21 30 34 59
13 29 28 50 33 47 14 -9 9 -58 -9 -83 -12 -18 -13 -22 -2 -16 53 30 64 70 28
106 -16 16 -18 23 -8 35 10 13 15 12 38 -2 14 -9 34 -26 43 -38 10 -11 18 -16
18 -9 0 16 -59 60 -98 74 -18 6 -32 17 -32 24 0 28 13 45 34 45 12 0 27 5 34
12 15 15 16 50 1 65 -8 8 -5 13 10 18 42 13 43 50 2 115 -5 8 -12 23 -15 33
-3 9 -10 17 -15 17 -6 0 -8 -7 -5 -15 5 -11 2 -13 -10 -9 -9 3 -13 10 -10 15
3 5 4 8 2 8 -2 -1 -25 -5 -51 -8z m42 -24 c20 -7 35 -20 37 -31 2 -14 0 -16
-9 -7 -19 19 -31 12 -14 -7 10 -10 15 -21 12 -24 -3 -3 1 -11 10 -18 12 -10
18 -10 30 0 12 10 15 9 15 -4 0 -24 -30 -33 -42 -13 -5 10 -14 17 -20 17 -7 0
-7 -4 1 -14 8 -9 -7 -7 -43 8 -34 13 -47 22 -36 24 11 2 29 -2 40 -8 12 -6 24
-9 27 -7 8 8 -30 25 -63 29 -34 4 -49 36 -25 55 20 15 36 15 80 0z m-19 -107
c44 -22 71 -59 42 -55 -9 1 -34 9 -56 19 -21 9 -50 15 -65 13 -24 -4 -23 -4 5
-6 18 0 42 -10 55 -21 l24 -20 -33 16 c-19 9 -43 13 -57 10 -18 -5 -27 -1 -35
15 -26 48 48 66 120 29z m-39 -60 c15 -9 17 -15 9 -31 -6 -10 -10 -25 -9 -32
4 -23 -13 -67 -24 -60 -6 4 -7 1 -3 -6 5 -7 -1 -38 -12 -69 -11 -31 -24 -73
-29 -92 -5 -20 -15 -35 -23 -35 -8 0 -19 -3 -25 -6 -14 -8 -115 -12 -115 -4 0
3 13 25 28 48 42 61 105 175 127 227 31 73 39 79 76 60z m-22 -239 c-12 -44
-26 -81 -30 -81 -4 0 3 35 17 78 13 42 24 81 24 86 0 5 2 7 5 4 3 -3 -4 -42
-16 -87z"/>
<path d="M5546 795 c-9 -26 -7 -32 5 -12 6 10 9 21 6 23 -2 3 -7 -2 -11 -11z"/>
<path d="M3490 1180 c-19 -4 15 -5 75 -3 146 7 228 -7 274 -47 62 -52 115 -79
195 -99 85 -21 91 -24 81 -40 -9 -16 -36 -14 -148 15 -67 17 -145 28 -227 32
-125 7 -339 0 -395 -12 -28 -6 -28 -6 -5 4 13 6 56 15 95 19 62 8 65 8 20 9
-76 0 -149 -19 -153 -42 -3 -15 0 -17 20 -10 12 4 120 7 238 7 184 0 230 -3
315 -22 55 -12 127 -27 160 -32 98 -16 104 -18 125 -42 19 -19 32 -22 108 -23
76 -1 107 -8 242 -52 187 -60 261 -76 336 -70 44 4 62 10 76 28 22 27 23 78 2
108 -16 23 -64 52 -86 52 -7 -1 2 -7 20 -15 30 -13 47 -33 19 -22 -7 3 -19 -4
-25 -14 -7 -10 -23 -19 -36 -19 -21 0 -226 36 -316 55 -25 6 -25 5 -2 -5 36
-16 271 -60 319 -60 30 0 45 5 50 16 3 8 12 13 20 10 8 -3 11 -1 8 4 -3 6 -2
10 3 10 11 0 32 -45 32 -71 0 -11 -4 -18 -9 -14 -5 3 -13 0 -17 -6 -4 -8 -3
-9 4 -5 7 4 12 2 12 -4 0 -6 -17 -18 -37 -27 -33 -14 -48 -14 -111 -4 -40 7
-91 19 -115 27 -49 16 -23 13 87 -11 65 -14 86 -15 119 -5 21 6 36 14 33 17
-3 3 0 15 6 27 10 19 9 19 -5 8 -9 -8 -46 -13 -99 -14 -71 -1 -105 5 -238 44
-85 26 -182 51 -215 57 -33 6 -71 13 -85 15 -14 3 4 3 40 2 66 -4 55 6 -23 19
-48 8 -49 38 -2 43 24 2 27 1 15 -9 -13 -9 -12 -10 4 -5 17 6 115 -7 156 -21
8 -2 69 -6 135 -7 66 -2 147 -6 180 -9 51 -5 49 -4 -20 8 -44 8 -143 19 -220
25 -151 11 -221 23 -245 45 -8 7 -27 15 -41 16 -23 3 -42 -2 -99 -31 -8 -4
-53 1 -99 12 -82 17 -105 29 -194 97 -21 16 -60 34 -88 40 -55 12 -214 13
-269 1z m780 -141 c0 -5 -6 -9 -14 -9 -35 0 -56 -91 -26 -111 10 -5 11 -9 3
-9 -16 0 -33 32 -33 64 0 29 -26 27 -33 -2 -3 -12 -5 -10 -6 6 -2 42 25 70 69
70 22 1 40 -3 40 -9z m-116 -21 c-4 -6 -11 -25 -15 -42 -7 -30 -7 -30 -8 -4
-1 32 8 58 21 58 5 0 6 -5 2 -12z m251 -118 c13 -6 15 -9 5 -9 -8 0 -22 4 -30
9 -18 12 -2 12 25 0z"/>
<path d="M3381 1161 c-14 -4 -27 -13 -29 -20 -3 -10 6 -12 44 -7 138 19 337 3
364 -29 19 -23 -7 -30 -135 -36 l-120 -5 122 -2 c75 -1 132 2 147 10 33 14 43
45 22 67 -14 14 -44 16 -208 16 -106 0 -179 3 -163 6 27 6 27 7 5 7 -14 0 -36
-3 -49 -7z m403 -37 c5 -14 4 -15 -9 -4 -17 14 -19 20 -6 20 5 0 12 -7 15 -16z"/>
<path d="M3126 911 c-10 -11 -16 -30 -14 -42 6 -43 126 -114 225 -134 15 -3
-6 7 -47 23 -76 29 -153 72 -165 92 -11 19 4 58 25 65 11 3 75 -7 143 -24 68
-16 202 -41 298 -56 230 -33 459 -74 486 -85 14 -6 25 -6 28 0 3 5 -4 12 -17
14 -84 19 -206 40 -433 75 -143 22 -307 52 -365 66 -126 30 -142 31 -164 6z"/>
<path d="M3230 850 c19 -11 42 -19 50 -19 8 0 -5 8 -29 19 -55 25 -67 25 -21
0z"/>
<path d="M4688 863 c7 -3 16 -2 19 1 4 3 -2 6 -13 5 -11 0 -14 -3 -6 -6z"/>
<path d="M4850 860 l-25 -8 27 -1 c15 -1 30 4 33 9 7 11 0 11 -35 0z"/>
<path d="M4728 853 c7 -3 16 -2 19 1 4 3 -2 6 -13 5 -11 0 -14 -3 -6 -6z"/>
<path d="M5806 835 c-9 -35 -69 -72 -156 -94 -41 -11 -64 -20 -50 -20 14 0 57
10 95 23 84 29 100 27 22 -3 -88 -32 -233 -56 -324 -53 -92 3 -210 30 -272 61
-53 27 -54 27 -17 -12 39 -42 63 -108 77 -216 l11 -84 -25 -19 c-50 -37 -43
-128 14 -169 16 -11 29 -16 29 -11 0 6 10 8 23 6 13 -3 8 3 -16 16 -66 36 -90
99 -53 138 10 11 12 10 11 -5 0 -10 -3 -23 -6 -28 -3 -6 -4 -16 -3 -22 1 -7 2
-18 3 -24 0 -6 7 -9 15 -6 8 3 16 1 18 -4 4 -11 103 -50 123 -48 5 0 -7 7 -28
14 -41 15 -99 53 -62 41 16 -6 15 -2 -7 19 -16 14 -28 33 -28 41 0 10 9 5 25
-15 37 -43 111 -65 220 -65 100 0 80 -13 -25 -16 -36 -2 -54 -5 -40 -8 24 -4
24 -5 5 -13 -13 -6 14 -7 73 -4 51 3 103 10 115 16 16 9 22 9 25 0 7 -21 41
-11 78 21 32 28 35 29 25 10 -7 -14 -42 -37 -79 -55 -63 -30 -74 -32 -184 -32
-64 0 -111 -4 -105 -8 7 -5 -8 -6 -33 -3 -38 4 -42 3 -25 -7 13 -8 69 -12 156
-12 136 0 136 0 205 35 57 29 71 41 82 72 18 46 9 83 -27 115 l-27 24 18 92
c30 155 37 175 73 197 34 21 50 48 60 104 8 41 1 49 -9 11z m-593 -158 c3 2
31 -3 63 -13 39 -11 99 -17 188 -18 106 -1 132 -4 138 -16 5 -12 7 -12 7 3 1
9 6 17 11 17 12 0 5 -95 -9 -132 l-10 -23 -2 25 c-1 21 -2 22 -6 5 -2 -11 -9
-36 -15 -55 -10 -31 -12 -32 -20 -15 -5 14 -6 9 -2 -14 4 -20 2 -31 -3 -28 -6
4 -8 -4 -5 -20 l5 -26 13 29 14 29 -5 -27 c-13 -70 -102 -106 -213 -87 -67 12
-113 36 -137 72 -8 13 -20 62 -26 108 -5 46 -18 109 -28 141 l-19 56 28 -8
c16 -5 31 -6 33 -3z m284 -11 c9 -9 -116 -6 -162 4 -30 6 -14 7 58 5 54 -1
101 -6 104 -9z"/>
<path d="M4768 843 c7 -3 16 -2 19 1 4 3 -2 6 -13 5 -11 0 -14 -3 -6 -6z"/>
<path d="M3335 815 c22 -8 49 -13 60 -13 11 0 -2 6 -30 14 -63 17 -84 16 -30
-1z"/>
<path d="M3433 793 c9 -2 23 -2 30 0 6 3 -1 5 -18 5 -16 0 -22 -2 -12 -5z"/>
<path d="M3488 783 c6 -2 18 -2 25 0 6 3 1 5 -13 5 -14 0 -19 -2 -12 -5z"/>
<path d="M4150 777 c-27 -13 -30 -19 -37 -84 -6 -48 -22 -48 -24 0 -2 32 -2
32 -6 3 -3 -15 -13 -42 -24 -60 -21 -34 -24 -46 -11 -46 5 0 14 11 20 25 14
30 36 32 59 5 19 -21 63 -26 93 -10 13 7 67 -4 205 -41 287 -76 378 -85 419
-40 23 25 23 73 2 106 -36 56 -155 84 -451 107 -125 10 -152 15 -163 30 -15
20 -45 22 -82 5z m47 -24 c0 -15 -2 -21 -7 -14 -18 30 -27 -58 -10 -103 7 -20
6 -24 -5 -19 -8 3 -15 14 -15 24 0 10 -7 19 -15 19 -24 0 -20 75 5 100 27 27
45 25 47 -7z m336 -39 c190 -21 261 -39 292 -76 26 -30 33 -72 15 -83 -7 -4
-9 2 -5 17 4 17 0 32 -15 49 -20 23 -21 23 -10 2 13 -28 4 -30 -18 -5 -10 10
-14 13 -9 6 15 -23 -21 -37 -76 -30 -94 12 -236 45 -269 62 -44 22 -45 24 -28
34 13 8 12 10 -2 10 -9 0 -19 -4 -22 -9 -10 -16 20 -41 72 -60 42 -14 49 -19
33 -24 -25 -6 -61 2 -61 14 0 5 -15 9 -33 9 -19 0 -48 7 -65 16 -18 8 -54 16
-80 17 -45 2 -49 4 -47 27 3 37 3 38 23 43 24 6 153 -2 305 -19z m-198 -89
c54 -17 33 -18 -30 -1 -27 8 -41 14 -30 14 11 0 38 -5 60 -13z m252 -39 c37
-8 95 -17 128 -22 33 -4 50 -9 38 -12 -23 -3 -253 37 -253 44 0 6 15 5 87 -10z
m73 -36 c76 -15 88 -19 45 -15 -54 5 -184 32 -160 34 6 0 57 -9 115 -19z m140
-20 c0 -5 -5 -10 -11 -10 -5 0 -7 5 -4 10 3 6 8 10 11 10 2 0 4 -4 4 -10z"/>
<path d="M4230 720 c-12 -8 -11 -10 7 -10 12 0 25 5 28 10 8 13 -15 13 -35 0z"/>
<path d="M4470 703 c14 -3 30 -8 35 -13 6 -4 28 -4 50 0 l40 8 -40 1 c-22 1
-56 3 -75 5 -19 2 -24 1 -10 -1z"/>
<path d="M3558 773 c6 -2 18 -2 25 0 6 3 1 5 -13 5 -14 0 -19 -2 -12 -5z"/>
<path d="M3613 763 c9 -2 23 -2 30 0 6 3 -1 5 -18 5 -16 0 -22 -2 -12 -5z"/>
<path d="M3405 715 c22 -8 49 -13 60 -13 11 0 -2 6 -30 14 -63 17 -84 16 -30
-1z"/>
<path d="M3505 691 c11 -5 40 -11 65 -15 30 -4 36 -3 20 3 -37 12 -109 22 -85
12z"/>
<path d="M4003 664 c16 -31 13 -47 -13 -57 -9 -3 -4 -6 13 -6 23 -1 27 3 27
27 0 17 -9 37 -21 48 l-22 19 16 -31z"/>
<path d="M3638 663 c6 -2 18 -2 25 0 6 3 1 5 -13 5 -14 0 -19 -2 -12 -5z"/>
<path d="M3693 653 c9 -2 23 -2 30 0 6 3 -1 5 -18 5 -16 0 -22 -2 -12 -5z"/>
<path d="M3753 643 c9 -2 25 -2 35 0 9 3 1 5 -18 5 -19 0 -27 -2 -17 -5z"/>
<path d="M3253 629 c-70 -9 -140 -37 -164 -65 -9 -10 -19 -32 -21 -49 -3 -16
-8 -39 -13 -50 -5 -16 -5 -17 4 -5 9 13 11 12 11 -3 0 -10 -5 -38 -11 -61 -29
-116 89 -176 320 -162 144 8 266 29 391 67 167 49 270 70 270 53 0 -17 31 -34
64 -34 14 0 28 -5 31 -10 4 -7 23 -8 49 -5 26 4 83 -1 151 -14 175 -34 335
-40 335 -13 0 4 -38 8 -84 8 -103 2 -189 14 -163 23 10 4 -36 12 -102 19 -66
6 -127 9 -135 6 -13 -5 -16 2 -16 39 l0 45 68 -5 c37 -2 107 -11 156 -19 49
-8 112 -13 140 -12 l51 1 -45 7 c-38 6 -31 7 41 8 59 2 90 -2 97 -11 14 -17
20 -97 7 -97 -19 -1 46 -50 66 -50 11 0 32 12 47 27 18 19 38 28 62 28 31 1
34 4 35 30 0 15 -6 29 -13 31 -7 1 -8 0 -2 -3 5 -2 10 -9 10 -14 0 -6 -4 -7
-10 -4 -6 3 -7 -1 -4 -9 4 -11 0 -16 -15 -16 -12 0 -21 5 -21 10 0 6 6 10 13
10 8 0 7 4 -3 10 -12 8 -12 10 -1 10 8 0 11 3 8 6 -4 4 -13 1 -22 -6 -13 -10
-15 -9 -15 7 0 10 -7 29 -16 42 -14 19 -22 22 -53 16 -54 -9 -81 -9 -127 4
-23 6 -122 13 -220 15 -99 2 -192 9 -207 15 -19 7 -34 8 -47 1 -10 -5 -32 -10
-49 -10 -16 0 -36 -7 -45 -15 -8 -8 -21 -15 -29 -15 -8 0 -84 33 -168 74 -85
41 -189 86 -232 100 -126 41 -269 59 -374 45z m254 -25 c42 -8 101 -25 132
-36 73 -26 292 -130 287 -135 -2 -3 -55 18 -118 45 -221 98 -337 126 -490 120
-90 -3 -111 -8 -163 -34 -33 -16 -61 -37 -63 -47 -2 -9 1 -17 7 -17 6 0 10 6
9 13 -2 6 24 25 57 42 112 56 291 45 503 -31 40 -15 71 -28 69 -30 -2 -2 -30
5 -62 16 -107 37 -221 53 -335 47 -114 -6 -213 -28 -172 -39 13 -4 20 -2 16 4
-4 7 5 8 26 3 21 -5 30 -4 26 3 -20 33 376 -30 549 -88 98 -32 95 -32 -107 4
-267 49 -451 56 -529 22 -11 -5 -26 1 -44 17 -50 42 -15 90 89 123 57 18 222
17 313 -2z m20 -69 c80 -15 316 -85 309 -92 -2 -2 -41 7 -88 21 -130 38 -279
67 -381 76 l-92 7 87 2 c47 0 122 -6 165 -14z m-374 -81 c94 -4 336 -25 392
-34 33 -5 101 -11 150 -14 110 -7 -237 38 -400 51 l-110 9 60 8 c96 14 598
-53 563 -75 -8 -5 13 -9 51 -9 35 0 62 -3 58 -6 -3 -3 -120 -1 -261 5 -234 10
-293 17 -481 55 -29 6 -29 6 -5 -5 52 -23 230 -50 368 -56 78 -3 145 -10 148
-14 10 -17 -57 -24 -236 -24 -146 0 -197 4 -240 17 -91 28 -106 49 -19 25 60
-16 110 -20 269 -22 l195 -3 -195 8 c-148 6 -214 13 -274 29 -44 11 -81 21
-84 21 -2 0 1 7 9 16 11 14 10 15 -6 12 -13 -2 -21 4 -23 17 -4 17 -2 18 13 5
9 -8 36 -15 58 -16z m1007 -75 c0 -44 -3 -59 -12 -56 -13 4 -14 50 -3 95 9 38
15 24 15 -39z m-67 44 c-32 -6 -30 -33 2 -33 21 0 25 -5 25 -30 0 -25 -4 -30
-23 -30 -42 0 -55 26 -37 74 7 18 16 26 32 25 l23 -2 -22 -4z m-965 -39 c87
-59 303 -71 616 -35 99 12 181 20 183 18 4 -5 -246 -47 -332 -56 l-70 -7 46
-7 c31 -5 72 -2 124 8 42 9 79 14 81 12 7 -7 -112 -36 -208 -51 -260 -41 -418
-28 -477 40 -17 19 -31 40 -31 47 0 7 10 -1 22 -17 12 -16 37 -35 55 -43 45
-18 202 -31 288 -23 62 6 55 7 -56 8 -151 2 -230 17 -264 48 -39 36 -29 47 18
20 70 -41 148 -56 282 -54 l120 2 -140 6 c-84 4 -160 14 -190 23 -50 16 -125
69 -125 88 0 11 5 8 58 -27z m1664 9 c10 -9 18 -27 18 -41 0 -17 4 -23 14 -19
10 4 13 1 9 -8 -3 -8 -9 -13 -13 -10 -5 3 -11 -4 -15 -15 -10 -32 -49 -54 -74
-40 -16 8 -21 20 -21 55 0 86 35 120 82 78z"/>
<path d="M3145 500 c-3 -6 1 -7 9 -4 18 7 21 14 7 14 -6 0 -13 -4 -16 -10z"/>
<path d="M3538 283 c6 -2 18 -2 25 0 6 3 1 5 -13 5 -14 0 -19 -2 -12 -5z"/>
<path d="M4725 367 c-4 -18 -5 -49 -2 -68 3 -31 4 -30 5 10 2 38 4 43 22 38
13 -3 18 -1 13 6 -4 7 0 8 12 3 15 -5 16 -4 5 9 -7 8 -20 15 -29 16 -9 0 -11
3 -4 5 7 3 22 0 35 -7 21 -11 22 -11 9 4 -7 10 -24 17 -37 17 -18 0 -24 -7
-29 -33z"/>
<path d="M3870 624 c36 -7 74 -13 85 -12 11 0 -9 6 -45 14 -36 7 -74 13 -85
12 -11 0 9 -6 45 -14z"/>
<path d="M4498 363 c7 -3 16 -2 19 1 4 3 -2 6 -13 5 -11 0 -14 -3 -6 -6z"/>
<path d="M4483 303 c9 -2 23 -2 30 0 6 3 -1 5 -18 5 -16 0 -22 -2 -12 -5z"/>
<path d="M5270 300 c8 -5 22 -9 30 -9 10 0 8 3 -5 9 -27 12 -43 12 -25 0z"/>
<path d="M5328 283 c7 -3 16 -2 19 1 4 3 -2 6 -13 5 -11 0 -14 -3 -6 -6z"/>
<path d="M5227 219 c7 -7 15 -10 18 -7 3 3 -2 9 -12 12 -14 6 -15 5 -6 -5z"/>
</g>
</svg>
