<?xml version="1.0" encoding="UTF-8"?>
<!DOCTYPE svg PUBLIC "-//W3C//DTD SVG 1.1//EN" "http://www.w3.org/Graphics/SVG/1.1/DTD/svg11.dtd">
<svg xmlns="http://www.w3.org/2000/svg" version="1.1" width="740px" height="517px" style="shape-rendering:geometricPrecision; text-rendering:geometricPrecision; image-rendering:optimizeQuality; fill-rule:evenodd; clip-rule:evenodd" xmlns:xlink="http://www.w3.org/1999/xlink">
<g><path style="opacity:1" fill="#fefefe" d="M -0.5,-0.5 C 135.5,-0.5 271.5,-0.5 407.5,-0.5C 399.352,4.40478 390.685,8.57145 381.5,12C 369.416,13.5948 357.416,15.5948 345.5,18C 339.141,22.8436 332.474,27.1769 325.5,31C 316.757,31.8093 308.091,31.3093 299.5,29.5C 294.84,29.5839 292.006,31.9172 291,36.5C 289.913,45.5723 291.913,53.9056 297,61.5C 299.715,64.2139 302.049,67.2139 304,70.5C 311.506,77.1658 317.839,84.8325 323,93.5C 322.346,83.7108 320.179,74.2108 316.5,65C 316.611,63.2785 317.111,63.1118 318,64.5C 322.164,74.823 324.997,85.4897 326.5,96.5C 332.096,95.29 337.762,94.6233 343.5,94.5C 342.438,83.0461 340.938,71.7127 339,60.5C 342.1,70.941 344.933,81.441 347.5,92C 347.245,93.3261 346.578,94.3261 345.5,95C 338.879,96.2556 332.212,97.0889 325.5,97.5C 327.687,104.893 330.187,112.226 333,119.5C 333.175,124.019 333.675,128.353 334.5,132.5C 334.334,137.179 334.501,141.845 335,146.5C 336.495,151.162 339.661,153.828 344.5,154.5C 343.192,155.232 341.858,156.066 340.5,157C 341.598,157.77 341.598,158.603 340.5,159.5C 340.062,159.435 339.728,159.601 339.5,160C 340.471,161.481 341.804,162.315 343.5,162.5C 343.927,165.01 344.593,167.343 345.5,169.5C 345.5,170.167 345.833,170.5 346.5,170.5C 348.14,174.441 350.306,178.108 353,181.5C 353.499,185.152 353.665,188.818 353.5,192.5C 351.727,193.314 351.227,194.648 352,196.5C 353.789,198.229 355.956,198.896 358.5,198.5C 360.426,199.242 362.259,200.242 364,201.5C 363.206,203.486 363.706,205.319 365.5,207C 367.909,208.797 370.576,209.963 373.5,210.5C 373.5,212.833 373.5,215.167 373.5,217.5C 372.778,217.082 372.278,216.416 372,215.5C 370.434,214.939 369.101,215.606 368,217.5C 367.568,218.6 368.068,219.267 369.5,219.5C 370.815,218.846 371.815,218.846 372.5,219.5C 369.032,260.746 367.699,302.079 368.5,343.5C 358.191,339.285 348.191,339.952 338.5,345.5C 335.15,345.335 331.817,345.502 328.5,346C 324.351,350.148 319.351,352.481 313.5,353C 312.62,354.356 312.286,355.856 312.5,357.5C 313.791,357.263 314.791,357.596 315.5,358.5C 306.154,362.563 296.821,366.73 287.5,371C 285.859,372.129 284.859,373.629 284.5,375.5C 277.237,378.545 269.737,380.879 262,382.5C 252.201,381.109 242.368,380.109 232.5,379.5C 233.114,383.135 233.448,386.802 233.5,390.5C 231.473,390.662 229.473,390.495 227.5,390C 228.769,387.861 228.769,385.695 227.5,383.5C 225.628,385.91 224.295,388.577 223.5,391.5C 220.5,391.5 217.5,391.5 214.5,391.5C 212.952,391.179 212.285,390.179 212.5,388.5C 213.93,388.421 215.264,388.754 216.5,389.5C 217.364,387.803 218.697,386.637 220.5,386C 222.113,383.772 222.78,381.272 222.5,378.5C 216.5,378.5 210.5,378.5 204.5,378.5C 201.713,377.523 198.713,377.19 195.5,377.5C 195.519,375.94 195.852,374.44 196.5,373C 195.174,368.805 192.508,365.639 188.5,363.5C 186.569,367.292 185.236,371.292 184.5,375.5C 183.108,371.193 183.442,367.027 185.5,363C 183.661,361.161 181.828,359.328 180,357.5C 179.501,352.511 179.334,347.511 179.5,342.5C 179.5,342.167 179.5,341.833 179.5,341.5C 179.123,332.281 179.623,323.281 181,314.5C 174.248,313.355 167.414,313.189 160.5,314C 159.243,316.076 159.576,317.91 161.5,319.5C 161.5,327.167 161.5,334.833 161.5,342.5C 161.877,349.257 161.377,355.924 160,362.5C 154.726,365.774 150.892,370.274 148.5,376C 149.448,376.483 150.448,376.649 151.5,376.5C 154.357,366.012 160.524,363.679 170,369.5C 171.78,374.865 169.946,377.532 164.5,377.5C 161.813,377.336 159.146,377.503 156.5,378C 157.973,378.71 158.64,379.876 158.5,381.5C 157.5,381.5 156.5,381.5 155.5,381.5C 155.5,380.167 155.5,378.833 155.5,377.5C 147.83,377.778 140.164,378.111 132.5,378.5C 125.229,379.659 117.896,380.659 110.5,381.5C 111.092,384.127 111.425,386.794 111.5,389.5C 114.385,389.194 117.052,389.527 119.5,390.5C 116.5,390.5 113.5,390.5 110.5,390.5C 98.3647,390.003 86.3647,388.67 74.5,386.5C 76.4478,385.869 78.2811,384.869 80,383.5C 80.6667,378.5 80.6667,373.5 80,368.5C 75.2633,367.531 70.43,367.197 65.5,367.5C 65.5,376.5 65.5,385.5 65.5,394.5C 60.1446,394.281 55.9779,396.281 53,400.5C 52.663,405.812 55.163,408.812 60.5,409.5C 63.977,410.323 67.6437,410.823 71.5,411C 69.5273,411.495 67.5273,411.662 65.5,411.5C 65.5,415.5 65.5,419.5 65.5,423.5C 57.9129,423.814 50.4129,423.481 43,422.5C 42.5001,404.17 42.3334,385.836 42.5,367.5C 42.5,367.167 42.5,366.833 42.5,366.5C 54.8333,366.5 67.1667,366.5 79.5,366.5C 79.8893,363.447 79.2227,360.78 77.5,358.5C 76.0222,353.017 72.6888,349.017 67.5,346.5C 67.5,345.833 67.8333,345.5 68.5,345.5C 75.0894,347.588 79.5894,351.921 82,358.5C 83.3215,366.439 83.8215,374.439 83.5,382.5C 87.6836,382.149 91.6836,381.482 95.5,380.5C 96.5,380.5 97.5,380.5 98.5,380.5C 98.6665,370.828 98.4998,361.161 98,351.5C 97.3918,349.934 96.5585,348.6 95.5,347.5C 91.5503,343.642 88.0503,339.309 85,334.5C 84.002,329.396 83.1686,324.396 82.5,319.5C 82.1692,311.804 82.5025,304.138 83.5,296.5C 88.8056,291.417 88.8056,286.25 83.5,281C 73.5,280.333 63.5,280.333 53.5,281C 49.3294,284.854 48.4961,289.354 51,294.5C 51.8159,295.823 52.9826,296.489 54.5,296.5C 54.7009,309.547 54.0342,322.547 52.5,335.5C 48.1425,340.69 43.9758,346.023 40,351.5C 39.3333,352.833 39.3333,354.167 40,355.5C 42.6603,351.319 45.8269,348.319 49.5,346.5C 47.8433,350.13 45.8433,353.464 43.5,356.5C 41.4959,357.673 39.9959,359.34 39,361.5C 38.3333,391.833 38.3333,422.167 39,452.5C 40.332,454.66 41.832,456.66 43.5,458.5C 43.5,458.833 43.5,459.167 43.5,459.5C 37.916,458.382 32.2493,458.215 26.5,459C 20.2589,464.737 14.5922,470.903 9.5,477.5C 5.51821,479.817 2.18488,482.817 -0.5,486.5C -0.5,324.167 -0.5,161.833 -0.5,-0.5 Z"/></g>
<g><path style="opacity:1" fill="#fefefe" d="M 417.5,-0.5 C 524.833,-0.5 632.167,-0.5 739.5,-0.5C 739.5,171.833 739.5,344.167 739.5,516.5C 737.5,516.5 735.5,516.5 733.5,516.5C 733.5,513.167 733.5,509.833 733.5,506.5C 735.167,506.5 736.833,506.5 738.5,506.5C 738.666,499.492 738.5,492.492 738,485.5C 730.987,477.424 724.487,469.091 718.5,460.5C 715.216,444.077 711.549,427.744 707.5,411.5C 708.91,404.923 709.91,398.256 710.5,391.5C 705.167,391.5 699.833,391.5 694.5,391.5C 695.167,398.5 695.833,405.5 696.5,412.5C 693.084,427.082 690.084,441.749 687.5,456.5C 685.833,456.5 684.167,456.5 682.5,456.5C 682.667,435.497 682.5,414.497 682,393.5C 678.428,388.03 675.095,382.364 672,376.5C 671.185,373.802 671.685,371.468 673.5,369.5C 674.403,366.609 674.736,363.609 674.5,360.5C 672.208,360.756 670.041,360.423 668,359.5C 666.996,356.007 667.496,352.841 669.5,350C 667.888,349.28 666.388,349.446 665,350.5C 664.667,353.5 664.333,356.5 664,359.5C 662.644,360.38 661.144,360.714 659.5,360.5C 659.19,363.713 659.523,366.713 660.5,369.5C 661.209,370.404 662.209,370.737 663.5,370.5C 663.274,374.292 662.44,377.959 661,381.5C 658.5,385.167 656,388.833 653.5,392.5C 656.963,391.566 660.63,391.566 664.5,392.5C 665.5,410.154 665.833,427.821 665.5,445.5C 663.833,445.5 662.167,445.5 660.5,445.5C 660.826,436.651 660.493,427.984 659.5,419.5C 658.167,417.5 656.5,415.833 654.5,414.5C 652.495,413.961 650.495,413.295 648.5,412.5C 649.407,409.579 649.74,406.579 649.5,403.5C 646.5,403.5 643.5,403.5 640.5,403.5C 640.397,406.219 640.731,408.885 641.5,411.5C 641.253,412.713 640.586,413.38 639.5,413.5C 634.72,412.641 631.22,414.308 629,418.5C 628.5,426.827 628.334,435.16 628.5,443.5C 628.167,443.5 627.833,443.5 627.5,443.5C 597.371,441.419 567.371,442.419 537.5,446.5C 534.866,426.721 533.033,406.721 532,386.5C 528.674,378.021 525.841,369.355 523.5,360.5C 526.442,350.442 527.942,340.109 528,329.5C 529.943,302.194 530.61,274.86 530,247.5C 529.996,235.852 525.829,226.018 517.5,218C 516.552,217.517 515.552,217.351 514.5,217.5C 512.8,227.218 513.967,236.552 518,245.5C 519.254,254.409 517.587,262.742 513,270.5C 506.236,276.386 499.903,282.719 494,289.5C 493.333,292.5 493.333,295.5 494,298.5C 495.421,300.795 496.421,303.129 497,305.5C 494.418,310.417 490.585,313.917 485.5,316C 482.5,316.667 479.5,316.667 476.5,316C 472.65,313.865 468.65,313.365 464.5,314.5C 471.007,320.499 478.674,323.999 487.5,325C 477.073,325.951 468.74,322.284 462.5,314C 462.905,313.055 463.572,312.388 464.5,312C 471.633,312.404 477.466,309.904 482,304.5C 480.114,296.741 479.448,288.741 480,280.5C 482.743,274.015 485.743,267.681 489,261.5C 490.198,247.908 492.698,234.574 496.5,221.5C 496.449,219.9 496.116,218.4 495.5,217C 488.807,215.427 483.641,217.594 480,223.5C 477.938,225.901 476.271,228.567 475,231.5C 462.823,263.519 449.823,295.185 436,326.5C 432.336,333.524 427.503,339.524 421.5,344.5C 404.821,344.622 388.154,344.289 371.5,343.5C 371.5,335.5 371.5,327.5 371.5,319.5C 374.488,319.845 375.821,318.512 375.5,315.5C 375.597,312.089 373.93,310.755 370.5,311.5C 370.5,299.833 370.5,288.167 370.5,276.5C 375.984,276.519 377.65,274.019 375.5,269C 374.207,268.51 372.873,268.343 371.5,268.5C 371.752,255.143 372.418,241.81 373.5,228.5C 376.59,229.17 378.257,228.003 378.5,225C 377.925,221.59 375.925,219.757 372.5,219.5C 371.815,218.846 370.815,218.846 369.5,219.5C 368.068,219.267 367.568,218.6 368,217.5C 369.101,215.606 370.434,214.939 372,215.5C 372.278,216.416 372.778,217.082 373.5,217.5C 377.085,220.124 381.085,221.957 385.5,223C 396.711,224.243 407.711,223.41 418.5,220.5C 431.183,211.649 441.683,200.649 450,187.5C 452.232,184.185 451.566,181.519 448,179.5C 447.809,177.292 447.309,175.292 446.5,173.5C 445.871,171.003 444.204,169.67 441.5,169.5C 439.052,168.527 436.385,168.194 433.5,168.5C 432.288,167.77 431.288,166.77 430.5,165.5C 429.056,166.981 428.389,166.648 428.5,164.5C 428.471,159.407 428.638,154.074 429,148.5C 431.561,139.683 433.061,130.683 433.5,121.5C 432.951,114.066 429.951,107.733 424.5,102.5C 423.277,101.386 421.944,101.219 420.5,102C 402.385,111.865 383.051,118.031 362.5,120.5C 361.448,120.649 360.448,120.483 359.5,120C 364.258,118.116 368.592,115.449 372.5,112C 384.392,101.088 395.725,89.7549 406.5,78C 405.5,77.6667 404.5,77.3333 403.5,77C 405.345,75.872 407.345,75.372 409.5,75.5C 409.057,62.4258 409.557,49.4258 411,36.5C 411.333,43.5 411.667,50.5 412,57.5C 412.178,62.6269 413.012,67.6269 414.5,72.5C 415.086,72.2907 415.586,71.9574 416,71.5C 416.837,63.9623 418.504,56.6289 421,49.5C 424.536,41.8817 427.869,34.215 431,26.5C 432.49,19.5891 431.323,13.2558 427.5,7.5C 424.412,4.3993 421.078,1.73263 417.5,-0.5 Z"/></g>
<g><path style="opacity:1" fill="#d5d8dd" d="M 407.5,-0.5 C 410.833,-0.5 414.167,-0.5 417.5,-0.5C 421.078,1.73263 424.412,4.3993 427.5,7.5C 431.323,13.2558 432.49,19.5891 431,26.5C 427.869,34.215 424.536,41.8817 421,49.5C 418.504,56.6289 416.837,63.9623 416,71.5C 415.586,71.9574 415.086,72.2907 414.5,72.5C 413.012,67.6269 412.178,62.6269 412,57.5C 411.667,50.5 411.333,43.5 411,36.5C 409.557,49.4258 409.057,62.4258 409.5,75.5C 407.345,75.372 405.345,75.872 403.5,77C 404.5,77.3333 405.5,77.6667 406.5,78C 395.725,89.7549 384.392,101.088 372.5,112C 368.592,115.449 364.258,118.116 359.5,120C 360.448,120.483 361.448,120.649 362.5,120.5C 353.379,122.058 344.046,122.725 334.5,122.5C 334.5,125.833 334.5,129.167 334.5,132.5C 333.675,128.353 333.175,124.019 333,119.5C 330.187,112.226 327.687,104.893 325.5,97.5C 332.212,97.0889 338.879,96.2556 345.5,95C 346.578,94.3261 347.245,93.3261 347.5,92C 344.933,81.441 342.1,70.941 339,60.5C 340.938,71.7127 342.438,83.0461 343.5,94.5C 337.762,94.6233 332.096,95.29 326.5,96.5C 324.997,85.4897 322.164,74.823 318,64.5C 317.111,63.1118 316.611,63.2785 316.5,65C 320.179,74.2108 322.346,83.7108 323,93.5C 317.839,84.8325 311.506,77.1658 304,70.5C 302.049,67.2139 299.715,64.2139 297,61.5C 291.913,53.9056 289.913,45.5723 291,36.5C 292.006,31.9172 294.84,29.5839 299.5,29.5C 308.091,31.3093 316.757,31.8093 325.5,31C 332.474,27.1769 339.141,22.8436 345.5,18C 357.416,15.5948 369.416,13.5948 381.5,12C 390.685,8.57145 399.352,4.40478 407.5,-0.5 Z"/></g>
<g><path style="opacity:1" fill="#f8f9fb" d="M 357.5,43.5 C 358.811,53.3331 359.978,63.3331 361,73.5C 362.081,78.2363 363.414,82.9029 365,87.5C 365.5,88.6667 366.333,89.5 367.5,90C 365.527,90.4955 363.527,90.6621 361.5,90.5C 357.818,75.0891 356.484,59.4224 357.5,43.5 Z"/></g>
<g><path style="opacity:1" fill="#251a1f" d="M 428.5,164.5 C 424.859,164.348 422.193,162.682 420.5,159.5C 421.352,156.777 422.519,154.11 424,151.5C 426.315,144.979 425.981,138.646 423,132.5C 412.815,126.832 406.982,129.832 405.5,141.5C 406.501,146.17 407.501,150.837 408.5,155.5C 405.978,156.011 403.645,157.011 401.5,158.5C 399.382,154.164 397.382,149.664 395.5,145C 396.036,141.928 397.37,139.261 399.5,137C 386.503,142.82 373.169,148.153 359.5,153C 354.58,154.25 349.58,154.75 344.5,154.5C 339.661,153.828 336.495,151.162 335,146.5C 334.501,141.845 334.334,137.179 334.5,132.5C 334.5,129.167 334.5,125.833 334.5,122.5C 344.046,122.725 353.379,122.058 362.5,120.5C 383.051,118.031 402.385,111.865 420.5,102C 421.944,101.219 423.277,101.386 424.5,102.5C 429.951,107.733 432.951,114.066 433.5,121.5C 433.061,130.683 431.561,139.683 429,148.5C 428.638,154.074 428.471,159.407 428.5,164.5 Z"/></g>
<g><path style="opacity:1" fill="#d79a7f" d="M 401.5,158.5 C 399.548,160.578 398.548,163.078 398.5,166C 399.237,170.137 399.571,174.303 399.5,178.5C 397.62,177.922 396.62,176.588 396.5,174.5C 395.953,171.174 395.453,167.84 395,164.5C 394.667,166.5 394.333,168.5 394,170.5C 393.034,166.882 393.534,163.549 395.5,160.5C 393.237,158.346 390.904,158.179 388.5,160C 389.5,160.333 390.5,160.667 391.5,161C 388.787,162.275 385.953,163.109 383,163.5C 380.499,162.751 378.165,161.751 376,160.5C 373.863,161.077 371.696,161.41 369.5,161.5C 369.918,160.778 370.584,160.278 371.5,160C 376.167,159.667 380.833,159.333 385.5,159C 380.673,155.129 375.339,154.462 369.5,157C 365.554,158.306 361.888,160.139 358.5,162.5C 359,162.833 359.5,163.167 360,163.5C 362.497,162.751 364.997,162.084 367.5,161.5C 367.5,162.5 367.5,163.5 367.5,164.5C 371.649,163.92 375.316,164.586 378.5,166.5C 376.366,168.033 373.866,168.7 371,168.5C 368.428,168.204 365.928,168.037 363.5,168C 369.304,172.733 374.97,172.567 380.5,167.5C 381.37,169.032 381.036,170.532 379.5,172C 372.809,172.335 366.143,172.835 359.5,173.5C 359.372,171.91 358.705,170.577 357.5,169.5C 355.7,176.905 356.7,183.905 360.5,190.5C 361.524,189.147 362.857,188.48 364.5,188.5C 364.06,185.62 363.06,182.954 361.5,180.5C 362.708,179.766 364.041,179.433 365.5,179.5C 365.227,177.549 365.893,176.049 367.5,175C 372.891,174.654 378.224,175.154 383.5,176.5C 378.208,177.495 372.875,177.828 367.5,177.5C 367.5,178.833 367.5,180.167 367.5,181.5C 368.822,181.67 369.989,181.337 371,180.5C 375,181.167 379,181.833 383,182.5C 383.49,181.207 383.657,179.873 383.5,178.5C 386.249,178.726 388.916,178.393 391.5,177.5C 392.754,179.259 392.421,180.759 390.5,182C 383.347,183.01 376.18,183.843 369,184.5C 366.866,186.287 366.033,188.62 366.5,191.5C 361.319,192.482 362.319,192.482 369.5,191.5C 369.833,191.5 370.167,191.5 370.5,191.5C 374.391,193.41 373.891,194.41 369,194.5C 364.853,193.877 360.686,193.544 356.5,193.5C 355.609,192.89 354.609,192.557 353.5,192.5C 353.665,188.818 353.499,185.152 353,181.5C 350.306,178.108 348.14,174.441 346.5,170.5C 355.36,172.269 356.693,169.769 350.5,163C 347.204,161.489 343.871,160.323 340.5,159.5C 341.598,158.603 341.598,157.77 340.5,157C 341.858,156.066 343.192,155.232 344.5,154.5C 349.58,154.75 354.58,154.25 359.5,153C 373.169,148.153 386.503,142.82 399.5,137C 397.37,139.261 396.036,141.928 395.5,145C 397.382,149.664 399.382,154.164 401.5,158.5 Z"/></g>
<g><path style="opacity:1" fill="#321d1d" d="M 369.5,161.5 C 368.833,161.5 368.167,161.5 367.5,161.5C 364.997,162.084 362.497,162.751 360,163.5C 359.5,163.167 359,162.833 358.5,162.5C 361.888,160.139 365.554,158.306 369.5,157C 375.339,154.462 380.673,155.129 385.5,159C 380.833,159.333 376.167,159.667 371.5,160C 370.584,160.278 369.918,160.778 369.5,161.5 Z"/></g>
<g><path style="opacity:1" fill="#db997a" d="M 399.5,178.5 C 399.35,184.437 397.35,189.437 393.5,193.5C 393.539,192.417 393.873,191.417 394.5,190.5C 392.726,189.813 391.059,188.98 389.5,188C 382.131,187.274 374.798,187.441 367.5,188.5C 367.285,190.179 367.952,191.179 369.5,191.5C 362.319,192.482 361.319,192.482 366.5,191.5C 366.033,188.62 366.866,186.287 369,184.5C 376.18,183.843 383.347,183.01 390.5,182C 392.421,180.759 392.754,179.259 391.5,177.5C 388.916,178.393 386.249,178.726 383.5,178.5C 383.657,179.873 383.49,181.207 383,182.5C 379,181.833 375,181.167 371,180.5C 369.989,181.337 368.822,181.67 367.5,181.5C 367.5,180.167 367.5,178.833 367.5,177.5C 372.875,177.828 378.208,177.495 383.5,176.5C 378.224,175.154 372.891,174.654 367.5,175C 365.893,176.049 365.227,177.549 365.5,179.5C 364.041,179.433 362.708,179.766 361.5,180.5C 360.833,178.167 360.167,175.833 359.5,173.5C 366.143,172.835 372.809,172.335 379.5,172C 381.036,170.532 381.37,169.032 380.5,167.5C 380.158,166.662 379.492,166.328 378.5,166.5C 375.316,164.586 371.649,163.92 367.5,164.5C 367.5,163.5 367.5,162.5 367.5,161.5C 368.167,161.5 368.833,161.5 369.5,161.5C 371.696,161.41 373.863,161.077 376,160.5C 378.165,161.751 380.499,162.751 383,163.5C 385.953,163.109 388.787,162.275 391.5,161C 390.5,160.667 389.5,160.333 388.5,160C 390.904,158.179 393.237,158.346 395.5,160.5C 393.534,163.549 393.034,166.882 394,170.5C 394.333,168.5 394.667,166.5 395,164.5C 395.453,167.84 395.953,171.174 396.5,174.5C 396.62,176.588 397.62,177.922 399.5,178.5 Z"/></g>
<g><path style="opacity:1" fill="#fbd5b8" d="M 408.5,155.5 C 416.385,162.212 418.552,170.545 415,180.5C 410.694,188.806 404.361,195.139 396,199.5C 393.961,198.022 393.128,196.022 393.5,193.5C 397.35,189.437 399.35,184.437 399.5,178.5C 399.571,174.303 399.237,170.137 398.5,166C 398.548,163.078 399.548,160.578 401.5,158.5C 403.645,157.011 405.978,156.011 408.5,155.5 Z"/></g>
<g><path style="opacity:1" fill="#f8d5b9" d="M 420.5,159.5 C 422.193,162.682 424.859,164.348 428.5,164.5C 428.389,166.648 429.056,166.981 430.5,165.5C 431.288,166.77 432.288,167.77 433.5,168.5C 433.328,169.492 433.662,170.158 434.5,170.5C 436.92,174.088 436.42,177.421 433,180.5C 431.629,182.041 430.129,183.375 428.5,184.5C 427.542,184.047 426.708,183.381 426,182.5C 422.684,176.54 420.518,170.207 419.5,163.5C 419.511,161.955 419.844,160.622 420.5,159.5 Z"/></g>
<g><path style="opacity:1" fill="#d29a84" d="M 343.5,162.5 C 347.55,163.025 350.883,164.858 353.5,168C 350.743,169.402 348.076,169.902 345.5,169.5C 344.593,167.343 343.927,165.01 343.5,162.5 Z"/></g>
<g><path style="opacity:1" fill="#625c5c" d="M 433.5,168.5 C 436.385,168.194 439.052,168.527 441.5,169.5C 438.941,169.198 436.607,169.532 434.5,170.5C 433.662,170.158 433.328,169.492 433.5,168.5 Z"/></g>
<g><path style="opacity:1" fill="#49251e" d="M 340.5,159.5 C 343.871,160.323 347.204,161.489 350.5,163C 356.693,169.769 355.36,172.269 346.5,170.5C 345.833,170.5 345.5,170.167 345.5,169.5C 348.076,169.902 350.743,169.402 353.5,168C 350.883,164.858 347.55,163.025 343.5,162.5C 341.804,162.315 340.471,161.481 339.5,160C 339.728,159.601 340.062,159.435 340.5,159.5 Z"/></g>
<g><path style="opacity:1" fill="#432721" d="M 378.5,166.5 C 379.492,166.328 380.158,166.662 380.5,167.5C 374.97,172.567 369.304,172.733 363.5,168C 365.928,168.037 368.428,168.204 371,168.5C 373.866,168.7 376.366,168.033 378.5,166.5 Z"/></g>
<g><path style="opacity:1" fill="#fbd2b8" d="M 359.5,173.5 C 360.167,175.833 360.833,178.167 361.5,180.5C 363.06,182.954 364.06,185.62 364.5,188.5C 362.857,188.48 361.524,189.147 360.5,190.5C 356.7,183.905 355.7,176.905 357.5,169.5C 358.705,170.577 359.372,171.91 359.5,173.5 Z"/></g>
<g><path style="opacity:1" fill="#271918" d="M 370.5,191.5 C 376.31,190.51 382.31,190.177 388.5,190.5C 391.987,191.445 393.32,193.778 392.5,197.5C 387.725,197.119 383.058,196.119 378.5,194.5C 374.101,196.744 369.434,197.744 364.5,197.5C 364.5,197.167 364.5,196.833 364.5,196.5C 361.98,195.082 359.313,194.082 356.5,193.5C 360.686,193.544 364.853,193.877 369,194.5C 373.891,194.41 374.391,193.41 370.5,191.5 Z"/></g>
<g><path style="opacity:1" fill="#d5d7db" d="M 446.5,173.5 C 447.309,175.292 447.809,177.292 448,179.5C 451.566,181.519 452.232,184.185 450,187.5C 441.683,200.649 431.183,211.649 418.5,220.5C 418.107,214.322 418.94,208.322 421,202.5C 428.977,194.191 437.31,186.191 446,178.5C 446.494,176.866 446.66,175.199 446.5,173.5 Z"/></g>
<g><path style="opacity:1" fill="#261e24" d="M 353.5,192.5 C 354.609,192.557 355.609,192.89 356.5,193.5C 359.313,194.082 361.98,195.082 364.5,196.5C 362.214,196.595 360.214,197.262 358.5,198.5C 355.956,198.896 353.789,198.229 352,196.5C 351.227,194.648 351.727,193.314 353.5,192.5 Z"/></g>
<g><path style="opacity:1" fill="#d5997e" d="M 420.5,159.5 C 419.844,160.622 419.511,161.955 419.5,163.5C 420.518,170.207 422.684,176.54 426,182.5C 426.708,183.381 427.542,184.047 428.5,184.5C 422.125,189.461 415.958,194.794 410,200.5C 407.344,204.144 405.511,208.144 404.5,212.5C 399.473,211.134 396.473,207.801 395.5,202.5C 389.246,208.028 381.912,210.362 373.5,209.5C 372.167,207.5 370.833,205.5 369.5,203.5C 373.599,203.633 377.266,202.467 380.5,200C 378.122,200.575 375.622,201.075 373,201.5C 370.966,201.646 369.299,200.98 368,199.5C 367.601,199.728 367.435,200.062 367.5,200.5C 366.167,199.833 365.167,198.833 364.5,197.5C 369.434,197.744 374.101,196.744 378.5,194.5C 383.058,196.119 387.725,197.119 392.5,197.5C 393.32,193.778 391.987,191.445 388.5,190.5C 385.518,189.835 382.352,189.502 379,189.5C 375.424,189.515 372.258,190.182 369.5,191.5C 367.952,191.179 367.285,190.179 367.5,188.5C 374.798,187.441 382.131,187.274 389.5,188C 391.059,188.98 392.726,189.813 394.5,190.5C 393.873,191.417 393.539,192.417 393.5,193.5C 393.128,196.022 393.961,198.022 396,199.5C 404.361,195.139 410.694,188.806 415,180.5C 418.552,170.545 416.385,162.212 408.5,155.5C 407.501,150.837 406.501,146.17 405.5,141.5C 406.982,129.832 412.815,126.832 423,132.5C 425.981,138.646 426.315,144.979 424,151.5C 422.519,154.11 421.352,156.777 420.5,159.5 Z"/></g>
<g><path style="opacity:1" fill="#6c493e" d="M 388.5,190.5 C 382.31,190.177 376.31,190.51 370.5,191.5C 370.167,191.5 369.833,191.5 369.5,191.5C 372.258,190.182 375.424,189.515 379,189.5C 382.352,189.502 385.518,189.835 388.5,190.5 Z"/></g>
<g><path style="opacity:1" fill="#b54c3a" d="M 369.5,203.5 C 368.833,202.5 368.167,201.5 367.5,200.5C 367.435,200.062 367.601,199.728 368,199.5C 369.299,200.98 370.966,201.646 373,201.5C 375.622,201.075 378.122,200.575 380.5,200C 377.266,202.467 373.599,203.633 369.5,203.5 Z"/></g>
<g><path style="opacity:1" fill="#f8e8db" d="M 364.5,196.5 C 364.5,196.833 364.5,197.167 364.5,197.5C 365.167,198.833 366.167,199.833 367.5,200.5C 368.167,201.5 368.833,202.5 369.5,203.5C 370.833,205.5 372.167,207.5 373.5,209.5C 373.5,209.833 373.5,210.167 373.5,210.5C 370.576,209.963 367.909,208.797 365.5,207C 363.706,205.319 363.206,203.486 364,201.5C 362.259,200.242 360.426,199.242 358.5,198.5C 360.214,197.262 362.214,196.595 364.5,196.5 Z"/></g>
<g><path style="opacity:1" fill="#25191e" d="M 441.5,169.5 C 444.204,169.67 445.871,171.003 446.5,173.5C 446.66,175.199 446.494,176.866 446,178.5C 437.31,186.191 428.977,194.191 421,202.5C 418.94,208.322 418.107,214.322 418.5,220.5C 407.711,223.41 396.711,224.243 385.5,223C 381.085,221.957 377.085,220.124 373.5,217.5C 373.5,215.167 373.5,212.833 373.5,210.5C 373.5,210.167 373.5,209.833 373.5,209.5C 381.912,210.362 389.246,208.028 395.5,202.5C 396.473,207.801 399.473,211.134 404.5,212.5C 405.511,208.144 407.344,204.144 410,200.5C 415.958,194.794 422.125,189.461 428.5,184.5C 430.129,183.375 431.629,182.041 433,180.5C 436.42,177.421 436.92,174.088 434.5,170.5C 436.607,169.532 438.941,169.198 441.5,169.5 Z"/></g>
<g><path style="opacity:1" fill="#d5d8dc" d="M 537.5,446.5 C 537.611,447.117 537.944,447.617 538.5,448C 548.092,449.741 557.759,450.574 567.5,450.5C 558.014,451.494 548.348,451.827 538.5,451.5C 529.457,448.241 520.124,446.908 510.5,447.5C 510.366,449.292 510.699,450.958 511.5,452.5C 503.688,452.025 496.021,452.692 488.5,454.5C 486.065,453.236 484.065,451.403 482.5,449C 480.167,448.333 477.833,448.333 475.5,449C 474.549,452.057 474.216,455.223 474.5,458.5C 470.774,458.823 467.107,458.489 463.5,457.5C 465.333,455.95 467.499,454.95 470,454.5C 469.819,448.866 471.319,443.866 474.5,439.5C 473.514,435.853 471.181,434.686 467.5,436C 466.577,438.041 466.244,440.208 466.5,442.5C 464.5,442.5 462.5,442.5 460.5,442.5C 460.817,445.572 460.484,448.572 459.5,451.5C 458.345,447.573 457.512,443.573 457,439.5C 450.11,432.069 449.777,424.402 456,416.5C 456.667,414.167 456.667,411.833 456,409.5C 452.381,406.657 449.048,406.99 446,410.5C 444.718,414.584 445.718,417.918 449,420.5C 449.333,425.5 449.667,430.5 450,435.5C 451.854,440.532 453.687,445.532 455.5,450.5C 454.5,450.5 453.5,450.5 452.5,450.5C 451.18,449.058 449.514,448.392 447.5,448.5C 447.511,445.178 445.845,443.511 442.5,443.5C 439.305,443.59 436.972,444.923 435.5,447.5C 426.867,446.623 418.2,446.289 409.5,446.5C 416.655,445.671 423.989,445.171 431.5,445C 423.167,444.667 414.833,444.333 406.5,444C 395.925,441.592 389.591,435.092 387.5,424.5C 380.587,423.887 375.587,420.554 372.5,414.5C 370.738,405.61 370.071,396.61 370.5,387.5C 374.071,387.592 375.238,385.926 374,382.5C 373.329,381.748 372.496,381.414 371.5,381.5C 371.5,379.5 371.5,377.5 371.5,375.5C 377.334,373.411 383.001,371.078 388.5,368.5C 402.784,370.577 417.117,372.244 431.5,373.5C 439.648,375.557 447.981,376.224 456.5,375.5C 459.42,369.112 458.753,363.112 454.5,357.5C 454.443,356.391 454.11,355.391 453.5,354.5C 464.535,357.632 475.369,361.299 486,365.5C 492.565,365.255 494.898,361.922 493,355.5C 492.153,353.807 491.32,352.14 490.5,350.5C 491.043,350.44 491.376,350.107 491.5,349.5C 487.084,339.584 480.084,332.084 470.5,327C 468.934,326.235 467.601,326.402 466.5,327.5C 461.036,327.326 455.702,327.326 450.5,327.5C 446.255,333.789 440.921,338.956 434.5,343C 436.233,344.189 437.9,345.356 439.5,346.5C 433.301,346.348 427.301,345.682 421.5,344.5C 427.503,339.524 432.336,333.524 436,326.5C 449.823,295.185 462.823,263.519 475,231.5C 476.271,228.567 477.938,225.901 480,223.5C 483.641,217.594 488.807,215.427 495.5,217C 496.116,218.4 496.449,219.9 496.5,221.5C 492.698,234.574 490.198,247.908 489,261.5C 485.743,267.681 482.743,274.015 480,280.5C 479.448,288.741 480.114,296.741 482,304.5C 477.466,309.904 471.633,312.404 464.5,312C 463.572,312.388 462.905,313.055 462.5,314C 468.74,322.284 477.073,325.951 487.5,325C 478.674,323.999 471.007,320.499 464.5,314.5C 468.65,313.365 472.65,313.865 476.5,316C 479.5,316.667 482.5,316.667 485.5,316C 490.585,313.917 494.418,310.417 497,305.5C 496.421,303.129 495.421,300.795 494,298.5C 493.333,295.5 493.333,292.5 494,289.5C 499.903,282.719 506.236,276.386 513,270.5C 517.587,262.742 519.254,254.409 518,245.5C 513.967,236.552 512.8,227.218 514.5,217.5C 515.552,217.351 516.552,217.517 517.5,218C 525.829,226.018 529.996,235.852 530,247.5C 530.61,274.86 529.943,302.194 528,329.5C 527.942,340.109 526.442,350.442 523.5,360.5C 525.841,369.355 528.674,378.021 532,386.5C 533.033,406.721 534.866,426.721 537.5,446.5 Z"/></g>
<g><path style="opacity:1" fill="#241c1f" d="M 418.5,227.5 C 425.842,227.207 427.842,230.207 424.5,236.5C 416.415,237.86 414.415,234.86 418.5,227.5 Z"/></g>
<g><path style="opacity:1" fill="#d5d7dc" d="M 284.5,335.5 C 288.131,333.012 291.797,330.512 295.5,328C 293.704,324.042 291.037,320.876 287.5,318.5C 287.67,317.178 287.337,316.011 286.5,315C 284.564,314.187 282.564,313.687 280.5,313.5C 281.96,311.537 283.627,309.704 285.5,308C 292.905,303.974 299.905,299.474 306.5,294.5C 316.627,303.32 319.794,314.32 316,327.5C 314.657,330.862 312.824,333.862 310.5,336.5C 312.017,336.489 313.184,335.823 314,334.5C 321.565,319.1 319.732,305.1 308.5,292.5C 324.811,281.221 336.311,266.221 343,247.5C 345.444,239.164 348.111,230.831 351,222.5C 352.849,249.849 354.515,277.182 356,304.5C 345.483,323.35 330.649,337.85 311.5,348C 298.963,351.219 289.963,347.053 284.5,335.5 Z"/></g>
<g><path style="opacity:1" fill="#282526" d="M 372.5,219.5 C 375.925,219.757 377.925,221.59 378.5,225C 378.257,228.003 376.59,229.17 373.5,228.5C 372.418,241.81 371.752,255.143 371.5,268.5C 372.873,268.343 374.207,268.51 375.5,269C 377.65,274.019 375.984,276.519 370.5,276.5C 370.5,288.167 370.5,299.833 370.5,311.5C 373.93,310.755 375.597,312.089 375.5,315.5C 375.821,318.512 374.488,319.845 371.5,319.5C 371.154,327.719 370.154,335.719 368.5,343.5C 367.699,302.079 369.032,260.746 372.5,219.5 Z"/></g>
<g><path style="opacity:1" fill="#281f22" d="M 413.5,272.5 C 421.744,272.228 424.078,275.728 420.5,283C 415.023,285.595 411.689,283.928 410.5,278C 410.863,275.808 411.863,273.974 413.5,272.5 Z"/></g>
<g><path style="opacity:1" fill="#fcfcfd" d="M 507.5,283.5 C 513.064,284.555 518.397,286.222 523.5,288.5C 520.392,297.846 516.726,306.846 512.5,315.5C 507.398,314.144 502.398,312.644 497.5,311C 500.913,301.838 504.246,292.671 507.5,283.5 Z"/></g>
<g><path style="opacity:1" fill="#c12723" d="M 82.5,319.5 C 82.2323,325.382 82.5656,331.215 83.5,337C 82.1328,339.654 81.1328,342.487 80.5,345.5C 77.8812,340.579 74.7145,340.245 71,344.5C 70.5,344.167 70,343.833 69.5,343.5C 70.1667,342.833 70.8333,342.167 71.5,341.5C 71.1667,341.167 70.8333,340.833 70.5,340.5C 68.2631,342.817 65.9297,342.983 63.5,341C 67.2321,340.753 69.5654,338.919 70.5,335.5C 72.5,335.5 74.5,335.5 76.5,335.5C 77.209,336.404 78.209,336.737 79.5,336.5C 79.7913,330.697 79.1246,325.031 77.5,319.5C 77.0074,317.194 76.6741,314.861 76.5,312.5C 74.5,312.5 72.5,312.5 70.5,312.5C 70.6633,314.857 70.4966,317.19 70,319.5C 69.5291,317.754 68.8624,316.087 68,314.5C 66.2813,321.427 64.948,328.427 64,335.5C 62.809,330.233 62.309,324.899 62.5,319.5C 61.1667,319.5 59.8333,319.5 58.5,319.5C 58.6602,321.199 58.4935,322.866 58,324.5C 56.2608,316.224 56.0942,307.891 57.5,299.5C 58.1667,300.833 58.8333,302.167 59.5,303.5C 60.6808,301.865 60.6808,300.198 59.5,298.5C 57.6354,296.077 55.3021,294.411 52.5,293.5C 50.43,282.098 55.2633,278.098 67,281.5C 72.5654,281.442 78.0654,281.942 83.5,283C 86.7849,286.449 87.1182,290.115 84.5,294C 83.2068,294.49 81.8734,294.657 80.5,294.5C 80.2197,303.056 80.8863,311.39 82.5,319.5 Z"/></g>
<g><path style="opacity:1" fill="#aa403d" d="M 82.5,319.5 C 80.8863,311.39 80.2197,303.056 80.5,294.5C 81.8734,294.657 83.2068,294.49 84.5,294C 87.1182,290.115 86.7849,286.449 83.5,283C 78.0654,281.942 72.5654,281.442 67,281.5C 55.2633,278.098 50.43,282.098 52.5,293.5C 53.1667,294.5 53.8333,295.5 54.5,296.5C 52.9826,296.489 51.8159,295.823 51,294.5C 48.4961,289.354 49.3294,284.854 53.5,281C 63.5,280.333 73.5,280.333 83.5,281C 88.8056,286.25 88.8056,291.417 83.5,296.5C 82.5025,304.138 82.1692,311.804 82.5,319.5 Z"/></g>
<g><path style="opacity:1" fill="#2d2c30" d="M 308.5,292.5 C 319.732,305.1 321.565,319.1 314,334.5C 313.184,335.823 312.017,336.489 310.5,336.5C 312.824,333.862 314.657,330.862 316,327.5C 319.794,314.32 316.627,303.32 306.5,294.5C 304.2,291.676 301.2,289.843 297.5,289C 292.116,288.495 286.782,288.495 281.5,289C 286.57,286.576 291.903,285.909 297.5,287C 301.193,288.847 304.86,290.68 308.5,292.5 Z"/></g>
<g><path style="opacity:1" fill="#221a1e" d="M 179.5,341.5 C 173.833,341.5 168.167,341.5 162.5,341.5C 162.825,333.981 162.492,326.648 161.5,319.5C 159.576,317.91 159.243,316.076 160.5,314C 167.414,313.189 174.248,313.355 181,314.5C 179.623,323.281 179.123,332.281 179.5,341.5 Z"/></g>
<g><path style="opacity:1" fill="#272022" d="M 410.5,318.5 C 416.662,318.45 418.329,320.95 415.5,326C 408.745,326.756 407.078,324.256 410.5,318.5 Z"/></g>
<g><path style="opacity:1" fill="#fcfcfc" d="M 466.5,327.5 C 477.746,331.745 485.746,339.412 490.5,350.5C 491.32,352.14 492.153,353.807 493,355.5C 494.898,361.922 492.565,365.255 486,365.5C 475.369,361.299 464.535,357.632 453.5,354.5C 450.688,352.592 447.688,350.925 444.5,349.5C 443.232,347.953 441.565,346.953 439.5,346.5C 437.9,345.356 436.233,344.189 434.5,343C 440.921,338.956 446.255,333.789 450.5,327.5C 455.702,327.326 461.036,327.326 466.5,327.5 Z"/></g>
<g><path style="opacity:1" fill="#8a868a" d="M 161.5,319.5 C 162.492,326.648 162.825,333.981 162.5,341.5C 168.167,341.5 173.833,341.5 179.5,341.5C 179.5,341.833 179.5,342.167 179.5,342.5C 173.5,342.5 167.5,342.5 161.5,342.5C 161.5,334.833 161.5,327.167 161.5,319.5 Z"/></g>
<g><path style="opacity:1" fill="#be2c27" d="M 52.5,293.5 C 55.3021,294.411 57.6354,296.077 59.5,298.5C 60.6808,300.198 60.6808,301.865 59.5,303.5C 58.8333,302.167 58.1667,300.833 57.5,299.5C 56.0942,307.891 56.2608,316.224 58,324.5C 58.4935,322.866 58.6602,321.199 58.5,319.5C 59.8333,319.5 61.1667,319.5 62.5,319.5C 62.309,324.899 62.809,330.233 64,335.5C 64.948,328.427 66.2813,321.427 68,314.5C 68.8624,316.087 69.5291,317.754 70,319.5C 70.4966,317.19 70.6633,314.857 70.5,312.5C 72.5,312.5 74.5,312.5 76.5,312.5C 76.6741,314.861 77.0074,317.194 77.5,319.5C 76.4155,317.681 75.0822,316.015 73.5,314.5C 73.1667,315.333 72.8333,316.167 72.5,317C 75.3227,322.797 76.656,328.963 76.5,335.5C 74.5,335.5 72.5,335.5 70.5,335.5C 69.5654,338.919 67.2321,340.753 63.5,341C 65.9297,342.983 68.2631,342.817 70.5,340.5C 70.8333,340.833 71.1667,341.167 71.5,341.5C 70.8333,342.167 70.1667,342.833 69.5,343.5C 70,343.833 70.5,344.167 71,344.5C 74.7145,340.245 77.8812,340.579 80.5,345.5C 81.1328,342.487 82.1328,339.654 83.5,337C 82.5656,331.215 82.2323,325.382 82.5,319.5C 83.1686,324.396 84.002,329.396 85,334.5C 88.0503,339.309 91.5503,343.642 95.5,347.5C 98.0005,358.59 98.0005,369.59 95.5,380.5C 91.6836,381.482 87.6836,382.149 83.5,382.5C 83.8215,374.439 83.3215,366.439 82,358.5C 79.5894,351.921 75.0894,347.588 68.5,345.5C 66.9561,344.086 65.2894,343.753 63.5,344.5C 64.7658,345.362 66.0992,346.029 67.5,346.5C 72.6888,349.017 76.0222,353.017 77.5,358.5C 77.6741,360.861 78.0074,363.194 78.5,365.5C 66.5,365.5 54.5,365.5 42.5,365.5C 42.7035,363.61 42.0368,362.11 40.5,361C 42.1412,359.871 43.1412,358.371 43.5,356.5C 45.8433,353.464 47.8433,350.13 49.5,346.5C 45.8269,348.319 42.6603,351.319 40,355.5C 39.3333,354.167 39.3333,352.833 40,351.5C 43.9758,346.023 48.1425,340.69 52.5,335.5C 54.0342,322.547 54.7009,309.547 54.5,296.5C 53.8333,295.5 53.1667,294.5 52.5,293.5 Z"/></g>
<g><path style="opacity:1" fill="#fbe8e3" d="M 77.5,319.5 C 79.1246,325.031 79.7913,330.697 79.5,336.5C 78.209,336.737 77.209,336.404 76.5,335.5C 76.656,328.963 75.3227,322.797 72.5,317C 72.8333,316.167 73.1667,315.333 73.5,314.5C 75.0822,316.015 76.4155,317.681 77.5,319.5 Z"/></g>
<g><path style="opacity:1" fill="#f8d5b9" d="M 280.5,313.5 C 282.564,313.687 284.564,314.187 286.5,315C 287.337,316.011 287.67,317.178 287.5,318.5C 284.729,317.367 281.896,316.367 279,315.5C 277.774,315.645 276.607,315.978 275.5,316.5C 261.548,328.617 248.048,341.284 235,354.5C 233.906,356.078 233.072,357.745 232.5,359.5C 231.034,363.766 229.034,367.766 226.5,371.5C 225.47,369.483 224.47,367.483 223.5,365.5C 224.753,361.742 226.253,358.076 228,354.5C 228.228,347.501 228.061,340.501 227.5,333.5C 235.789,329.874 244.456,327.04 253.5,325C 258.827,321.676 264.161,318.342 269.5,315C 273.356,314.823 277.023,314.323 280.5,313.5 Z"/></g>
<g><path style="opacity:1" fill="#2a292c" d="M 466.5,327.5 C 467.601,326.402 468.934,326.235 470.5,327C 480.084,332.084 487.084,339.584 491.5,349.5C 491.376,350.107 491.043,350.44 490.5,350.5C 485.746,339.412 477.746,331.745 466.5,327.5 Z"/></g>
<g><path style="opacity:1" fill="#e8e0e6" d="M 173.5,333.5 C 176.5,333.167 177.833,334.5 177.5,337.5C 176.167,337.5 174.833,337.5 173.5,337.5C 173.5,336.167 173.5,334.833 173.5,333.5 Z"/></g>
<g><path style="opacity:1" fill="#5e585b" d="M 116.5,326.5 C 116.5,333.833 116.5,341.167 116.5,348.5C 119.167,348.5 121.833,348.5 124.5,348.5C 124.5,341.167 124.5,333.833 124.5,326.5C 125.492,333.982 125.825,341.648 125.5,349.5C 122.167,349.5 118.833,349.5 115.5,349.5C 115.175,341.648 115.508,333.982 116.5,326.5 Z"/></g>
<g><path style="opacity:1" fill="#21171b" d="M 116.5,326.5 C 119.167,326.5 121.833,326.5 124.5,326.5C 124.5,333.833 124.5,341.167 124.5,348.5C 121.833,348.5 119.167,348.5 116.5,348.5C 116.5,341.167 116.5,333.833 116.5,326.5 Z"/></g>
<g><path style="opacity:1" fill="#727176" d="M 310.5,336.5 C 309.008,338.922 307.008,339.588 304.5,338.5C 306.411,337.523 308.411,336.857 310.5,336.5 Z"/></g>
<g><path style="opacity:1" fill="#d99b7e" d="M 287.5,318.5 C 291.037,320.876 293.704,324.042 295.5,328C 291.797,330.512 288.131,333.012 284.5,335.5C 281.873,339.208 278.873,342.708 275.5,346C 267.196,349.966 259.696,355.133 253,361.5C 252.235,364.196 251.068,366.696 249.5,369C 247.633,369.711 246.133,369.211 245,367.5C 244.837,362.142 246.17,357.142 249,352.5C 258.46,341.975 256.96,340.141 244.5,347C 240.269,351.062 236.269,355.229 232.5,359.5C 233.072,357.745 233.906,356.078 235,354.5C 248.048,341.284 261.548,328.617 275.5,316.5C 276.607,315.978 277.774,315.645 279,315.5C 281.896,316.367 284.729,317.367 287.5,318.5 Z"/></g>
<g><path style="opacity:1" fill="#eea39c" d="M 68.5,345.5 C 67.8333,345.5 67.5,345.833 67.5,346.5C 66.0992,346.029 64.7658,345.362 63.5,344.5C 65.2894,343.753 66.9561,344.086 68.5,345.5 Z"/></g>
<g><path style="opacity:1" fill="#d6d9dd" d="M 161.5,342.5 C 167.5,342.5 173.5,342.5 179.5,342.5C 179.334,347.511 179.501,352.511 180,357.5C 181.828,359.328 183.661,361.161 185.5,363C 183.442,367.027 183.108,371.193 184.5,375.5C 185.236,371.292 186.569,367.292 188.5,363.5C 192.508,365.639 195.174,368.805 196.5,373C 195.852,374.44 195.519,375.94 195.5,377.5C 185.167,377.5 174.833,377.5 164.5,377.5C 169.946,377.532 171.78,374.865 170,369.5C 160.524,363.679 154.357,366.012 151.5,376.5C 150.448,376.649 149.448,376.483 148.5,376C 150.892,370.274 154.726,365.774 160,362.5C 161.377,355.924 161.877,349.257 161.5,342.5 Z"/></g>
<g><path style="opacity:1" fill="#d99a7f" d="M 338.5,345.5 C 340.549,345.706 340.883,346.539 339.5,348C 335.965,348.663 332.965,350.163 330.5,352.5C 325.495,354.501 320.495,356.501 315.5,358.5C 314.791,357.596 313.791,357.263 312.5,357.5C 312.286,355.856 312.62,354.356 313.5,353C 319.351,352.481 324.351,350.148 328.5,346C 331.817,345.502 335.15,345.335 338.5,345.5 Z"/></g>
<g><path style="opacity:1" fill="#da9a7c" d="M 444.5,349.5 C 447.688,350.925 450.688,352.592 453.5,354.5C 454.11,355.391 454.443,356.391 454.5,357.5C 454.126,360.972 455.126,363.972 457.5,366.5C 456.607,369.084 456.274,371.751 456.5,374.5C 448.156,374.388 439.822,374.055 431.5,373.5C 417.117,372.244 402.784,370.577 388.5,368.5C 384.6,367.57 380.6,367.237 376.5,367.5C 373.235,367.918 370.235,369.085 367.5,371C 364.167,371.333 360.833,371.667 357.5,372C 351.519,376.992 346.185,376.492 341.5,370.5C 338.631,369.599 335.798,368.599 333,367.5C 326.292,369.248 319.458,369.914 312.5,369.5C 314.769,368.024 317.102,366.524 319.5,365C 332.432,365.361 343.432,361.027 352.5,352C 354.717,350.725 357.051,349.725 359.5,349C 387.831,348.907 416.165,349.074 444.5,349.5 Z"/></g>
<g><path style="opacity:1" fill="#f7d5bc" d="M 371.5,319.5 C 371.5,327.5 371.5,335.5 371.5,343.5C 388.154,344.289 404.821,344.622 421.5,344.5C 427.301,345.682 433.301,346.348 439.5,346.5C 441.565,346.953 443.232,347.953 444.5,349.5C 416.165,349.074 387.831,348.907 359.5,349C 357.051,349.725 354.717,350.725 352.5,352C 343.432,361.027 332.432,365.361 319.5,365C 317.102,366.524 314.769,368.024 312.5,369.5C 309.811,370.038 307.144,370.705 304.5,371.5C 303.893,371.376 303.56,371.043 303.5,370.5C 315.598,364.283 327.598,357.783 339.5,351C 336.406,350.749 333.406,351.249 330.5,352.5C 332.965,350.163 335.965,348.663 339.5,348C 340.883,346.539 340.549,345.706 338.5,345.5C 348.191,339.952 358.191,339.285 368.5,343.5C 370.154,335.719 371.154,327.719 371.5,319.5 Z"/></g>
<g><path style="opacity:1" fill="#241b1d" d="M 303.5,370.5 C 301.847,370.66 300.514,371.326 299.5,372.5C 294.844,374.16 290.177,375.826 285.5,377.5C 285.167,376.833 284.833,376.167 284.5,375.5C 284.859,373.629 285.859,372.129 287.5,371C 296.821,366.73 306.154,362.563 315.5,358.5C 320.495,356.501 325.495,354.501 330.5,352.5C 333.406,351.249 336.406,350.749 339.5,351C 327.598,357.783 315.598,364.283 303.5,370.5 Z"/></g>
<g><path style="opacity:1" fill="#9f3b38" d="M 95.5,347.5 C 96.5585,348.6 97.3918,349.934 98,351.5C 98.4998,361.161 98.6665,370.828 98.5,380.5C 97.5,380.5 96.5,380.5 95.5,380.5C 98.0005,369.59 98.0005,358.59 95.5,347.5 Z"/></g>
<g><path style="opacity:1" fill="#d7d9dd" d="M 115.5,349.5 C 118.833,349.5 122.167,349.5 125.5,349.5C 125.335,353.182 125.501,356.848 126,360.5C 130.62,362.31 134.954,364.643 139,367.5C 140.457,370.366 140.79,373.366 140,376.5C 132.265,377.742 124.431,378.409 116.5,378.5C 116.724,374.821 117.058,371.154 117.5,367.5C 110.566,366.143 107.566,368.81 108.5,375.5C 109.228,373.807 110.228,372.307 111.5,371C 112.635,370.251 113.635,370.417 114.5,371.5C 113.607,374.084 113.274,376.751 113.5,379.5C 110.167,379.5 106.833,379.5 103.5,379.5C 103.336,376.813 103.503,374.146 104,371.5C 106.753,366.659 110.42,362.659 115,359.5C 115.498,356.183 115.665,352.85 115.5,349.5 Z"/></g>
<g><path style="opacity:1" fill="#20191d" d="M 673.5,369.5 C 669.167,369.5 664.833,369.5 660.5,369.5C 659.523,366.713 659.19,363.713 659.5,360.5C 661.144,360.714 662.644,360.38 664,359.5C 664.333,356.5 664.667,353.5 665,350.5C 666.388,349.446 667.888,349.28 669.5,350C 667.496,352.841 666.996,356.007 668,359.5C 670.041,360.423 672.208,360.756 674.5,360.5C 674.736,363.609 674.403,366.609 673.5,369.5 Z"/></g>
<g><path style="opacity:1" fill="#db8f90" d="M 77.5,358.5 C 79.2227,360.78 79.8893,363.447 79.5,366.5C 67.1667,366.5 54.8333,366.5 42.5,366.5C 42.5,366.167 42.5,365.833 42.5,365.5C 54.5,365.5 66.5,365.5 78.5,365.5C 78.0074,363.194 77.6741,360.861 77.5,358.5 Z"/></g>
<g><path style="opacity:1" fill="#f7efe7" d="M 376.5,367.5 C 380.6,367.237 384.6,367.57 388.5,368.5C 383.001,371.078 377.334,373.411 371.5,375.5C 371.343,374.127 371.51,372.793 372,371.5C 373.667,370.267 375.167,368.933 376.5,367.5 Z"/></g>
<g><path style="opacity:1" fill="#d7d8dd" d="M 74.5,386.5 C 73.2335,388.694 73.2335,391.028 74.5,393.5C 71.5719,394.484 68.5719,394.817 65.5,394.5C 65.5,385.5 65.5,376.5 65.5,367.5C 70.43,367.197 75.2633,367.531 80,368.5C 80.6667,373.5 80.6667,378.5 80,383.5C 78.2811,384.869 76.4478,385.869 74.5,386.5 Z"/></g>
<g><path style="opacity:1" fill="#fbfbfb" d="M 368.5,373.5 C 368.333,384.172 368.5,394.839 369,405.5C 369.119,409.005 370.286,412.005 372.5,414.5C 375.587,420.554 380.587,423.887 387.5,424.5C 389.591,435.092 395.925,441.592 406.5,444C 414.833,444.333 423.167,444.667 431.5,445C 423.989,445.171 416.655,445.671 409.5,446.5C 402.806,446.505 398.139,449.505 395.5,455.5C 386.833,455.5 378.167,455.5 369.5,455.5C 367.219,455.923 365.552,455.256 364.5,453.5C 364.466,450.801 365.133,448.301 366.5,446C 364.866,445.506 363.199,445.34 361.5,445.5C 360.508,445.672 359.842,445.338 359.5,444.5C 361.861,444.326 364.194,443.993 366.5,443.5C 366.674,441.139 367.007,438.806 367.5,436.5C 363.833,436.5 360.167,436.5 356.5,436.5C 355.209,436.737 354.209,436.404 353.5,435.5C 356.91,435.543 360.243,435.043 363.5,434C 358.949,432.785 354.282,432.119 349.5,432C 320.783,431.01 292.116,431.51 263.5,433.5C 262.26,434.659 260.926,435.659 259.5,436.5C 259.5,438.167 259.5,439.833 259.5,441.5C 257.712,441.215 256.045,441.548 254.5,442.5C 254.709,443.086 255.043,443.586 255.5,444C 258.827,444.61 262.161,445.11 265.5,445.5C 264.432,446.434 263.099,446.768 261.5,446.5C 260.549,447.919 260.216,449.585 260.5,451.5C 257.402,452.821 253.902,453.488 250,453.5C 246.098,453.488 242.598,452.821 239.5,451.5C 251.039,440.265 259.705,427.098 265.5,412C 272.167,411.667 278.833,411.333 285.5,411C 292.139,410.377 294.973,406.877 294,400.5C 292.421,398.959 290.587,397.792 288.5,397C 282.804,396.83 277.138,396.33 271.5,395.5C 272.372,393.55 273.039,391.55 273.5,389.5C 274.404,388.791 274.737,387.791 274.5,386.5C 273.127,386.657 271.793,386.49 270.5,386C 275.904,383.736 280.904,380.902 285.5,377.5C 290.177,375.826 294.844,374.16 299.5,372.5C 300.531,373.355 301.697,374.022 303,374.5C 307.136,373.066 311.303,371.732 315.5,370.5C 321.487,371.724 327.487,371.724 333.5,370.5C 337.652,371.243 341.319,373.076 344.5,376C 352.168,376.666 359.501,375.499 366.5,372.5C 367.416,372.543 368.083,372.876 368.5,373.5 Z"/></g>
<g><path style="opacity:1" fill="#ce9e8a" d="M 376.5,367.5 C 375.167,368.933 373.667,370.267 372,371.5C 371.51,372.793 371.343,374.127 371.5,375.5C 371.5,377.5 371.5,379.5 371.5,381.5C 370.681,378.695 370.181,375.695 370,372.5C 369.617,373.056 369.117,373.389 368.5,373.5C 368.083,372.876 367.416,372.543 366.5,372.5C 359.501,375.499 352.168,376.666 344.5,376C 341.319,373.076 337.652,371.243 333.5,370.5C 327.487,371.724 321.487,371.724 315.5,370.5C 311.303,371.732 307.136,373.066 303,374.5C 301.697,374.022 300.531,373.355 299.5,372.5C 300.514,371.326 301.847,370.66 303.5,370.5C 303.56,371.043 303.893,371.376 304.5,371.5C 307.144,370.705 309.811,370.038 312.5,369.5C 319.458,369.914 326.292,369.248 333,367.5C 335.798,368.599 338.631,369.599 341.5,370.5C 346.185,376.492 351.519,376.992 357.5,372C 360.833,371.667 364.167,371.333 367.5,371C 370.235,369.085 373.235,367.918 376.5,367.5 Z"/></g>
<g><path style="opacity:1" fill="#cda18c" d="M 454.5,357.5 C 458.753,363.112 459.42,369.112 456.5,375.5C 447.981,376.224 439.648,375.557 431.5,373.5C 439.822,374.055 448.156,374.388 456.5,374.5C 456.274,371.751 456.607,369.084 457.5,366.5C 455.126,363.972 454.126,360.972 454.5,357.5 Z"/></g>
<g><path style="opacity:1" fill="#d6d7dc" d="M 132.5,378.5 C 133.416,388.207 129.082,392.207 119.5,390.5C 117.052,389.527 114.385,389.194 111.5,389.5C 111.425,386.794 111.092,384.127 110.5,381.5C 117.896,380.659 125.229,379.659 132.5,378.5 Z"/></g>
<g><path style="opacity:1" fill="#7f7e87" d="M 204.5,378.5 C 210.5,378.5 216.5,378.5 222.5,378.5C 222.78,381.272 222.113,383.772 220.5,386C 218.697,386.637 217.364,387.803 216.5,389.5C 215.264,388.754 213.93,388.421 212.5,388.5C 212.285,390.179 212.952,391.179 214.5,391.5C 208.87,392.361 203.204,392.694 197.5,392.5C 197.5,391.5 197.5,390.5 197.5,389.5C 195.833,389.5 194.167,389.5 192.5,389.5C 192.5,390.5 192.5,391.5 192.5,392.5C 191.833,392.5 191.167,392.5 190.5,392.5C 190.5,391.5 190.5,390.5 190.5,389.5C 189.127,389.657 187.793,389.49 186.5,389C 189.063,388.237 189.063,387.737 186.5,387.5C 184.944,388.547 183.277,389.214 181.5,389.5C 181.5,388.167 181.5,386.833 181.5,385.5C 179.833,385.5 178.167,385.5 176.5,385.5C 176.884,383.071 177.551,380.737 178.5,378.5C 187.167,378.5 195.833,378.5 204.5,378.5 Z"/></g>
<g><path style="opacity:1" fill="#a09da4" d="M 284.5,375.5 C 284.833,376.167 285.167,376.833 285.5,377.5C 280.904,380.902 275.904,383.736 270.5,386C 271.793,386.49 273.127,386.657 274.5,386.5C 274.737,387.791 274.404,388.791 273.5,389.5C 272.848,388.275 271.681,387.608 270,387.5C 254.561,389.572 239.061,390.906 223.5,391.5C 224.295,388.577 225.628,385.91 227.5,383.5C 228.769,385.695 228.769,387.861 227.5,390C 229.473,390.495 231.473,390.662 233.5,390.5C 233.448,386.802 233.114,383.135 232.5,379.5C 242.368,380.109 252.201,381.109 262,382.5C 269.737,380.879 277.237,378.545 284.5,375.5 Z"/></g>
<g><path style="opacity:1" fill="#f5f4f5" d="M 176.5,385.5 C 178.167,385.5 179.833,385.5 181.5,385.5C 181.5,386.833 181.5,388.167 181.5,389.5C 183.277,389.214 184.944,388.547 186.5,387.5C 189.063,387.737 189.063,388.237 186.5,389C 187.793,389.49 189.127,389.657 190.5,389.5C 190.5,390.5 190.5,391.5 190.5,392.5C 176.5,392.5 162.5,392.5 148.5,392.5C 150.111,390.905 152.111,389.739 154.5,389C 156.112,388.28 157.612,388.446 159,389.5C 160.017,387.624 160.851,385.624 161.5,383.5C 165.341,381.882 168.841,382.548 172,385.5C 172.617,384.551 172.451,383.718 171.5,383C 172.793,382.51 174.127,382.343 175.5,382.5C 175.263,383.791 175.596,384.791 176.5,385.5 Z"/></g>
<g><path style="opacity:1" fill="#292529" d="M 371.5,381.5 C 372.496,381.414 373.329,381.748 374,382.5C 375.238,385.926 374.071,387.592 370.5,387.5C 370.071,396.61 370.738,405.61 372.5,414.5C 370.286,412.005 369.119,409.005 369,405.5C 368.5,394.839 368.333,384.172 368.5,373.5C 369.117,373.389 369.617,373.056 370,372.5C 370.181,375.695 370.681,378.695 371.5,381.5 Z"/></g>
<g><path style="opacity:1" fill="#5b5e63" d="M 455.5,380.5 C 458.003,382.833 460.669,384.999 463.5,387C 466.167,387.333 468.833,387.667 471.5,388C 463.916,390.039 458.582,387.539 455.5,380.5 Z"/></g>
<g><path style="opacity:1" fill="#24191f" d="M 74.5,386.5 C 86.3647,388.67 98.3647,390.003 110.5,390.5C 122.978,391.823 135.645,392.49 148.5,392.5C 162.5,392.5 176.5,392.5 190.5,392.5C 191.167,392.5 191.833,392.5 192.5,392.5C 194.167,392.5 195.833,392.5 197.5,392.5C 203.204,392.694 208.87,392.361 214.5,391.5C 217.5,391.5 220.5,391.5 223.5,391.5C 239.061,390.906 254.561,389.572 270,387.5C 271.681,387.608 272.848,388.275 273.5,389.5C 273.039,391.55 272.372,393.55 271.5,395.5C 277.138,396.33 282.804,396.83 288.5,397C 290.587,397.792 292.421,398.959 294,400.5C 294.973,406.877 292.139,410.377 285.5,411C 278.833,411.333 272.167,411.667 265.5,412C 259.705,427.098 251.039,440.265 239.5,451.5C 233.673,456.25 227.34,460.25 220.5,463.5C 216.85,466.777 212.517,468.611 207.5,469C 182.844,470.283 158.177,470.617 133.5,470C 128.744,467.731 124.41,464.897 120.5,461.5C 116.352,457.596 112.019,453.929 107.5,450.5C 102.803,444.809 98.1368,439.142 93.5,433.5C 92.4884,432.128 91.4884,430.795 90.5,429.5C 88.6607,424.49 86.1607,419.823 83,415.5C 82.6667,413.833 82.3333,412.167 82,410.5C 81.3292,409.748 80.4959,409.414 79.5,409.5C 73.1667,409.5 66.8333,409.5 60.5,409.5C 55.163,408.812 52.663,405.812 53,400.5C 55.9779,396.281 60.1446,394.281 65.5,394.5C 68.5719,394.817 71.5719,394.484 74.5,393.5C 73.2335,391.028 73.2335,388.694 74.5,386.5 Z"/></g>
<g><path style="opacity:1" fill="#a09da5" d="M 164.5,377.5 C 174.833,377.5 185.167,377.5 195.5,377.5C 198.713,377.19 201.713,377.523 204.5,378.5C 195.833,378.5 187.167,378.5 178.5,378.5C 177.551,380.737 176.884,383.071 176.5,385.5C 175.596,384.791 175.263,383.791 175.5,382.5C 174.127,382.343 172.793,382.51 171.5,383C 172.451,383.718 172.617,384.551 172,385.5C 168.841,382.548 165.341,381.882 161.5,383.5C 160.851,385.624 160.017,387.624 159,389.5C 157.612,388.446 156.112,388.28 154.5,389C 152.111,389.739 150.111,390.905 148.5,392.5C 135.645,392.49 122.978,391.823 110.5,390.5C 113.5,390.5 116.5,390.5 119.5,390.5C 129.082,392.207 133.416,388.207 132.5,378.5C 140.164,378.111 147.83,377.778 155.5,377.5C 155.5,378.833 155.5,380.167 155.5,381.5C 156.5,381.5 157.5,381.5 158.5,381.5C 158.64,379.876 157.973,378.71 156.5,378C 159.146,377.503 161.813,377.336 164.5,377.5 Z"/></g>
<g><path style="opacity:1" fill="#f0edf3" d="M 207.5,388.5 C 208.5,388.5 209.5,388.5 210.5,388.5C 210.5,389.5 210.5,390.5 210.5,391.5C 207.433,391.879 206.433,390.879 207.5,388.5 Z"/></g>
<g><path style="opacity:1" fill="#e7e3e8" d="M 197.5,392.5 C 195.833,392.5 194.167,392.5 192.5,392.5C 192.5,391.5 192.5,390.5 192.5,389.5C 194.167,389.5 195.833,389.5 197.5,389.5C 197.5,390.5 197.5,391.5 197.5,392.5 Z"/></g>
<g><path style="opacity:1" fill="#ad4d45" d="M 42.5,367.5 C 42.3334,385.836 42.5001,404.17 43,422.5C 50.4129,423.481 57.9129,423.814 65.5,423.5C 70.1667,423.5 74.8333,423.5 79.5,423.5C 67.3403,424.66 55.0069,424.827 42.5,424C 41.565,421.619 41.2317,419.119 41.5,416.5C 41.1702,399.991 41.5036,383.658 42.5,367.5 Z"/></g>
<g><path style="opacity:1" fill="#d6d8dd" d="M 707.5,411.5 C 703.731,411.244 700.064,411.577 696.5,412.5C 695.833,405.5 695.167,398.5 694.5,391.5C 699.833,391.5 705.167,391.5 710.5,391.5C 709.91,398.256 708.91,404.923 707.5,411.5 Z"/></g>
<g><path style="opacity:1" fill="#f1eef0" d="M 236.5,392.5 C 240.03,391.989 243.196,392.656 246,394.5C 246.143,409.734 240.643,422.567 229.5,433C 222.48,438.997 214.814,443.664 206.5,447C 221.464,438.373 231.63,425.873 237,409.5C 237.74,403.782 237.573,398.115 236.5,392.5 Z"/></g>
<g><path style="opacity:1" fill="#aaaaaa" d="M 636.5,391.5 C 640.508,393.2 642.008,395.867 641,399.5C 638.743,397.954 636.576,396.288 634.5,394.5C 635.612,393.735 636.279,392.735 636.5,391.5 Z"/></g>
<g><path style="opacity:1" fill="#fafafb" d="M 400.5,398.5 C 406.191,398.554 407.858,401.221 405.5,406.5C 397.249,407.917 395.582,405.251 400.5,398.5 Z"/></g>
<g><path style="opacity:1" fill="#f3f1f4" d="M 61.5,399.5 C 63.9775,399.051 65.9775,399.717 67.5,401.5C 66.3073,403.384 64.6406,403.884 62.5,403C 61.6634,401.989 61.33,400.822 61.5,399.5 Z"/></g>
<g><path style="opacity:1" fill="#eee8ec" d="M 278.5,399.5 C 280.199,399.34 281.866,399.506 283.5,400C 284.517,401.049 284.684,402.216 284,403.5C 281.163,405.053 278.663,404.72 276.5,402.5C 277.193,401.482 277.859,400.482 278.5,399.5 Z"/></g>
<g><path style="opacity:1" fill="#af2625" d="M 43.5,356.5 C 43.1412,358.371 42.1412,359.871 40.5,361C 42.0368,362.11 42.7035,363.61 42.5,365.5C 42.5,365.833 42.5,366.167 42.5,366.5C 42.5,366.833 42.5,367.167 42.5,367.5C 41.5036,383.658 41.1702,399.991 41.5,416.5C 40.6685,400.338 40.1685,384.005 40,367.5C 39.219,395.847 39.5523,424.18 41,452.5C 42.6965,453.364 43.8632,454.697 44.5,456.5C 62.4877,457.5 80.4877,457.833 98.5,457.5C 80.3409,458.497 62.0076,458.83 43.5,458.5C 41.832,456.66 40.332,454.66 39,452.5C 38.3333,422.167 38.3333,391.833 39,361.5C 39.9959,359.34 41.4959,357.673 43.5,356.5 Z"/></g>
<g><path style="opacity:1" fill="#281e22" d="M 654.5,414.5 C 654.5,415.167 654.167,415.5 653.5,415.5C 648.381,416.103 643.715,415.436 639.5,413.5C 640.586,413.38 641.253,412.713 641.5,411.5C 640.731,408.885 640.397,406.219 640.5,403.5C 643.5,403.5 646.5,403.5 649.5,403.5C 649.74,406.579 649.407,409.579 648.5,412.5C 650.495,413.295 652.495,413.961 654.5,414.5 Z"/></g>
<g><path style="opacity:1" fill="#958a90" d="M 149.5,414.5 C 151.973,414.947 152.14,415.947 150,417.5C 149.517,416.552 149.351,415.552 149.5,414.5 Z"/></g>
<g><path style="opacity:1" fill="#fafafc" d="M 457.5,423.5 C 463.786,424.315 465.12,427.481 461.5,433C 456,434.167 453.833,432 455,426.5C 455.698,425.309 456.531,424.309 457.5,423.5 Z"/></g>
<g><path style="opacity:1" fill="#de9107" d="M 655.5,419.5 C 655.5,420.167 655.5,420.833 655.5,421.5C 651.952,421.095 648.619,421.595 645.5,423C 648.426,423.687 649.759,425.52 649.5,428.5C 645.089,428.979 640.922,428.312 637,426.5C 633.392,418.611 632.059,419.278 633,428.5C 634.771,429.304 636.271,430.471 637.5,432C 635.117,432.804 632.95,433.971 631,435.5C 630.664,431.311 630.164,427.144 629.5,423C 629.844,419.334 631.677,416.834 635,415.5C 641.846,416.958 648.679,418.292 655.5,419.5 Z"/></g>
<g><path style="opacity:1" fill="#d09318" d="M 639.5,413.5 C 643.715,415.436 648.381,416.103 653.5,415.5C 654.167,416.833 654.833,418.167 655.5,419.5C 648.679,418.292 641.846,416.958 635,415.5C 631.677,416.834 629.844,419.334 629.5,423C 630.164,427.144 630.664,431.311 631,435.5C 632.95,433.971 635.117,432.804 637.5,432C 636.271,430.471 634.771,429.304 633,428.5C 632.059,419.278 633.392,418.611 637,426.5C 640.922,428.312 645.089,428.979 649.5,428.5C 649.759,425.52 648.426,423.687 645.5,423C 648.619,421.595 651.952,421.095 655.5,421.5C 655.631,422.376 655.298,423.043 654.5,423.5C 653.264,422.754 651.93,422.421 650.5,422.5C 650.215,424.288 650.548,425.955 651.5,427.5C 653.272,428.27 654.272,429.603 654.5,431.5C 652.994,436.804 649.994,440.637 645.5,443C 642.847,439.661 639.68,437.161 636,435.5C 634.564,435.559 633.231,435.892 632,436.5C 631.503,438.81 631.337,441.143 631.5,443.5C 630.5,443.5 629.5,443.5 628.5,443.5C 628.334,435.16 628.5,426.827 629,418.5C 631.22,414.308 634.72,412.641 639.5,413.5 Z"/></g>
<g><path style="opacity:1" fill="#bf2824" d="M 41.5,416.5 C 41.2317,419.119 41.565,421.619 42.5,424C 55.0069,424.827 67.3403,424.66 79.5,423.5C 79.5,418.833 79.5,414.167 79.5,409.5C 80.4959,409.414 81.3292,409.748 82,410.5C 82.3333,412.167 82.6667,413.833 83,415.5C 86.1607,419.823 88.6607,424.49 90.5,429.5C 90.5,430.5 90.5,431.5 90.5,432.5C 86.4295,432.766 82.4295,432.433 78.5,431.5C 77.1843,437.32 77.1843,442.987 78.5,448.5C 78.8333,448.5 79.1667,448.5 79.5,448.5C 79.9175,449.222 80.5842,449.722 81.5,450C 86.1548,450.499 90.8215,450.666 95.5,450.5C 98.6248,451.479 101.958,451.813 105.5,451.5C 105.673,456.323 103.339,458.323 98.5,457.5C 80.4877,457.833 62.4877,457.5 44.5,456.5C 43.8632,454.697 42.6965,453.364 41,452.5C 39.5523,424.18 39.219,395.847 40,367.5C 40.1685,384.005 40.6685,400.338 41.5,416.5 Z"/></g>
<g><path style="opacity:1" fill="#d5d5da" d="M 60.5,409.5 C 66.8333,409.5 73.1667,409.5 79.5,409.5C 79.5,414.167 79.5,418.833 79.5,423.5C 74.8333,423.5 70.1667,423.5 65.5,423.5C 65.5,419.5 65.5,415.5 65.5,411.5C 67.5273,411.662 69.5273,411.495 71.5,411C 67.6437,410.823 63.977,410.323 60.5,409.5 Z"/></g>
<g><path style="opacity:1" fill="#8d7048" d="M 707.5,411.5 C 711.549,427.744 715.216,444.077 718.5,460.5C 718.666,465.844 718.499,471.177 718,476.5C 717.573,480.527 715.406,483.027 711.5,484C 705.5,484.667 699.5,484.667 693.5,484C 689.529,482.12 687.363,478.953 687,474.5C 686.212,468.418 686.379,462.418 687.5,456.5C 690.084,441.749 693.084,427.082 696.5,412.5C 700.064,411.577 703.731,411.244 707.5,411.5 Z"/></g>
<g><path style="opacity:1" fill="#fbc1b7" d="M 90.5,433.5 C 87.0381,434.482 83.3714,434.815 79.5,434.5C 79.5,439.167 79.5,443.833 79.5,448.5C 79.1667,448.5 78.8333,448.5 78.5,448.5C 78.5,443.5 78.5,438.5 78.5,433.5C 82.5,433.5 86.5,433.5 90.5,433.5 Z"/></g>
<g><path style="opacity:1" fill="#a23430" d="M 90.5,429.5 C 91.4884,430.795 92.4884,432.128 93.5,433.5C 92.5,433.5 91.5,433.5 90.5,433.5C 86.5,433.5 82.5,433.5 78.5,433.5C 78.5,438.5 78.5,443.5 78.5,448.5C 77.1843,442.987 77.1843,437.32 78.5,431.5C 82.4295,432.433 86.4295,432.766 90.5,432.5C 90.5,431.5 90.5,430.5 90.5,429.5 Z"/></g>
<g><path style="opacity:1" fill="#faf5f5" d="M 90.5,433.5 C 91.5,433.5 92.5,433.5 93.5,433.5C 98.1368,439.142 102.803,444.809 107.5,450.5C 107.167,450.5 106.833,450.5 106.5,450.5C 102.833,450.5 99.1667,450.5 95.5,450.5C 90.8215,450.666 86.1548,450.499 81.5,450C 80.5842,449.722 79.9175,449.222 79.5,448.5C 79.5,443.833 79.5,439.167 79.5,434.5C 83.3714,434.815 87.0381,434.482 90.5,433.5 Z"/></g>
<g><path style="opacity:1" fill="#966d44" d="M 641.5,431.5 C 644.167,431.5 646.833,431.5 649.5,431.5C 649.434,437.197 646.768,438.863 641.5,436.5C 641.5,434.833 641.5,433.167 641.5,431.5 Z"/></g>
<g><path style="opacity:1" fill="#b0a7ac" d="M 263.5,433.5 C 263.918,434.222 264.584,434.722 265.5,435C 279.474,436.124 293.474,436.791 307.5,437C 291.487,437.679 275.487,437.512 259.5,436.5C 260.926,435.659 262.26,434.659 263.5,433.5 Z"/></g>
<g><path style="opacity:1" fill="#b9b0b5" d="M 353.5,435.5 C 354.209,436.404 355.209,436.737 356.5,436.5C 351.36,437.488 346.026,437.821 340.5,437.5C 339.833,437.5 339.5,437.167 339.5,436.5C 344.167,436.167 348.833,435.833 353.5,435.5 Z"/></g>
<g><path style="opacity:1" fill="#b3a99a" d="M 659.5,419.5 C 660.493,427.984 660.826,436.651 660.5,445.5C 662.167,445.5 663.833,445.5 665.5,445.5C 667.099,445.232 668.432,445.566 669.5,446.5C 666.167,446.5 662.833,446.5 659.5,446.5C 659.5,437.5 659.5,428.5 659.5,419.5 Z"/></g>
<g><path style="opacity:1" fill="#24191f" d="M 353.5,435.5 C 348.833,435.833 344.167,436.167 339.5,436.5C 334.786,436.173 330.12,436.507 325.5,437.5C 330.652,438.814 335.652,438.814 340.5,437.5C 346.026,437.821 351.36,437.488 356.5,436.5C 360.167,436.5 363.833,436.5 367.5,436.5C 367.007,438.806 366.674,441.139 366.5,443.5C 364.194,443.993 361.861,444.326 359.5,444.5C 352.475,445.069 345.475,445.903 338.5,447C 346.37,447.536 354.037,447.036 361.5,445.5C 363.199,445.34 364.866,445.506 366.5,446C 365.133,448.301 364.466,450.801 364.5,453.5C 363.212,455.035 363.212,456.701 364.5,458.5C 366.002,459.083 367.335,459.916 368.5,461C 368.272,461.399 367.938,461.565 367.5,461.5C 361.942,459.993 356.608,460.326 351.5,462.5C 346.833,463.167 342.167,463.833 337.5,464.5C 328.494,464.334 319.494,464.5 310.5,465C 307.964,465.186 305.631,465.686 303.5,466.5C 303.5,466.833 303.5,467.167 303.5,467.5C 300.941,467.198 298.607,467.532 296.5,468.5C 293.428,468.183 290.428,468.516 287.5,469.5C 282.808,472.009 277.808,473.675 272.5,474.5C 266.222,467.982 262.222,460.315 260.5,451.5C 260.216,449.585 260.549,447.919 261.5,446.5C 265.66,447.357 269.993,448.024 274.5,448.5C 275.5,448.167 276.5,447.833 277.5,447.5C 273.499,446.701 269.499,446.035 265.5,445.5C 262.161,445.11 258.827,444.61 255.5,444C 255.043,443.586 254.709,443.086 254.5,442.5C 256.045,441.548 257.712,441.215 259.5,441.5C 259.5,439.833 259.5,438.167 259.5,436.5C 275.487,437.512 291.487,437.679 307.5,437C 293.474,436.791 279.474,436.124 265.5,435C 264.584,434.722 263.918,434.222 263.5,433.5C 292.116,431.51 320.783,431.01 349.5,432C 354.282,432.119 358.949,432.785 363.5,434C 360.243,435.043 356.91,435.543 353.5,435.5 Z"/></g>
<g><path style="opacity:1" fill="#6a6066" d="M 339.5,436.5 C 339.5,437.167 339.833,437.5 340.5,437.5C 335.652,438.814 330.652,438.814 325.5,437.5C 330.12,436.507 334.786,436.173 339.5,436.5 Z"/></g>
<g><path style="opacity:1" fill="#896e44" d="M 654.5,414.5 C 656.5,415.833 658.167,417.5 659.5,419.5C 659.5,428.5 659.5,437.5 659.5,446.5C 655.634,447.1 651.967,448.434 648.5,450.5C 648.5,449.833 648.167,449.5 647.5,449.5C 647.918,448.778 648.584,448.278 649.5,448C 642.257,445.412 634.924,443.912 627.5,443.5C 627.833,443.5 628.167,443.5 628.5,443.5C 629.5,443.5 630.5,443.5 631.5,443.5C 631.337,441.143 631.503,438.81 632,436.5C 633.231,435.892 634.564,435.559 636,435.5C 639.68,437.161 642.847,439.661 645.5,443C 649.994,440.637 652.994,436.804 654.5,431.5C 654.272,429.603 653.272,428.27 651.5,427.5C 650.548,425.955 650.215,424.288 650.5,422.5C 651.93,422.421 653.264,422.754 654.5,423.5C 655.298,423.043 655.631,422.376 655.5,421.5C 655.5,420.833 655.5,420.167 655.5,419.5C 654.833,418.167 654.167,416.833 653.5,415.5C 654.167,415.5 654.5,415.167 654.5,414.5 Z"/></g>
<g><path style="opacity:1" fill="#857b81" d="M 265.5,445.5 C 269.499,446.035 273.499,446.701 277.5,447.5C 276.5,447.833 275.5,448.167 274.5,448.5C 269.993,448.024 265.66,447.357 261.5,446.5C 263.099,446.768 264.432,446.434 265.5,445.5 Z"/></g>
<g><path style="opacity:1" fill="#91868c" d="M 359.5,444.5 C 359.842,445.338 360.508,445.672 361.5,445.5C 354.037,447.036 346.37,447.536 338.5,447C 345.475,445.903 352.475,445.069 359.5,444.5 Z"/></g>
<g><path style="opacity:1" fill="#251a1f" d="M 627.5,443.5 C 634.924,443.912 642.257,445.412 649.5,448C 648.584,448.278 647.918,448.778 647.5,449.5C 635.28,451.951 622.946,453.785 610.5,455C 623.561,456.417 636.228,454.917 648.5,450.5C 651.967,448.434 655.634,447.1 659.5,446.5C 662.833,446.5 666.167,446.5 669.5,446.5C 669.822,448.722 669.155,450.556 667.5,452C 665.146,452.847 662.812,453.68 660.5,454.5C 658.585,454.216 656.919,454.549 655.5,455.5C 652.287,455.19 649.287,455.523 646.5,456.5C 644.784,460.26 642.784,463.927 640.5,467.5C 639.596,468.209 639.263,469.209 639.5,470.5C 635.518,473.152 631.851,476.152 628.5,479.5C 625.339,480.913 622.339,482.58 619.5,484.5C 601.604,486.474 583.604,486.974 565.5,486C 563.548,485.634 561.882,484.801 560.5,483.5C 554.582,480.254 548.915,476.587 543.5,472.5C 540.846,467.576 538.179,462.576 535.5,457.5C 527.495,456.071 519.495,454.738 511.5,453.5C 511.5,453.167 511.5,452.833 511.5,452.5C 510.699,450.958 510.366,449.292 510.5,447.5C 520.124,446.908 529.457,448.241 538.5,451.5C 551.327,452.66 564.327,452.827 577.5,452C 578.167,451.667 578.833,451.333 579.5,451C 575.514,450.501 571.514,450.334 567.5,450.5C 557.759,450.574 548.092,449.741 538.5,448C 537.944,447.617 537.611,447.117 537.5,446.5C 567.371,442.419 597.371,441.419 627.5,443.5 Z"/></g>
<g><path style="opacity:1" fill="#ada5a9" d="M 567.5,450.5 C 571.514,450.334 575.514,450.501 579.5,451C 578.833,451.333 578.167,451.667 577.5,452C 564.327,452.827 551.327,452.66 538.5,451.5C 548.348,451.827 558.014,451.494 567.5,450.5 Z"/></g>
<g><path style="opacity:1" fill="#cba96d" d="M 452.5,450.5 C 453.5,450.5 454.5,450.5 455.5,450.5C 456.338,450.842 456.672,451.508 456.5,452.5C 455.167,452.5 454.5,453.167 454.5,454.5C 453.833,454.167 453.167,453.833 452.5,453.5C 452.5,452.5 452.5,451.5 452.5,450.5 Z"/></g>
<g><path style="opacity:1" fill="#b54c4b" d="M 511.5,452.5 C 511.5,452.833 511.5,453.167 511.5,453.5C 506.156,453.334 500.823,453.501 495.5,454C 493.003,454.412 491.003,455.578 489.5,457.5C 496.989,458.167 504.322,458.833 511.5,459.5C 503.16,459.666 494.827,459.5 486.5,459C 486.043,458.586 485.709,458.086 485.5,457.5C 486.77,456.712 487.77,455.712 488.5,454.5C 496.021,452.692 503.688,452.025 511.5,452.5 Z"/></g>
<g><path style="opacity:1" fill="#d1cbcf" d="M 647.5,449.5 C 648.167,449.5 648.5,449.833 648.5,450.5C 636.228,454.917 623.561,456.417 610.5,455C 622.946,453.785 635.28,451.951 647.5,449.5 Z"/></g>
<g><path style="opacity:1" fill="#fbf4dd" d="M 452.5,453.5 C 453.167,453.833 453.833,454.167 454.5,454.5C 455.678,457.477 455.678,460.477 454.5,463.5C 452.876,463.36 451.71,464.027 451,465.5C 450.503,467.81 450.337,470.143 450.5,472.5C 449.5,472.5 448.5,472.5 447.5,472.5C 447.167,472.5 446.833,472.5 446.5,472.5C 446.335,469.482 446.502,466.482 447,463.5C 448.154,462.257 449.488,461.257 451,460.5C 451.483,459.552 451.649,458.552 451.5,457.5C 447.309,457.759 444.309,459.759 442.5,463.5C 442.423,458.196 445.089,455.696 450.5,456C 451.756,455.583 452.423,454.75 452.5,453.5 Z"/></g>
<g><path style="opacity:1" fill="#ba2a28" d="M 409.5,446.5 C 418.2,446.289 426.867,446.623 435.5,447.5C 436.773,448.077 436.773,448.743 435.5,449.5C 432.231,450.469 429.231,451.802 426.5,453.5C 424.015,455.49 421.348,457.157 418.5,458.5C 411.167,458.833 403.833,459.167 396.5,459.5C 395.766,458.292 395.433,456.959 395.5,455.5C 398.139,449.505 402.806,446.505 409.5,446.5 Z"/></g>
<g><path style="opacity:1" fill="#b52d28" d="M 511.5,453.5 C 519.495,454.738 527.495,456.071 535.5,457.5C 538.179,462.576 540.846,467.576 543.5,472.5C 543.189,473.478 542.522,474.145 541.5,474.5C 541.343,470.355 539.343,467.688 535.5,466.5C 533.3,464.36 530.633,462.86 527.5,462C 522.012,461.226 516.679,460.393 511.5,459.5C 504.322,458.833 496.989,458.167 489.5,457.5C 491.003,455.578 493.003,454.412 495.5,454C 500.823,453.501 506.156,453.334 511.5,453.5 Z"/></g>
<g><path style="opacity:1" fill="#d5d7dc" d="M 239.5,451.5 C 242.598,452.821 246.098,453.488 250,453.5C 253.902,453.488 257.402,452.821 260.5,451.5C 262.222,460.315 266.222,467.982 272.5,474.5C 271.524,475.815 270.524,477.148 269.5,478.5C 269.957,479.298 270.624,479.631 271.5,479.5C 275.567,481.054 279.9,481.72 284.5,481.5C 287.962,482.482 291.629,482.815 295.5,482.5C 305.891,484.901 316.558,485.901 327.5,485.5C 343.167,486.167 358.833,486.833 374.5,487.5C 374.5,487.833 374.5,488.167 374.5,488.5C 249.57,489.498 124.57,489.831 -0.5,489.5C -0.5,488.5 -0.5,487.5 -0.5,486.5C 2.18488,482.817 5.51821,479.817 9.5,477.5C 14.4985,479.602 19.8319,480.769 25.5,481C 75.5294,484.583 125.529,484.25 175.5,480C 186.447,478.569 197.113,476.402 207.5,473.5C 212.531,472.325 217.531,470.992 222.5,469.5C 222.833,469 223.167,468.5 223.5,468C 222.685,466.357 221.685,464.857 220.5,463.5C 227.34,460.25 233.673,456.25 239.5,451.5 Z"/></g>
<g><path style="opacity:1" fill="#9b98a1" d="M 364.5,453.5 C 365.552,455.256 367.219,455.923 369.5,455.5C 370.794,457.328 371.794,459.328 372.5,461.5C 370.784,461.629 369.117,461.962 367.5,462.5C 367.5,462.167 367.5,461.833 367.5,461.5C 367.938,461.565 368.272,461.399 368.5,461C 367.335,459.916 366.002,459.083 364.5,458.5C 363.212,456.701 363.212,455.035 364.5,453.5 Z"/></g>
<g><path style="opacity:1" fill="#d9b9ab" d="M 426.5,453.5 C 425.766,454.708 425.433,456.041 425.5,457.5C 429.824,457.073 434.158,456.739 438.5,456.5C 438.82,459.898 438.487,463.232 437.5,466.5C 435.016,464.464 434.016,461.798 434.5,458.5C 429.167,458.5 423.833,458.5 418.5,458.5C 421.348,457.157 424.015,455.49 426.5,453.5 Z"/></g>
<g><path style="opacity:1" fill="#a44b48" d="M 95.5,450.5 C 99.1667,450.5 102.833,450.5 106.5,450.5C 107.795,454.416 106.462,457.249 102.5,459C 82.8362,459.5 63.1695,459.667 43.5,459.5C 43.5,459.167 43.5,458.833 43.5,458.5C 62.0076,458.83 80.3409,458.497 98.5,457.5C 103.339,458.323 105.673,456.323 105.5,451.5C 101.958,451.813 98.6248,451.479 95.5,450.5 Z"/></g>
<g><path style="opacity:1" fill="#6a666e" d="M 369.5,455.5 C 378.167,455.5 386.833,455.5 395.5,455.5C 395.433,456.959 395.766,458.292 396.5,459.5C 388.571,460.413 380.571,461.08 372.5,461.5C 371.794,459.328 370.794,457.328 369.5,455.5 Z"/></g>
<g><path style="opacity:1" fill="#faf8f5" d="M 452.5,450.5 C 452.5,451.5 452.5,452.5 452.5,453.5C 452.423,454.75 451.756,455.583 450.5,456C 445.089,455.696 442.423,458.196 442.5,463.5C 442.7,466.63 443.366,469.63 444.5,472.5C 442.533,472.739 440.699,472.406 439,471.5C 437.008,472.665 435.175,473.998 433.5,475.5C 429.211,476.517 426.878,474.85 426.5,470.5C 425.614,471.325 425.281,472.325 425.5,473.5C 417.85,472.857 410.183,472.523 402.5,472.5C 393.282,470.845 383.949,469.845 374.5,469.5C 373.167,469.5 371.833,469.5 370.5,469.5C 363.167,469.5 355.833,469.5 348.5,469.5C 348.33,468.178 348.663,467.011 349.5,466C 353.102,464.243 356.768,463.076 360.5,462.5C 362.833,462.5 365.167,462.5 367.5,462.5C 369.117,461.962 370.784,461.629 372.5,461.5C 380.571,461.08 388.571,460.413 396.5,459.5C 403.833,459.167 411.167,458.833 418.5,458.5C 423.833,458.5 429.167,458.5 434.5,458.5C 434.016,461.798 435.016,464.464 437.5,466.5C 438.487,463.232 438.82,459.898 438.5,456.5C 434.158,456.739 429.824,457.073 425.5,457.5C 425.433,456.041 425.766,454.708 426.5,453.5C 429.231,451.802 432.231,450.469 435.5,449.5C 436.773,448.743 436.773,448.077 435.5,447.5C 436.972,444.923 439.305,443.59 442.5,443.5C 445.845,443.511 447.511,445.178 447.5,448.5C 449.514,448.392 451.18,449.058 452.5,450.5 Z"/></g>
<g><path style="opacity:1" fill="#7d2f2e" d="M 367.5,461.5 C 367.5,461.833 367.5,462.167 367.5,462.5C 365.167,462.5 362.833,462.5 360.5,462.5C 357.5,462.5 354.5,462.5 351.5,462.5C 356.608,460.326 361.942,459.993 367.5,461.5 Z"/></g>
<g><path style="opacity:1" fill="#7f7d88" d="M 106.5,450.5 C 106.833,450.5 107.167,450.5 107.5,450.5C 112.019,453.929 116.352,457.596 120.5,461.5C 116.177,463.61 111.51,465.443 106.5,467C 105.185,468.395 105.519,469.395 107.5,470C 123.764,472.4 140.097,474.233 156.5,475.5C 168.178,475.485 179.845,475.152 191.5,474.5C 196.787,473.658 202.12,473.324 207.5,473.5C 197.113,476.402 186.447,478.569 175.5,480C 125.529,484.25 75.5294,484.583 25.5,481C 19.8319,480.769 14.4985,479.602 9.5,477.5C 14.5922,470.903 20.2589,464.737 26.5,459C 32.2493,458.215 37.916,458.382 43.5,459.5C 63.1695,459.667 82.8362,459.5 102.5,459C 106.462,457.249 107.795,454.416 106.5,450.5 Z"/></g>
<g><path style="opacity:1" fill="#fafaf8" d="M 488.5,454.5 C 487.77,455.712 486.77,456.712 485.5,457.5C 485.709,458.086 486.043,458.586 486.5,459C 494.827,459.5 503.16,459.666 511.5,459.5C 516.679,460.393 522.012,461.226 527.5,462C 530.633,462.86 533.3,464.36 535.5,466.5C 531.937,468.317 527.937,469.483 523.5,470C 504.566,472.251 485.566,473.418 466.5,473.5C 464.833,473.5 463.167,473.5 461.5,473.5C 460.222,471.456 460.388,469.456 462,467.5C 462.667,463.5 462.667,459.5 462,455.5C 460.538,453.852 458.705,452.852 456.5,452.5C 456.672,451.508 456.338,450.842 455.5,450.5C 453.687,445.532 451.854,440.532 450,435.5C 449.667,430.5 449.333,425.5 449,420.5C 445.718,417.918 444.718,414.584 446,410.5C 449.048,406.99 452.381,406.657 456,409.5C 456.667,411.833 456.667,414.167 456,416.5C 449.777,424.402 450.11,432.069 457,439.5C 457.512,443.573 458.345,447.573 459.5,451.5C 460.484,448.572 460.817,445.572 460.5,442.5C 462.5,442.5 464.5,442.5 466.5,442.5C 466.244,440.208 466.577,438.041 467.5,436C 471.181,434.686 473.514,435.853 474.5,439.5C 471.319,443.866 469.819,448.866 470,454.5C 467.499,454.95 465.333,455.95 463.5,457.5C 467.107,458.489 470.774,458.823 474.5,458.5C 474.216,455.223 474.549,452.057 475.5,449C 477.833,448.333 480.167,448.333 482.5,449C 484.065,451.403 486.065,453.236 488.5,454.5 Z"/></g>
<g><path style="opacity:1" fill="#4a1417" d="M 337.5,464.5 C 326.334,465.403 315,466.07 303.5,466.5C 305.631,465.686 307.964,465.186 310.5,465C 319.494,464.5 328.494,464.334 337.5,464.5 Z"/></g>
<g><path style="opacity:1" fill="#d29d38" d="M 446.5,472.5 C 445.833,472.5 445.167,472.5 444.5,472.5C 443.366,469.63 442.7,466.63 442.5,463.5C 444.309,459.759 447.309,457.759 451.5,457.5C 451.649,458.552 451.483,459.552 451,460.5C 449.488,461.257 448.154,462.257 447,463.5C 446.502,466.482 446.335,469.482 446.5,472.5 Z"/></g>
<g><path style="opacity:1" fill="#d79311" d="M 646.5,456.5 C 649.5,456.5 652.5,456.5 655.5,456.5C 656.231,461.073 655.231,465.073 652.5,468.5C 650.696,469.162 648.696,469.495 646.5,469.5C 644.048,469.461 642.048,468.794 640.5,467.5C 642.784,463.927 644.784,460.26 646.5,456.5 Z"/></g>
<g><path style="opacity:1" fill="#977032" d="M 646.5,456.5 C 649.287,455.523 652.287,455.19 655.5,455.5C 656.5,455.5 657.5,455.5 658.5,455.5C 658.665,459.182 658.499,462.848 658,466.5C 656.556,468.155 654.722,468.822 652.5,468.5C 655.231,465.073 656.231,461.073 655.5,456.5C 652.5,456.5 649.5,456.5 646.5,456.5 Z"/></g>
<g><path style="opacity:1" fill="#8d7353" d="M 655.5,455.5 C 656.919,454.549 658.585,454.216 660.5,454.5C 660.666,458.514 660.499,462.514 660,466.5C 659.623,467.942 658.79,468.942 657.5,469.5C 651.536,470.307 645.536,470.64 639.5,470.5C 639.263,469.209 639.596,468.209 640.5,467.5C 642.048,468.794 644.048,469.461 646.5,469.5C 648.696,469.495 650.696,469.162 652.5,468.5C 654.722,468.822 656.556,468.155 658,466.5C 658.499,462.848 658.665,459.182 658.5,455.5C 657.5,455.5 656.5,455.5 655.5,455.5 Z"/></g>
<g><path style="opacity:1" fill="#d5d7dc" d="M 660.5,369.5 C 664.833,369.5 669.167,369.5 673.5,369.5C 671.685,371.468 671.185,373.802 672,376.5C 675.095,382.364 678.428,388.03 682,393.5C 682.5,414.497 682.667,435.497 682.5,456.5C 684.167,456.5 685.833,456.5 687.5,456.5C 686.379,462.418 686.212,468.418 687,474.5C 687.363,478.953 689.529,482.12 693.5,484C 699.5,484.667 705.5,484.667 711.5,484C 715.406,483.027 717.573,480.527 718,476.5C 718.499,471.177 718.666,465.844 718.5,460.5C 724.487,469.091 730.987,477.424 738,485.5C 738.5,492.492 738.666,499.492 738.5,506.5C 736.833,506.5 735.167,506.5 733.5,506.5C 733.5,509.833 733.5,513.167 733.5,516.5C 733.167,516.5 732.833,516.5 732.5,516.5C 732.5,513.167 732.5,509.833 732.5,506.5C 584.167,505.833 435.833,505.167 287.5,504.5C 330.128,501.186 372.795,498.853 415.5,497.5C 426.368,498.086 437.201,499.086 448,500.5C 451.263,501.012 453.763,500.012 455.5,497.5C 462.143,498.212 468.809,498.546 475.5,498.5C 481.939,500.305 488.606,501.138 495.5,501C 496.866,498.003 497.533,494.836 497.5,491.5C 490.833,491.5 484.167,491.5 477.5,491.5C 475.05,491.702 472.717,491.369 470.5,490.5C 470.5,490.167 470.5,489.833 470.5,489.5C 474.811,485.324 475.478,480.657 472.5,475.5C 470.343,474.95 468.343,474.283 466.5,473.5C 485.566,473.418 504.566,472.251 523.5,470C 527.937,469.483 531.937,468.317 535.5,466.5C 539.343,467.688 541.343,470.355 541.5,474.5C 542.522,474.145 543.189,473.478 543.5,472.5C 548.915,476.587 554.582,480.254 560.5,483.5C 557.092,484.02 553.759,485.02 550.5,486.5C 552.369,487.624 554.369,488.457 556.5,489C 578.901,492.602 601.235,492.269 623.5,488C 625.384,487.784 627.051,487.117 628.5,486C 625.305,485.819 622.305,485.319 619.5,484.5C 622.339,482.58 625.339,480.913 628.5,479.5C 639.293,479.979 649.959,479.146 660.5,477C 661.308,476.692 661.975,476.192 662.5,475.5C 660.758,473.437 659.091,471.437 657.5,469.5C 658.79,468.942 659.623,467.942 660,466.5C 660.499,462.514 660.666,458.514 660.5,454.5C 662.812,453.68 665.146,452.847 667.5,452C 669.155,450.556 669.822,448.722 669.5,446.5C 668.432,445.566 667.099,445.232 665.5,445.5C 665.833,427.821 665.5,410.154 664.5,392.5C 660.63,391.566 656.963,391.566 653.5,392.5C 656,388.833 658.5,385.167 661,381.5C 662.44,377.959 663.274,374.292 663.5,370.5C 662.209,370.737 661.209,370.404 660.5,369.5 Z"/></g>
<g><path style="opacity:1" fill="#f9fafb" d="M 666.5,372.5 C 667.833,372.5 669.167,372.5 670.5,372.5C 670.338,374.527 670.505,376.527 671,378.5C 673.667,383.167 676.333,387.833 679,392.5C 679.667,395.5 679.667,398.5 679,401.5C 678.399,398.363 677.399,395.363 676,392.5C 669.896,387.229 666.73,380.563 666.5,372.5 Z"/></g>
<g><path style="opacity:1" fill="#b32c29" d="M 351.5,462.5 C 354.5,462.5 357.5,462.5 360.5,462.5C 356.768,463.076 353.102,464.243 349.5,466C 348.663,467.011 348.33,468.178 348.5,469.5C 355.833,469.5 363.167,469.5 370.5,469.5C 370.5,469.833 370.5,470.167 370.5,470.5C 359.352,470.803 348.352,470.803 337.5,470.5C 337.5,471.833 337.5,473.167 337.5,474.5C 331.463,474.829 325.463,474.496 319.5,473.5C 324.833,472.833 330.167,472.167 335.5,471.5C 333.5,470.833 331.5,470.167 329.5,469.5C 333.31,468.929 336.976,468.096 340.5,467C 328.156,466.414 315.822,466.581 303.5,467.5C 303.5,467.167 303.5,466.833 303.5,466.5C 315,466.07 326.334,465.403 337.5,464.5C 342.167,463.833 346.833,463.167 351.5,462.5 Z"/></g>
<g><path style="opacity:1" fill="#cca23c" d="M 418.5,466.5 C 419.5,466.5 420.5,466.5 421.5,466.5C 421.799,468.604 421.466,470.604 420.5,472.5C 418.717,470.977 418.051,468.977 418.5,466.5 Z"/></g>
<g><path style="opacity:1" fill="#d69725" d="M 456.5,452.5 C 458.705,452.852 460.538,453.852 462,455.5C 462.667,459.5 462.667,463.5 462,467.5C 460.388,469.456 460.222,471.456 461.5,473.5C 456.637,473.819 451.97,473.486 447.5,472.5C 448.5,472.5 449.5,472.5 450.5,472.5C 450.337,470.143 450.503,467.81 451,465.5C 451.71,464.027 452.876,463.36 454.5,463.5C 455.678,460.477 455.678,457.477 454.5,454.5C 454.5,453.167 455.167,452.5 456.5,452.5 Z"/></g>
<g><path style="opacity:1" fill="#f5dda3" d="M 456.5,463.5 C 457.5,463.5 458.5,463.5 459.5,463.5C 459.663,465.857 459.497,468.19 459,470.5C 458.586,470.957 458.086,471.291 457.5,471.5C 456.52,468.914 456.187,466.247 456.5,463.5 Z"/></g>
<g><path style="opacity:1" fill="#6a656e" d="M 120.5,461.5 C 124.41,464.897 128.744,467.731 133.5,470C 158.177,470.617 182.844,470.283 207.5,469C 212.517,468.611 216.85,466.777 220.5,463.5C 221.685,464.857 222.685,466.357 223.5,468C 223.167,468.5 222.833,469 222.5,469.5C 217.531,470.992 212.531,472.325 207.5,473.5C 202.12,473.324 196.787,473.658 191.5,474.5C 179.674,473.34 167.674,473.174 155.5,474C 156.056,474.383 156.389,474.883 156.5,475.5C 140.097,474.233 123.764,472.4 107.5,470C 105.519,469.395 105.185,468.395 106.5,467C 111.51,465.443 116.177,463.61 120.5,461.5 Z"/></g>
<g><path style="opacity:1" fill="#35313b" d="M 191.5,474.5 C 179.845,475.152 168.178,475.485 156.5,475.5C 156.389,474.883 156.056,474.383 155.5,474C 167.674,473.174 179.674,473.34 191.5,474.5 Z"/></g>
<g><path style="opacity:1" fill="#c12722" d="M 370.5,470.5 C 373.113,471.095 373.113,471.929 370.5,473C 362.284,474.851 353.951,476.018 345.5,476.5C 336.533,476.087 327.866,477.087 319.5,479.5C 314.146,479.569 308.813,479.902 303.5,480.5C 292.815,480.61 282.148,480.277 271.5,479.5C 274.355,477.75 277.689,476.917 281.5,477C 280.167,476.667 278.833,476.333 277.5,476C 282.714,473.492 288.214,471.992 294,471.5C 295.31,470.87 296.144,469.87 296.5,468.5C 298.607,467.532 300.941,467.198 303.5,467.5C 315.822,466.581 328.156,466.414 340.5,467C 336.976,468.096 333.31,468.929 329.5,469.5C 331.5,470.167 333.5,470.833 335.5,471.5C 330.167,472.167 324.833,472.833 319.5,473.5C 325.463,474.496 331.463,474.829 337.5,474.5C 337.5,473.167 337.5,471.833 337.5,470.5C 348.352,470.803 359.352,470.803 370.5,470.5 Z"/></g>
<g><path style="opacity:1" fill="#6b656f" d="M 374.5,469.5 C 383.949,469.845 393.282,470.845 402.5,472.5C 404.216,476.972 404.882,481.638 404.5,486.5C 394.792,485.104 385.125,484.771 375.5,485.5C 359.5,485.5 343.5,485.5 327.5,485.5C 316.558,485.901 305.891,484.901 295.5,482.5C 301.842,482.666 308.175,482.5 314.5,482C 316.744,481.95 318.411,481.117 319.5,479.5C 328.213,479.327 336.88,478.66 345.5,477.5C 354.595,477.082 363.595,475.916 372.5,474C 374.107,472.951 374.773,471.451 374.5,469.5 Z"/></g>
<g><path style="opacity:1" fill="#a62e2f" d="M 296.5,468.5 C 296.144,469.87 295.31,470.87 294,471.5C 288.214,471.992 282.714,473.492 277.5,476C 278.833,476.333 280.167,476.667 281.5,477C 277.689,476.917 274.355,477.75 271.5,479.5C 270.624,479.631 269.957,479.298 269.5,478.5C 270.524,477.148 271.524,475.815 272.5,474.5C 277.808,473.675 282.808,472.009 287.5,469.5C 290.428,468.516 293.428,468.183 296.5,468.5 Z"/></g>
<g><path style="opacity:1" fill="#6b656c" d="M 657.5,469.5 C 659.091,471.437 660.758,473.437 662.5,475.5C 661.975,476.192 661.308,476.692 660.5,477C 649.959,479.146 639.293,479.979 628.5,479.5C 631.851,476.152 635.518,473.152 639.5,470.5C 645.536,470.64 651.536,470.307 657.5,469.5 Z"/></g>
<g><path style="opacity:1" fill="#914d4d" d="M 370.5,470.5 C 370.5,470.167 370.5,469.833 370.5,469.5C 371.833,469.5 373.167,469.5 374.5,469.5C 374.773,471.451 374.107,472.951 372.5,474C 363.595,475.916 354.595,477.082 345.5,477.5C 345.5,477.167 345.5,476.833 345.5,476.5C 353.951,476.018 362.284,474.851 370.5,473C 373.113,471.929 373.113,471.095 370.5,470.5 Z"/></g>
<g><path style="opacity:1" fill="#a2a3a8" d="M 503.5,474.5 C 507.514,474.334 511.514,474.501 515.5,475C 514.377,476.044 513.044,476.71 511.5,477C 505.472,477.83 499.472,477.664 493.5,476.5C 496.977,475.833 500.311,475.166 503.5,474.5 Z"/></g>
<g><path style="opacity:1" fill="#a73636" d="M 345.5,476.5 C 345.5,476.833 345.5,477.167 345.5,477.5C 336.88,478.66 328.213,479.327 319.5,479.5C 327.866,477.087 336.533,476.087 345.5,476.5 Z"/></g>
<g><path style="opacity:1" fill="#9e9ea5" d="M 475.5,477.5 C 483.541,477.336 491.541,477.836 499.5,479C 495.5,479.167 491.5,479.333 487.5,479.5C 483.107,479.491 479.107,478.824 475.5,477.5 Z"/></g>
<g><path style="opacity:1" fill="#a83935" d="M 271.5,479.5 C 282.148,480.277 292.815,480.61 303.5,480.5C 297.355,481.49 291.022,481.823 284.5,481.5C 279.9,481.72 275.567,481.054 271.5,479.5 Z"/></g>
<g><path style="opacity:1" fill="#d3d5db" d="M 433.5,475.5 C 429.625,478.234 426.959,481.9 425.5,486.5C 424.599,487.29 423.932,488.29 423.5,489.5C 416.822,489.873 410.489,488.873 404.5,486.5C 404.882,481.638 404.216,476.972 402.5,472.5C 410.183,472.523 417.85,472.857 425.5,473.5C 425.281,472.325 425.614,471.325 426.5,470.5C 426.878,474.85 429.211,476.517 433.5,475.5 Z"/></g>
<g><path style="opacity:1" fill="#bf2924" d="M 444.5,472.5 C 445.167,472.5 445.833,472.5 446.5,472.5C 446.833,472.5 447.167,472.5 447.5,472.5C 451.97,473.486 456.637,473.819 461.5,473.5C 463.167,473.5 464.833,473.5 466.5,473.5C 468.343,474.283 470.343,474.95 472.5,475.5C 475.478,480.657 474.811,485.324 470.5,489.5C 463.342,493.352 455.675,494.518 447.5,493C 440.437,491.99 433.437,490.656 426.5,489C 425.748,488.329 425.414,487.496 425.5,486.5C 426.959,481.9 429.625,478.234 433.5,475.5C 435.175,473.998 437.008,472.665 439,471.5C 440.699,472.406 442.533,472.739 444.5,472.5 Z"/></g>
<g><path style="opacity:1" fill="#84595d" d="M 319.5,479.5 C 318.411,481.117 316.744,481.95 314.5,482C 308.175,482.5 301.842,482.666 295.5,482.5C 291.629,482.815 287.962,482.482 284.5,481.5C 291.022,481.823 297.355,481.49 303.5,480.5C 308.813,479.902 314.146,479.569 319.5,479.5 Z"/></g>
<g><path style="opacity:1" fill="#9998a0" d="M 327.5,485.5 C 343.5,485.5 359.5,485.5 375.5,485.5C 375.672,486.492 375.338,487.158 374.5,487.5C 358.833,486.833 343.167,486.167 327.5,485.5 Z"/></g>
<g><path style="opacity:1" fill="#6d6871" d="M 560.5,483.5 C 561.882,484.801 563.548,485.634 565.5,486C 583.604,486.974 601.604,486.474 619.5,484.5C 622.305,485.319 625.305,485.819 628.5,486C 627.051,487.117 625.384,487.784 623.5,488C 601.235,492.269 578.901,492.602 556.5,489C 554.369,488.457 552.369,487.624 550.5,486.5C 553.759,485.02 557.092,484.02 560.5,483.5 Z"/></g>
<g><path style="opacity:1" fill="#a57678" d="M 425.5,486.5 C 425.414,487.496 425.748,488.329 426.5,489C 433.437,490.656 440.437,491.99 447.5,493C 455.675,494.518 463.342,493.352 470.5,489.5C 470.5,489.833 470.5,490.167 470.5,490.5C 469.251,492.136 467.584,493.303 465.5,494C 460.845,494.499 456.179,494.666 451.5,494.5C 441.926,493.683 432.593,492.016 423.5,489.5C 423.932,488.29 424.599,487.29 425.5,486.5 Z"/></g>
<g><path style="opacity:1" fill="#251b22" d="M 404.5,486.5 C 410.489,488.873 416.822,489.873 423.5,489.5C 432.593,492.016 441.926,493.683 451.5,494.5C 453.219,495.022 454.552,496.022 455.5,497.5C 453.763,500.012 451.263,501.012 448,500.5C 437.201,499.086 426.368,498.086 415.5,497.5C 404.313,496.017 392.98,494.517 381.5,493C 379.392,492.64 377.392,491.973 375.5,491C 374.748,490.329 374.414,489.496 374.5,488.5C 374.5,488.167 374.5,487.833 374.5,487.5C 375.338,487.158 375.672,486.492 375.5,485.5C 385.125,484.771 394.792,485.104 404.5,486.5 Z"/></g>
<g><path style="opacity:1" fill="#7f7c87" d="M 374.5,488.5 C 374.414,489.496 374.748,490.329 375.5,491C 377.392,491.973 379.392,492.64 381.5,493C 392.98,494.517 404.313,496.017 415.5,497.5C 372.795,498.853 330.128,501.186 287.5,504.5C 285.219,504.077 283.552,504.744 282.5,506.5C 193.167,506.5 103.833,506.5 14.5,506.5C 9.5,506.5 4.5,506.5 -0.5,506.5C -0.5,500.833 -0.5,495.167 -0.5,489.5C 124.57,489.831 249.57,489.498 374.5,488.5 Z"/></g>
<g><path style="opacity:1" fill="#9d9ca4" d="M 470.5,490.5 C 472.717,491.369 475.05,491.702 477.5,491.5C 475.852,493.456 475.185,495.789 475.5,498.5C 468.809,498.546 462.143,498.212 455.5,497.5C 454.552,496.022 453.219,495.022 451.5,494.5C 456.179,494.666 460.845,494.499 465.5,494C 467.584,493.303 469.251,492.136 470.5,490.5 Z"/></g>
<g><path style="opacity:1" fill="#6a676e" d="M 477.5,491.5 C 484.167,491.5 490.833,491.5 497.5,491.5C 497.533,494.836 496.866,498.003 495.5,501C 488.606,501.138 481.939,500.305 475.5,498.5C 475.185,495.789 475.852,493.456 477.5,491.5 Z"/></g>
<g><path style="opacity:1" fill="#9d9ca4" d="M 287.5,504.5 C 435.833,505.167 584.167,505.833 732.5,506.5C 582.5,506.5 432.5,506.5 282.5,506.5C 283.552,504.744 285.219,504.077 287.5,504.5 Z"/></g>
<g><path style="opacity:1" fill="#fafafb" d="M -0.5,506.5 C 4.5,506.5 9.5,506.5 14.5,506.5C 14.5,509.833 14.5,513.167 14.5,516.5C 9.5,516.5 4.5,516.5 -0.5,516.5C -0.5,513.167 -0.5,509.833 -0.5,506.5 Z"/></g>
<g><path style="opacity:1" fill="#6c6771" d="M 14.5,506.5 C 103.833,506.5 193.167,506.5 282.5,506.5C 432.5,506.5 582.5,506.5 732.5,506.5C 732.5,509.833 732.5,513.167 732.5,516.5C 493.167,516.5 253.833,516.5 14.5,516.5C 14.5,513.167 14.5,509.833 14.5,506.5 Z"/></g>
</svg>
